<?xml version="1.0" encoding="utf-8"?>
<!-- Generator: Adobe Illustrator 18.1.1, SVG Export Plug-In . SVG Version: 6.00 Build 0)  -->
<!DOCTYPE svg PUBLIC "-//W3C//DTD SVG 1.1//EN" "http://www.w3.org/Graphics/SVG/1.1/DTD/svg11.dtd">
<svg version="1.1" id="Layer_1" xmlns="http://www.w3.org/2000/svg" xmlns:xlink="http://www.w3.org/1999/xlink" x="0px" y="0px"
	 viewBox="0 0 665.3 368.5" enable-background="new 0 0 665.3 368.5" xml:space="preserve">
<g id="XMLID_8278_">
	<defs>
		<rect id="XMLID_8277_" x="24.4" y="0" width="600.3" height="368.5"/>
	</defs>
	<clipPath id="XMLID_6_">
		<use xlink:href="#XMLID_8277_"  overflow="visible"/>
	</clipPath>
	<g id="XMLID_8276_" clip-path="url(#XMLID_6_)">
		<rect id="XMLID_8897_" x="24" y="206.2" fill="none" width="600" height="155.7"/>
		<g id="XMLID_8894_">
			<linearGradient id="XMLID_7_" gradientUnits="userSpaceOnUse" x1="197.0995" y1="330.8392" x2="197.0995" y2="219.3592">
				<stop  offset="0" style="stop-color:#EC6306;stop-opacity:0.3"/>
				<stop  offset="1" style="stop-color:#EC6306"/>
			</linearGradient>
			<ellipse id="XMLID_8896_" fill="url(#XMLID_7_)" cx="197.1" cy="285.2" rx="197.1" ry="64.5"/>
			<linearGradient id="XMLID_8_" gradientUnits="userSpaceOnUse" x1="474.1313" y1="330.8392" x2="474.1313" y2="219.3592">
				<stop  offset="0" style="stop-color:#EC6306;stop-opacity:0.3"/>
				<stop  offset="1" style="stop-color:#EC6306"/>
			</linearGradient>
			<ellipse id="XMLID_8895_" fill="url(#XMLID_8_)" cx="474.1" cy="303.3" rx="191.2" ry="55.7"/>
		</g>
		<rect id="XMLID_8893_" x="24" y="200.6" fill="none" width="600" height="155.7"/>
		<linearGradient id="XMLID_9_" gradientUnits="userSpaceOnUse" x1="324.1859" y1="83.2099" x2="324.1859" y2="283.0621">
			<stop  offset="0" style="stop-color:#EC6306;stop-opacity:0.3"/>
			<stop  offset="1" style="stop-color:#EC6306"/>
		</linearGradient>
		<circle id="XMLID_8892_" fill="url(#XMLID_9_)" cx="324.2" cy="178.2" r="152.3"/>
		<rect id="XMLID_8754_" x="24" y="206.2" fill="none" width="600" height="155.7"/>
		<g id="XMLID_8252_">
			<g id="XMLID_8254_">
				<path id="XMLID_8753_" fill="#6D1200" d="M329.7,297.4c-0.5-0.7,0.7,0.7-2.9,4.3c-3.6,3.6-8.4-2-9.6,1.7c-1.2,3.7,3.1,2,9.6,5
					c6.5,3-4.3,4.7,0,6s7-2.7,11.1,0c4.2,2.7,1.2,7,5,5.6c0,0,4-1.6,4.3-2.1c0.2-0.5-3.5-15.1-3.7-15.1c-0.2,0-6.9-6.6-6.9-6.6
					L329.7,297.4z"/>
				<path id="XMLID_8752_" fill="#C73625" d="M220.9,227.2c0,0,4.8-0.4,4.6,6.1c0,0-0.3,5.2,1.4,5s-1.3-12.1,1.2-10.9
					c2.4,1.3-0.3,15.7,3.7,21.7v-25.1L220.9,227.2z"/>
				<path id="XMLID_8751_" fill="#7C1B00" d="M215.2,160.6c0,0,3.3,5.3,2.5,11.9c0,0-0.3,4.5,0.9,5c0,0,1.4,1.5,2.1-5.4
					c0.7-6.9,2.4,5.1,1.9,7.2c-0.5,2.1,0.7,7.3,2.4,6.5c1.7-0.9-1.5-17.6,4.8-14L215.2,160.6z"/>
				<g id="XMLID_8748_">
					<path fill="#6D1200" d="M231.4,265.4c-6.9,6.1-28.7-1.7-29.5,3.2c0,3.2,16.4,0.6,16.9,2.3c1,3.8-24.5,3.2-30.6,4
						c-1.8,0-10,1.1-9.5,4.2c0.5,2.6,7.1,2.1,9,2.1c6.6,0.3,20.8-2.4,26.4,1.6c6.9,5-13.5,6.6-11.3,9.8c2.8,2.7,9-1.1,12.7,1.1
						c3.4,1.6,1.8,6.3,5.5,7.6c3.7,1.6,10.3-2.4,14.5-2.1c6.3,0.3,6.3,3.4,9.5,7.4c11.6,14.8,23.7-8.4,33.8-10.5
						c4.5-1.1,8.4,0.3,12.4-0.5c2.6-0.8,5-1.6,7.4-2.1c7.4-1.8,9.8-2.6,12.4-10.3c1.1-3.4,1.6-3.7-1.3-5c-2.6-1.6-8.7-0.3-11.6-0.8
						c-5.8-1.1-11.3-2.1-17.1-2.6c-12.7-1.3-25.3-5.3-38.2-7.1c-3.7-0.5-7.4-1.3-11.1-2.4"/>
				</g>
				<g id="XMLID_8706_">
					<g id="XMLID_8743_">
						<path id="XMLID_8747_" fill="#FFFFFF" d="M211.2,125.4c1.8,1.4,2.3,3.6,1.2,5L195.1,153c-1.1,1.4-3.4,1.5-5.2,0.1l0,0
							c-1.8-1.4-2.3-3.6-1.2-5l17.3-22.5C207.1,124.1,209.4,124.1,211.2,125.4L211.2,125.4z"/>
						<path id="XMLID_8744_" fill="#231815" d="M192.7,155.7c-1.2,0-2.3-0.8-3.3-1.5c-1-0.8-1.7-2-2-3.2c-0.3-1.2-0.1-2.5,0.6-3.4
							l16.8-22.6c1.4-1.8,6-2,6-0.3v0c4,1.7,3.2,4.5,1.8,6.3l-17.1,22.9c-0.7,0.9-1.6,1.8-2.8,1.8
							C192.8,155.7,192.7,155.7,192.7,155.7z M208.4,125.4c-0.7,0-1.3,0.2-1.7,0.7l-17.3,22.5c-0.4,0.5-0.5,1.1-0.3,1.7
							c0.2,0.7,0.7,1.4,1.3,2s1.5,0.8,2.3,0.8c0.7,0,1.3-0.3,1.6-0.7l17.3-22.5c0.8-1,0.3-2.7-1.1-3.7
							C209.9,125.6,209.1,125.4,208.4,125.4z"/>
					</g>
					<g id="XMLID_8738_">
						<polygon id="XMLID_8742_" fill="#FFFFFF" points="244.5,162.7 234.7,175.5 198.8,148.1 208.6,135.3 						"/>
						<path id="XMLID_8739_" fill="#231815" d="M234.9,176.8l-37.4-28.6l10.9-14.3l37.4,28.6L234.9,176.8z M200.1,147.9l34.4,26.3
							l8.7-11.3l-34.4-26.3L200.1,147.9z"/>
					</g>
					
						<rect id="XMLID_8737_" x="199" y="154.6" transform="matrix(0.7917 0.6109 -0.6109 0.7917 141.1501 -102.9985)" fill="#231815" width="45.2" height="1.9"/>
					
						<rect id="XMLID_8736_" x="198.5" y="120.7" transform="matrix(0.7933 0.6088 -0.6088 0.7933 125.4942 -92.8247)" fill="#231815" width="1.9" height="35.4"/>
					<g id="XMLID_8731_">
						
							<rect id="XMLID_8735_" x="172.1" y="96.2" transform="matrix(0.6087 -0.7934 0.7934 0.6087 -27.0689 189.7973)" fill="#FFFFFF" width="13.6" height="52.2"/>
						<path id="XMLID_8732_" fill="#231815" d="M195.6,144.9L152.7,112l9.4-12.3l42.9,32.9L195.6,144.9z M155.3,111.7l40,30.7
							l7.2-9.3l-40-30.7L155.3,111.7z"/>
					</g>
					<g id="XMLID_8726_">
						<path id="XMLID_8730_" fill="#FFFFFF" d="M162.7,101.3c0.3,0.3,0.2,1-0.3,1.6l-6.5,8.5c-0.5,0.6-1.1,0.9-1.5,0.7l-3.5-2.7
							c-0.3-0.3-0.2-1,0.3-1.6l6.5-8.5c0.5-0.6,1.1-0.9,1.5-0.7L162.7,101.3z"/>
						<path id="XMLID_8727_" fill="#231815" d="M154.7,113.2c-0.3,0-0.6-0.1-0.9-0.3l-3.5-2.7c-0.8-0.6-0.7-1.8,0.1-2.9l6.5-8.5
							c0.3-0.4,0.7-0.8,1.1-0.9c0.6-0.3,1.2-0.2,1.6,0.1l3.5,2.7c0.4,0.3,0.6,0.9,0.5,1.5c-0.1,0.5-0.3,0.9-0.6,1.4l-6.5,8.5
							c-0.3,0.4-0.7,0.8-1.1,0.9C155.2,113.1,154.9,113.2,154.7,113.2z M151.7,108.9l3.1,2.4c0.1-0.1,0.2-0.2,0.4-0.4l6.5-8.5
							c0.1-0.2,0.2-0.3,0.2-0.5l-3.1-2.4c-0.1,0.1-0.2,0.2-0.4,0.4l-6.5,8.5C151.8,108.6,151.7,108.8,151.7,108.9z"/>
					</g>
					
						<rect id="XMLID_8725_" x="164.9" y="105.8" transform="matrix(0.7933 0.6088 -0.6088 0.7933 102.7997 -77.6587)" fill="#231815" width="1.9" height="13.6"/>
					
						<rect id="XMLID_8724_" x="167" y="107.4" transform="matrix(0.7933 0.6088 -0.6088 0.7933 104.2151 -78.6047)" fill="#231815" width="1.9" height="13.6"/>
					
						<rect id="XMLID_8723_" x="169.1" y="109" transform="matrix(0.7933 0.6088 -0.6088 0.7933 105.6305 -79.5505)" fill="#231815" width="1.9" height="13.6"/>
					
						<rect id="XMLID_8722_" x="171.2" y="110.6" transform="matrix(0.7933 0.6088 -0.6088 0.7933 107.0459 -80.4965)" fill="#231815" width="1.9" height="13.6"/>
					
						<rect id="XMLID_8721_" x="173.3" y="112.2" transform="matrix(0.7933 0.6088 -0.6088 0.7933 108.4612 -81.4423)" fill="#231815" width="1.9" height="13.6"/>
					
						<rect id="XMLID_8720_" x="175.4" y="113.8" transform="matrix(0.7933 0.6088 -0.6088 0.7933 109.8767 -82.3881)" fill="#231815" width="1.9" height="13.6"/>
					
						<rect id="XMLID_8719_" x="177.5" y="115.4" transform="matrix(0.7933 0.6088 -0.6088 0.7933 111.2921 -83.3339)" fill="#231815" width="1.9" height="13.6"/>
					
						<rect id="XMLID_8718_" x="179.6" y="117.1" transform="matrix(0.7933 0.6088 -0.6088 0.7933 112.7074 -84.2798)" fill="#231815" width="1.9" height="13.6"/>
					
						<rect id="XMLID_8717_" x="181.7" y="118.7" transform="matrix(0.7933 0.6088 -0.6088 0.7933 114.123 -85.2257)" fill="#231815" width="1.9" height="13.6"/>
					
						<rect id="XMLID_8716_" x="183.8" y="120.3" transform="matrix(0.7933 0.6088 -0.6088 0.7933 115.5384 -86.1715)" fill="#231815" width="1.9" height="13.6"/>
					
						<rect id="XMLID_8715_" x="185.9" y="121.9" transform="matrix(0.7933 0.6088 -0.6088 0.7933 116.9538 -87.1175)" fill="#231815" width="1.9" height="13.6"/>
					
						<rect id="XMLID_8714_" x="188" y="123.5" transform="matrix(0.7933 0.6088 -0.6088 0.7933 118.3691 -88.0633)" fill="#231815" width="1.9" height="13.6"/>
					
						<rect id="XMLID_8713_" x="190.1" y="125.1" transform="matrix(0.7933 0.6088 -0.6088 0.7933 119.7845 -89.0091)" fill="#231815" width="1.9" height="13.6"/>
					
						<rect id="XMLID_8712_" x="192.2" y="126.7" transform="matrix(0.7933 0.6088 -0.6088 0.7933 121.1999 -89.955)" fill="#231815" width="1.9" height="13.6"/>
					
						<rect id="XMLID_8711_" x="194.3" y="128.3" transform="matrix(0.7933 0.6088 -0.6088 0.7933 122.6152 -90.9008)" fill="#231815" width="1.9" height="13.6"/>
					
						<rect id="XMLID_8710_" x="196.4" y="130" transform="matrix(0.7933 0.6088 -0.6088 0.7933 124.0729 -91.8749)" fill="#231815" width="1.9" height="13.6"/>
					<path id="XMLID_8707_" fill="#231815" d="M161.4,113.9c-0.5,0-1-0.2-1.4-0.5l-0.2-0.2c-0.5-0.4-0.8-0.9-0.9-1.6
						c-0.1-0.6,0.1-1.2,0.5-1.7l2.3-2.9c0.8-1,2.3-1.2,3.3-0.4l0.2,0.2c1,0.8,1.2,2.3,0.4,3.3l-2.3,2.9
						C162.8,113.6,162.1,113.9,161.4,113.9z M163.4,107.9c-0.2,0-0.3,0.1-0.4,0.2l-2.3,2.9c-0.1,0.1-0.1,0.2-0.1,0.4
						c0,0.1,0.1,0.3,0.2,0.3l0.2,0.2c0.1,0.1,0.2,0.1,0.4,0.1c0.1,0,0.3-0.1,0.3-0.2l2.3-2.9c0.2-0.2,0.1-0.5-0.1-0.7l-0.2-0.2
						C163.6,108,163.5,107.9,163.4,107.9z"/>
				</g>
				<g id="XMLID_8664_">
					<g id="XMLID_8701_">
						<path id="XMLID_8705_" fill="#FFFFFF" d="M197.6,206.6c2.1-0.6,4.3,0.4,4.7,2.1l7.3,27.5c0.5,1.7-0.9,3.6-3.1,4.2l0,0
							c-2.1,0.6-4.3-0.4-4.7-2.1l-7.3-27.5C194.1,209.1,195.5,207.2,197.6,206.6L197.6,206.6z"/>
						<path id="XMLID_8702_" fill="#231815" d="M205.4,241.4c-2.1,0-3.9-1.1-4.4-2.9l-7.3-27.5c-0.3-1.1,0-2.3,0.7-3.3
							c0.7-1,1.8-1.7,3-2c1.2-0.3,2.5-0.2,3.6,0.2c1.2,0.5,2,1.4,2.2,2.5l7.3,27.5c0.3,1.1,0,2.3-0.7,3.3c-0.7,1-1.8,1.7-3,2
							C206.3,241.4,205.8,241.4,205.4,241.4z M198.9,207.4c-0.3,0-0.7,0-1,0.1l0,0c-0.8,0.2-1.5,0.7-2,1.3c-0.4,0.6-0.6,1.2-0.4,1.7
							l7.3,27.5c0.3,1.2,1.9,1.9,3.6,1.4c0.8-0.2,1.5-0.7,2-1.3c0.4-0.6,0.6-1.2,0.4-1.7l-7.3-27.5c-0.1-0.6-0.6-1-1.2-1.3
							C199.9,207.5,199.4,207.4,198.9,207.4z"/>
					</g>
					<g id="XMLID_8696_">
						<polygon id="XMLID_8700_" fill="#FFFFFF" points="247.6,202.9 251.7,218.5 208.1,230.2 203.9,214.6 						"/>
						<path id="XMLID_8697_" fill="#231815" d="M207.4,231.4l-4.6-17.4l45.4-12.2l4.6,17.4L207.4,231.4z M205.1,215.3l3.7,13.8
							l41.8-11.2l-3.7-13.8L205.1,215.3z"/>
					</g>
					
						<rect id="XMLID_8695_" x="226.9" y="194.1" transform="matrix(0.2543 0.9671 -0.9671 0.2543 379.4616 -58.7954)" fill="#231815" width="1.9" height="45.2"/>
					
						<rect id="XMLID_8694_" x="183.1" y="222.9" transform="matrix(0.2572 0.9664 -0.9664 0.2572 365.451 -27.7949)" fill="#231815" width="35.4" height="1.9"/>
					<g id="XMLID_8689_">
						
							<rect id="XMLID_8693_" x="168.7" y="204.2" transform="matrix(-0.2572 -0.9664 0.9664 -0.2572 -1.9259 459.1502)" fill="#FFFFFF" width="13.6" height="52.2"/>
						<path id="XMLID_8690_" fill="#231815" d="M151.4,244.7l-4-14.9l52.3-13.9l4,14.9L151.4,244.7z M149.6,231.1l3,11.4l48.7-13
							l-3-11.4L149.6,231.1z"/>
					</g>
					<g id="XMLID_8684_">
						<path id="XMLID_8688_" fill="#FFFFFF" d="M149,230.3c0.4-0.1,0.9,0.4,1.1,1.2l2.8,10.4c0.2,0.8,0,1.5-0.4,1.6l-4.3,1.1
							c-0.4,0.1-0.9-0.4-1.1-1.2l-2.8-10.4c-0.2-0.8,0-1.5,0.4-1.6L149,230.3z"/>
						<path id="XMLID_8685_" fill="#231815" d="M148.1,245.6c-0.4,0-0.8-0.2-1.2-0.6c-0.3-0.3-0.6-0.8-0.7-1.3l-2.8-10.4
							c-0.2-0.8-0.1-1.5,0.2-2c0.2-0.3,0.5-0.6,0.9-0.7l4.3-1.1c0.9-0.2,1.9,0.5,2.2,1.8l2.8,10.4c0.3,1.3-0.1,2.5-1,2.7l-4.3,1.1
							C148.3,245.5,148.2,245.6,148.1,245.6z M145.2,232.3c0,0.1,0,0.3,0,0.5l2.8,10.4c0.1,0.2,0.1,0.4,0.2,0.5l3.8-1
							c0-0.1,0-0.3,0-0.5l-2.8-10.4c-0.1-0.2-0.1-0.4-0.2-0.5L145.2,232.3z"/>
					</g>
					
						<rect id="XMLID_8683_" x="153" y="233.8" transform="matrix(0.2572 0.9664 -0.9664 0.2572 345.5304 19.967)" fill="#231815" width="13.6" height="1.9"/>
					
						<rect id="XMLID_8682_" x="155.5" y="233.1" transform="matrix(0.2572 0.9664 -0.9664 0.2572 346.7731 16.988)" fill="#231815" width="13.6" height="1.9"/>
					
						<rect id="XMLID_8681_" x="158.1" y="232.5" transform="matrix(0.2572 0.9664 -0.9664 0.2572 348.0139 14.0082)" fill="#231815" width="13.6" height="1.9"/>
					
						<rect id="XMLID_8680_" x="160.7" y="231.8" transform="matrix(0.2572 0.9664 -0.9664 0.2572 349.2493 11.0236)" fill="#231815" width="13.6" height="1.9"/>
					
						<rect id="XMLID_8679_" x="163.2" y="231.1" transform="matrix(0.2572 0.9664 -0.9664 0.2572 350.5011 8.0525)" fill="#231815" width="13.6" height="1.9"/>
					
						<rect id="XMLID_8678_" x="165.8" y="230.4" transform="matrix(0.2572 0.9664 -0.9664 0.2572 351.7364 5.068)" fill="#231815" width="13.6" height="1.9"/>
					
						<rect id="XMLID_8677_" x="168.3" y="229.7" transform="matrix(0.2572 0.9664 -0.9664 0.2572 352.9844 2.0937)" fill="#231815" width="13.6" height="1.9"/>
					
						<rect id="XMLID_8676_" x="170.9" y="229" transform="matrix(0.2572 0.9664 -0.9664 0.2572 354.2268 -0.8848)" fill="#231815" width="13.6" height="1.9"/>
					
						<rect id="XMLID_8675_" x="173.4" y="228.4" transform="matrix(0.2572 0.9664 -0.9664 0.2572 355.4717 -3.8621)" fill="#231815" width="13.6" height="1.9"/>
					
						<rect id="XMLID_8674_" x="176" y="227.7" transform="matrix(0.2572 0.9664 -0.9664 0.2572 356.7141 -6.8406)" fill="#231815" width="13.6" height="1.9"/>
					
						<rect id="XMLID_8673_" x="178.6" y="227" transform="matrix(0.2572 0.9664 -0.9664 0.2572 357.9472 -9.8261)" fill="#231815" width="13.6" height="1.9"/>
					
						<rect id="XMLID_8672_" x="181.1" y="226.3" transform="matrix(0.2572 0.9664 -0.9664 0.2572 359.1996 -12.7977)" fill="#231815" width="13.6" height="1.9"/>
					
						<rect id="XMLID_8671_" x="183.7" y="225.6" transform="matrix(0.2572 0.9664 -0.9664 0.2572 360.4344 -15.7818)" fill="#231815" width="13.6" height="1.9"/>
					
						<rect id="XMLID_8670_" x="186.2" y="225" transform="matrix(0.2572 0.9664 -0.9664 0.2572 361.6848 -18.7551)" fill="#231815" width="13.6" height="1.9"/>
					
						<rect id="XMLID_8669_" x="188.8" y="224.3" transform="matrix(0.2572 0.9664 -0.9664 0.2572 362.9252 -21.7349)" fill="#231815" width="13.6" height="1.9"/>
					
						<rect id="XMLID_8668_" x="191.4" y="223.6" transform="matrix(0.2572 0.9664 -0.9664 0.2572 364.2074 -24.8011)" fill="#231815" width="13.6" height="1.9"/>
					<path id="XMLID_8665_" fill="#231815" d="M156,240c-0.4,0-0.8-0.1-1.2-0.3c-0.5-0.3-0.9-0.8-1.1-1.4l-1-3.6
						c-0.2-0.6-0.1-1.2,0.2-1.8c0.3-0.5,0.8-0.9,1.4-1.1l0.3-0.1c1.3-0.3,2.6,0.4,2.9,1.7l1,3.6c0.3,1.3-0.4,2.5-1.7,2.9l-0.3,0.1
						C156.4,240,156.2,240,156,240z M155.2,233.5l-0.3,0.1c-0.1,0-0.2,0.1-0.3,0.2c-0.1,0.1-0.1,0.3-0.1,0.4l1,3.6
						c0,0.1,0.1,0.2,0.2,0.3c0.1,0.1,0.3,0.1,0.4,0.1l0.3-0.1c0.3-0.1,0.4-0.3,0.4-0.6l-1-3.6C155.8,233.6,155.5,233.4,155.2,233.5
						L155.2,233.5z"/>
				</g>
				<g id="XMLID_8659_">
					<rect id="XMLID_8663_" x="231.8" y="144.7" fill="#B0B0B1" width="152" height="136"/>
					<path id="XMLID_8660_" fill="#231815" d="M381.8,284.5c0,0.6-0.5,1.2-1.2,1.2H233c-0.6,0-1.2-0.5-1.2-1.2V145.8
						c0-0.6,0.5-1.2,1.2-1.2h147.7c0.6,0,1.2,0.5,1.2,1.2V284.5z M232.8,280.7h149v-136h-149V280.7z"/>
				</g>
				<g id="XMLID_8654_">
					<rect id="XMLID_8658_" x="240.8" y="153.7" fill="#231815" width="133" height="120"/>
					<path id="XMLID_8655_" fill="#231815" d="M375.8,277.5c0,0.6-0.5,1.2-1.2,1.2H242c-0.6,0-1.2-0.5-1.2-1.2V153.8
						c0-0.6,0.5-1.2,1.2-1.2h132.7c0.6,0,1.2,0.5,1.2,1.2V277.5z M242.8,271.7h129v-118h-129V271.7z"/>
				</g>
				<rect id="XMLID_8653_" x="273.8" y="258.7" fill="#565454" width="28" height="2"/>
				<g id="XMLID_8625_">
					<g id="XMLID_8648_">
						<path id="XMLID_8652_" fill="#FFFFFF" d="M362,288.1l-36.5,3.4l22.6,30.9c0,0,40.2-5.3,40.9-5.3
							C389.7,317,362,288.1,362,288.1z"/>
						<path id="XMLID_8649_" fill="#231815" d="M348,323.3c-0.3,0-0.6-0.1-0.7-0.4L324.7,292c-0.2-0.3-0.2-0.6-0.1-0.9
							c0.1-0.3,0.4-0.5,0.8-0.5l36.5-3.4c0.3,0,0.6,0.1,0.8,0.3c0.1,0.1,6.9,7.2,13.6,14.3c3.9,4.2,7.1,7.5,9.3,9.9
							c4.6,5,4.6,5,4.3,5.7c-0.1,0.3-0.5,0.6-0.9,0.6c-1,0.1-29.8,3.9-40.8,5.3C348.1,323.3,348.1,323.3,348,323.3z M327.2,292.3
							l21.3,29.1c8.7-1.2,32.2-4.3,38.8-5.1c-3.6-4.1-16.5-17.8-25.6-27.3L327.2,292.3z"/>
					</g>
					<g id="XMLID_8626_">
						<g id="XMLID_8645_">
							<line id="XMLID_8647_" fill="#FFFFFF" x1="333.8" y1="295.5" x2="363.2" y2="292.2"/>
							<path id="XMLID_8646_" fill="#231815" d="M333.8,296c-0.2,0-0.4-0.2-0.5-0.4c0-0.3,0.2-0.5,0.4-0.5l29.4-3.3
								c0.3,0,0.5,0.2,0.5,0.4c0,0.3-0.2,0.5-0.4,0.5L333.8,296C333.8,296,333.8,296,333.8,296z"/>
						</g>
						<g id="XMLID_8642_">
							<line id="XMLID_8644_" fill="#FFFFFF" x1="336.3" y1="298.9" x2="365.7" y2="295.5"/>
							<path id="XMLID_8643_" fill="#231815" d="M336.3,299.3c-0.2,0-0.4-0.2-0.5-0.4c0-0.3,0.2-0.5,0.4-0.5l29.4-3.3
								c0.3,0,0.5,0.2,0.5,0.4c0,0.3-0.2,0.5-0.4,0.5L336.3,299.3C336.3,299.3,336.3,299.3,336.3,299.3z"/>
						</g>
						<g id="XMLID_8639_">
							<line id="XMLID_8641_" fill="#FFFFFF" x1="338.8" y1="302.3" x2="368.2" y2="298.9"/>
							<path id="XMLID_8640_" fill="#231815" d="M338.8,302.7c-0.2,0-0.4-0.2-0.5-0.4c0-0.3,0.2-0.5,0.4-0.5l29.4-3.3
								c0.3,0,0.5,0.2,0.5,0.4c0,0.3-0.2,0.5-0.4,0.5L338.8,302.7C338.9,302.7,338.9,302.7,338.8,302.7z"/>
						</g>
						<g id="XMLID_8636_">
							<line id="XMLID_8638_" fill="#FFFFFF" x1="341.4" y1="305.6" x2="370.8" y2="302.3"/>
							<path id="XMLID_8637_" fill="#231815" d="M341.4,306.1c-0.2,0-0.4-0.2-0.5-0.4c0-0.3,0.2-0.5,0.4-0.5l29.4-3.3
								c0.3,0,0.5,0.2,0.5,0.4c0,0.3-0.2,0.5-0.4,0.5L341.4,306.1C341.4,306.1,341.4,306.1,341.4,306.1z"/>
						</g>
						<g id="XMLID_8633_">
							<line id="XMLID_8635_" fill="#FFFFFF" x1="343.9" y1="309" x2="373.3" y2="305.7"/>
							<path id="XMLID_8634_" fill="#231815" d="M343.9,309.5c-0.2,0-0.4-0.2-0.5-0.4c0-0.3,0.2-0.5,0.4-0.5l29.4-3.3
								c0.3,0,0.5,0.2,0.5,0.4c0,0.3-0.2,0.5-0.4,0.5L343.9,309.5C344,309.5,343.9,309.5,343.9,309.5z"/>
						</g>
						<g id="XMLID_8630_">
							<line id="XMLID_8632_" fill="#FFFFFF" x1="346.5" y1="312.4" x2="375.8" y2="309.1"/>
							<path id="XMLID_8631_" fill="#231815" d="M346.5,312.9c-0.2,0-0.4-0.2-0.5-0.4c0-0.3,0.2-0.5,0.4-0.5l29.4-3.3
								c0.3,0,0.5,0.2,0.5,0.4c0,0.3-0.2,0.5-0.4,0.5L346.5,312.9C346.5,312.9,346.5,312.9,346.5,312.9z"/>
						</g>
						<g id="XMLID_8627_">
							<line id="XMLID_8629_" fill="#FFFFFF" x1="349" y1="315.8" x2="378.4" y2="312.5"/>
							<path id="XMLID_8628_" fill="#231815" d="M349,316.3c-0.2,0-0.4-0.2-0.5-0.4c0-0.3,0.2-0.5,0.4-0.5l29.4-3.3
								c0.3,0,0.5,0.2,0.5,0.4c0,0.3-0.2,0.5-0.4,0.5L349,316.3C349,316.3,349,316.3,349,316.3z"/>
						</g>
					</g>
				</g>
				<g id="XMLID_8620_">
					<polygon id="XMLID_8624_" fill="#B0B0B1" points="381.4,144.7 232.4,144.7 272,104.7 421,104.7 					"/>
					<path id="XMLID_8621_" fill="#231815" d="M381.4,144.7H232.4c-0.5,0-0.9-0.3-1.1-0.7c-0.2-0.4-0.1-0.9,0.3-1.3l39.6-39.4
						c0.2-0.2,0.5-0.6,0.8-0.6H421c0.5,0,0.9,0.5,1.1,1c0.2,0.4,0.1,1.1-0.3,1.4l-39.6,39.2C381.9,144.5,381.7,144.7,381.4,144.7z
						 M235.2,144.7h145.7l37.3-40H272.5L235.2,144.7z"/>
				</g>
				<g id="XMLID_8615_">
					<polygon id="XMLID_8619_" fill="#231815" points="375.6,138.7 248.5,138.7 276.2,111.7 403.4,111.7 					"/>
					<path id="XMLID_8616_" fill="#231815" d="M375.6,140.7H248.5c-0.5,0-0.9-1.2-1.1-1.7c-0.2-0.4-0.1-1.4,0.3-1.7l27.8-27.4
						c0.2-0.2,0.5-0.3,0.8-0.3h127.1c0.5,0,0.9,0,1.1,0.4c0.2,0.4,0.1,0.8-0.3,1.1l-27.8,28.3C376.2,139.7,375.9,140.7,375.6,140.7z
						 M251.3,137.7h123.9l25.4-25H276.7L251.3,137.7z"/>
				</g>
				<g id="XMLID_8610_">
					<polygon id="XMLID_8614_" fill="#B0B0B1" points="422.8,242.5 383.8,282.1 383.8,144 422.8,104.4 					"/>
					<path id="XMLID_8611_" fill="#231815" d="M380.8,283.3c-0.2,0,0.8,0,0.7-0.1c-0.4-0.2,0.4-0.6,0.4-1.1V144c0-0.3-1-0.6-0.8-0.8
						l39.7-39.6c0.3-0.3,1.9-0.4,2.3-0.2c0.4,0.2,1.8,0.6,1.8,1.1v138.2c0,0.3-1.5,0.6-1.7,0.8L382.3,283
						C382.1,283.2,381.1,283.3,380.8,283.3z M383.8,144.5v134.9l37-37.3V107.1L383.8,144.5z"/>
				</g>
				<g id="XMLID_8605_">
					<polygon id="XMLID_8609_" fill="#231815" points="416.8,237.9 388.8,264.6 388.8,147 416.8,120.4 					"/>
					<path id="XMLID_8606_" fill="#231815" d="M388.5,265.7c-0.2,0,0.4,0,0.3-0.1c-0.4-0.2,0-0.6,0-1.1V147c0-0.3-0.6-0.6-0.4-0.8
						l26.7-26.6c0.3-0.3,1.7-0.4,2.1-0.2c0.4,0.2,1.6,0.6,1.6,1.1v117.5c0,0.3-1.2,0.6-1.4,0.8l-27.6,26.6
						C389.6,265.6,388.8,265.7,388.5,265.7z M390.8,147.5v114.3l24-24.4V123.2L390.8,147.5z"/>
				</g>
				<g id="XMLID_8563_">
					<g id="XMLID_8600_">
						<path id="XMLID_8604_" fill="#FFFFFF" d="M385.2,99.1c-0.7,1.9-2.5,3-4,2.5l-24.5-8.7c-1.5-0.5-2.2-2.6-1.6-4.5l0,0
							c0.7-1.9,2.5-3,4-2.5l24.5,8.7C385.2,95.2,385.9,97.2,385.2,99.1L385.2,99.1z"/>
						<path id="XMLID_8601_" fill="#231815" d="M382,102.7c-0.4,0-0.8-0.1-1.1-0.2l-24.5-8.7c-2-0.7-3-3.3-2.1-5.7
							c0.4-1.1,1.1-2.1,2.1-2.6c1-0.6,2.1-0.8,3.1-0.4l24.5,8.7c1,0.4,1.8,1.2,2.2,2.3c0.4,1,0.3,2.2-0.1,3.4l0,0
							c-0.4,1.1-1.1,2.1-2.1,2.6C383.3,102.5,382.7,102.7,382,102.7z M358.3,86.7c-0.3,0-0.7,0.1-1,0.3c-0.6,0.4-1,1-1.3,1.7
							c-0.5,1.4,0,2.9,1,3.3l24.5,8.7c0.5,0.2,1,0.1,1.5-0.2c0.6-0.4,1-1,1.3-1.7v0c0.3-0.7,0.3-1.5,0.1-2.1c-0.2-0.6-0.6-1-1-1.2
							l-24.5-8.7C358.6,86.7,358.5,86.7,358.3,86.7z"/>
					</g>
					<g id="XMLID_8595_">
						
							<rect id="XMLID_8599_" x="356.2" y="96.3" transform="matrix(0.9419 0.3358 -0.3358 0.9419 58.7674 -115.5634)" fill="#FFFFFF" width="14.8" height="31.7"/>
						<path id="XMLID_8596_" fill="#231815" d="M365.8,130.8l-15.7-5.6l11.3-31.6l15.7,5.6L365.8,130.8z M352.5,124.1l12.2,4.3
							l10-28.1l-12.2-4.3L352.5,124.1z"/>
					</g>
					
						<rect id="XMLID_8594_" x="362.7" y="96.3" transform="matrix(0.9419 0.3359 -0.3359 0.9419 58.8101 -115.6204)" fill="#231815" width="1.9" height="31.7"/>
					
						<rect id="XMLID_8593_" x="354.3" y="91.7" transform="matrix(0.9419 0.3358 -0.3358 0.9419 52.5973 -119.0421)" fill="#231815" width="32.4" height="1.9"/>
					<g id="XMLID_8588_">
						
							<rect id="XMLID_8592_" x="372.6" y="46.2" transform="matrix(0.9419 0.3358 -0.3358 0.9419 45.5269 -123.1153)" fill="#FFFFFF" width="12.5" height="47.9"/>
						<path id="XMLID_8589_" fill="#231815" d="M377.2,95.9l-13.5-4.8l16.7-46.9l13.5,4.8L377.2,95.9z M366.1,90l10,3.6l15.5-43.4
							l-10-3.6L366.1,90z"/>
					</g>
					<g id="XMLID_8583_">
						<path id="XMLID_8587_" fill="#FFFFFF" d="M392.6,50.1c-0.1,0.4-0.8,0.5-1.5,0.2l-9.3-3.3c-0.7-0.2-1.1-0.7-1-1.1l1.4-3.8
							c0.1-0.4,0.8-0.5,1.5-0.2l9.3,3.3c0.7,0.2,1.1,0.7,1,1.1L392.6,50.1z"/>
						<path id="XMLID_8584_" fill="#231815" d="M391.8,51.3c-0.3,0-0.7-0.1-1-0.2l-9.3-3.3c-0.5-0.2-0.9-0.4-1.2-0.8
							c-0.4-0.5-0.6-1-0.4-1.5l1.4-3.8c0.2-0.5,0.6-0.8,1.3-0.9c0.4-0.1,0.9,0,1.4,0.2l9.3,3.3c0.5,0.2,0.9,0.4,1.2,0.8
							c0.4,0.5,0.6,1,0.4,1.5l-1.4,3.8c-0.2,0.5-0.6,0.8-1.3,0.9C392.1,51.3,391.9,51.3,391.8,51.3z M381.8,45.9
							c0.1,0.1,0.2,0.1,0.3,0.2l9.3,3.3c0.2,0.1,0.3,0.1,0.4,0.1l1.2-3.3c-0.1-0.1-0.2-0.1-0.3-0.2l-9.3-3.3
							c-0.2-0.1-0.3-0.1-0.4-0.1L381.8,45.9z"/>
					</g>
					
						<rect id="XMLID_8582_" x="377.4" y="55" transform="matrix(0.9419 0.3358 -0.3358 0.9419 41.0478 -125.5614)" fill="#231815" width="12.5" height="1.9"/>
					
						<rect id="XMLID_8581_" x="376.6" y="57.3" transform="matrix(0.942 0.3358 -0.3358 0.942 41.7661 -125.1508)" fill="#231815" width="12.5" height="1.9"/>
					
						<rect id="XMLID_8580_" x="375.8" y="59.6" transform="matrix(0.9419 0.3358 -0.3358 0.9419 42.4887 -124.7486)" fill="#231815" width="12.5" height="1.9"/>
					
						<rect id="XMLID_8579_" x="374.9" y="61.9" transform="matrix(0.9419 0.3358 -0.3358 0.9419 43.2091 -124.3422)" fill="#231815" width="12.5" height="1.9"/>
					
						<rect id="XMLID_8578_" x="374.1" y="64.1" transform="matrix(0.942 0.3357 -0.3357 0.942 43.9241 -123.9259)" fill="#231815" width="12.5" height="1.9"/>
					
						<rect id="XMLID_8577_" x="373.3" y="66.4" transform="matrix(0.9419 0.3358 -0.3358 0.9419 44.65 -123.5293)" fill="#231815" width="12.5" height="1.9"/>
					
						<rect id="XMLID_8576_" x="372.5" y="68.7" transform="matrix(0.9419 0.3358 -0.3358 0.9419 45.3704 -123.123)" fill="#231815" width="12.5" height="1.9"/>
					
						<rect id="XMLID_8575_" x="371.7" y="71" transform="matrix(0.942 0.3358 -0.3358 0.942 46.0885 -122.7125)" fill="#231815" width="12.5" height="1.9"/>
					
						<rect id="XMLID_8574_" x="370.9" y="73.3" transform="matrix(0.9419 0.3358 -0.3358 0.9419 46.8113 -122.3101)" fill="#231815" width="12.5" height="1.9"/>
					
						<rect id="XMLID_8573_" x="370.1" y="75.6" transform="matrix(0.9419 0.3358 -0.3358 0.9419 47.5318 -121.9037)" fill="#231815" width="12.5" height="1.9"/>
					
						<rect id="XMLID_8572_" x="369.2" y="77.9" transform="matrix(0.942 0.3358 -0.3358 0.942 48.2497 -121.4933)" fill="#231815" width="12.5" height="1.9"/>
					
						<rect id="XMLID_8571_" x="368.4" y="80.1" transform="matrix(0.9419 0.3358 -0.3358 0.9419 48.9726 -121.0909)" fill="#231815" width="12.5" height="1.9"/>
					
						<rect id="XMLID_8570_" x="367.6" y="82.4" transform="matrix(0.9419 0.3358 -0.3358 0.9419 49.6931 -120.6845)" fill="#231815" width="12.5" height="1.9"/>
					
						<rect id="XMLID_8569_" x="366.8" y="84.7" transform="matrix(0.942 0.3358 -0.3358 0.942 50.411 -120.2742)" fill="#231815" width="12.5" height="1.9"/>
					
						<rect id="XMLID_8568_" x="366" y="87" transform="matrix(0.9419 0.3358 -0.3358 0.9419 51.1339 -119.8717)" fill="#231815" width="12.5" height="1.9"/>
					
						<rect id="XMLID_8567_" x="365.1" y="89.4" transform="matrix(0.9419 0.3358 -0.3358 0.9419 51.8759 -119.4531)" fill="#231815" width="12.5" height="1.9"/>
					<path id="XMLID_8564_" fill="#231815" d="M386.5,55.2c-0.2,0-0.5,0-0.7-0.1l-3.2-1.1c-0.6-0.2-1-0.6-1.3-1.1
						c-0.3-0.5-0.3-1.1-0.1-1.7l0.1-0.3c0.2-0.6,0.6-1,1.1-1.3c0.5-0.3,1.1-0.3,1.7-0.1l3.2,1.1c1.2,0.4,1.8,1.7,1.4,2.9l-0.1,0.3
						C388.3,54.6,387.4,55.2,386.5,55.2z M383.4,51.2c-0.1,0-0.1,0-0.2,0c-0.1,0-0.2,0.1-0.2,0.2l-0.1,0.3c-0.1,0.2,0,0.4,0.2,0.5
						l3.2,1.1c0.2,0.1,0.4,0,0.5-0.2v0l0.1-0.3c0.1-0.2,0-0.4-0.2-0.5l-3.2-1.1C383.5,51.2,383.4,51.2,383.4,51.2z"/>
				</g>
				<g id="XMLID_8539_">
					<g id="XMLID_8552_">
						<g id="XMLID_8558_">
							<polygon id="XMLID_8562_" fill="#FFFFFF" points="298.5,102.9 215.7,55.8 219.1,49.8 301.9,96.9 							"/>
							<path id="XMLID_8559_" fill="#231815" d="M298.5,104c-0.2,0-0.4,0-0.6-0.2l-82.8-47.1c-0.3-0.2-0.5-0.4-0.5-0.7
								c-0.1-0.3,0-0.6,0.1-0.9l3.4-6c0.3-0.6,1-0.7,1.6-0.4l82.8,47.1c0.3,0.2,0.5,0.4,0.5,0.7s0,0.6-0.1,0.9l-3.4,6
								C299.3,103.8,298.9,104,298.5,104z M217.2,55.4l80.8,46l2.3-3.9l-80.8-46L217.2,55.4z"/>
						</g>
						<g id="XMLID_8553_">
							
								<ellipse id="XMLID_8557_" transform="matrix(0.8685 0.4957 -0.4957 0.8685 54.7566 -100.7954)" fill="#FFFFFF" cx="217.4" cy="52.8" rx="2.7" ry="3.4"/>
							<path id="XMLID_8554_" fill="#231815" d="M216.8,57.2c-0.6,0-1.2-0.1-1.7-0.4c-1.9-1.1-2.4-3.7-1.1-5.9
								c0.6-1,1.5-1.8,2.5-2.2c1.1-0.4,2.2-0.4,3.2,0.2c0.9,0.5,1.6,1.5,1.7,2.7c0.2,1.1-0.1,2.2-0.6,3.3
								C219.8,56.3,218.3,57.2,216.8,57.2z M217.9,50.7c-0.2,0-0.5,0.1-0.6,0.1c-0.5,0.2-1,0.6-1.3,1.2c-0.6,1.1-0.5,2.3,0.2,2.8
								c0.7,0.4,1.9-0.1,2.5-1.2c0.3-0.6,0.5-1.2,0.4-1.8c0-0.3-0.2-0.8-0.6-1C218.3,50.7,218.1,50.7,217.9,50.7z"/>
						</g>
					</g>
					<g id="XMLID_8541_">
						<g id="XMLID_8547_">
							<path id="XMLID_8551_" fill="#747373" d="M304.4,98.4l-16.7-9.5l0,0l-16.6-9.5c0,0-3.4,16.1-16,20.9
								c3.2,3.5,20.3,20.8,38.5,22.1C291.8,109.8,304.4,98.4,304.4,98.4z"/>
							<path id="XMLID_8548_" fill="#231815" d="M293.6,123.6C293.6,123.6,293.5,123.6,293.6,123.6c-18.8-1.3-36.1-18.9-39.3-22.5
								c-0.3-0.3-0.4-0.7-0.3-1.1s0.4-0.7,0.7-0.8c11.9-4.5,15.3-19.9,15.3-20.1c0.1-0.4,0.3-0.7,0.7-0.8c0.3-0.2,0.7-0.1,1,0
								l16.3,9.3c0.1,0,0.2,0.1,0.3,0.1l16.7,9.5c0.3,0.2,0.5,0.5,0.6,0.9s-0.1,0.7-0.4,1c-0.1,0.1-12.1,11.2-10.4,23
								c0,0.3-0.1,0.7-0.3,1C294.2,123.5,293.9,123.6,293.6,123.6z M257.1,100.8c4.8,4.9,19.5,18.6,35.2,20.4
								c-0.3-5.1,1.4-10.6,5.1-16.1c1.9-2.9,3.9-5.2,5.1-6.4l-15-8.6c-0.1,0-0.2-0.1-0.3-0.1l-15.3-8.7c-0.5,1.6-1.4,4.4-3,7.4
								C265.9,94.3,261.8,98.5,257.1,100.8z"/>
						</g>
						<g id="XMLID_8542_">
							<path id="XMLID_8546_" fill="#FFFFFF" d="M255.1,100.3c-3.8,1.4-8.5,1.9-14.2,0.5c0,0,11.9,15.1,26.9,23l0-0.5
								c3.1,1.9,6.4,4.4,9.7,4.4h18.2c-1.2-2-1.8-3.7-2.1-5.7C275.3,120.7,258.3,103.8,255.1,100.3z"/>
							<path id="XMLID_8543_" fill="#231815" d="M295.7,129.7h-18.2c-0.2,0-0.3,0-0.4,0c-3.5-1.4-6.7-3-9.5-4.7
								c-0.1,0-0.2,0-0.2-0.1c-15.1-8-26.8-22.7-27.3-23.3c-0.3-0.4-0.3-0.9-0.1-1.3c0.3-0.4,0.8-0.6,1.2-0.5
								c5,1.2,9.5,1.1,13.5-0.4c0.4-0.2,0.9,0,1.3,0.3c3.2,3.4,19.9,20.5,37.7,21.7c0.5,0,1,0.5,1.1,1c0.3,2,1,4,2,5.8
								c0.2,0.4,0.2,0.7,0,1.1C296.5,129.5,296.1,129.7,295.7,129.7z M277.7,127.7h16.1c-0.6-2-1-2.7-1.2-4.1
								c-17.5-1.7-33.6-17.4-37.8-21.9c-3.3,1.1-7,1.4-10.9,0.8c4,4.5,13.3,14.2,24.2,20.1c0.1,0,0.3,0.2,0.4,0.2
								C271.2,124.6,274.3,125.7,277.7,127.7z"/>
						</g>
					</g>
					<path id="XMLID_8540_" fill="#231815" d="M296.2,100.4c-0.2,0-0.4,0-0.6-0.2l-22-12.5c-0.6-0.3-0.7-1-0.4-1.6
						c0.3-0.6,1-0.7,1.6-0.4l22,12.5c0.6,0.3,0.7,1,0.4,1.6C297,100.2,296.6,100.4,296.2,100.4z"/>
				</g>
				<g id="XMLID_8534_">
					<path id="XMLID_8538_" fill="#FFFFFF" d="M240.9,100.8c0,0,17.2,2.7,24.7-16.6l3.4,1.4C269,85.6,262.7,105.7,240.9,100.8z"/>
					<path id="XMLID_8535_" fill="#231815" d="M247.4,102.7c-2.1,0-4.3-0.2-6.8-0.8c-0.6-0.1-1-0.7-0.9-1.3c0.1-0.6,0.7-1,1.3-0.9
						l0,0c0.7,0.1,16.4,2.3,23.5-15.9c0.1-0.3,0.3-0.5,0.6-0.6c0.3-0.1,0.6-0.1,0.9,0l3.4,1.4c0.5,0.2,0.8,0.8,0.6,1.4
						C270,86.2,264.6,102.7,247.4,102.7z M266.3,85.7c-3.1,7.3-7.7,11.4-12.1,13.7c3.1-1,5.8-2.7,8.2-5.2c3-3,4.6-6.4,5.2-8
						L266.3,85.7z"/>
				</g>
				<g id="XMLID_8529_">
					<path id="XMLID_8533_" fill="#FFFFFF" d="M310.9,233.8c0,0,9.8-6,18.8,1.4c0,0-2.5,4.6-4.6,11.8c0,0-0.7,5.6,1.1,9.5
						c1.7,3.8,1.8,3.2,1.9,9.8c0,0,0.1,4-2.3,4.2c0,0-1.9,0-2.3-3.1c0,0,0-4.1-1.4-5.4c0,0-1.1,0.6-2.2,5.6c0,0-2.7,7-0.5,14.4
						c0,0,0.4,1.5-1.8,1.9c0,0-1.6,0.5-2.7-1.4c0,0-2.7-4-1.2-13.4c0,0-3.2,2.7-1.6,13.7c0,0,0.2,2.6-1.9,3.5c0,0-2.1-0.2-3.2-2.9
						c0,0-1.7-6.7,0.2-14.3c0,0-3.2,3.1-2.7,12.8c0,0,0.1,3-1.8,3.9c0,0-2.4,0.5-3-3.6c0,0-0.7-7.2,1.6-13.9c0,0-1.6,3.2-2.6,9.2
						c0,0,0,1.7-1.7,2.3c0,0-2.4-0.3-1.9-4.9c0,0,0.8-8.3,4.8-14.4c0,0,6.6-8.2,8.6-14L310.9,233.8z"/>
					<path id="XMLID_8530_" fill="#231815" d="M310,287.3c0,0-0.1,0-0.1,0c-0.1,0-2.7-0.3-3.9-3.5c0,0,0-0.1,0-0.1
						c0-0.1-0.5-2-0.7-4.8c0,0.9,0,1.9,0,3c0,0.2,0.1,3.6-2.3,4.8c-0.1,0-0.1,0.1-0.2,0.1c-0.1,0-1.1,0.2-2.2-0.5
						c-1-0.7-1.7-2-1.9-3.9c0-0.1-0.1-1-0.1-2.5c-0.3,0.3-0.7,0.6-1.2,0.8c-0.1,0.1-0.3,0.1-0.4,0.1c-0.1,0-1-0.1-1.8-1.1
						c-0.9-1.1-1.2-2.7-0.9-4.8c0-0.3,0.8-8.6,4.9-14.8c0,0,0,0,0.1-0.1c0.1-0.1,6.5-8,8.5-13.6l2.3-12.6c0-0.3,0.2-0.5,0.4-0.6
						c0.1-0.1,10.5-6.2,19.8,1.5c0.3,0.3,0.4,0.8,0.2,1.2c0,0-2.4,4.6-4.5,11.6c-0.1,0.7-0.5,5.6,1,8.9c0.2,0.4,0.3,0.7,0.4,1
						c1.4,3,1.4,3.2,1.6,9.2c0.1,1.8-0.5,4.9-3.1,5.2c0,0-0.1,0-0.1,0c-0.1,0-2.7-0.1-3.2-3.9c0,0,0-0.1,0-0.1
						c0-1.1-0.2-2.6-0.5-3.7c-0.3,0.7-0.8,2-1.3,4.1c0,0,0,0.1,0,0.1c0,0.1-2.5,6.8-0.4,13.8c0,0.1,0.2,1-0.3,1.8
						c-0.4,0.7-1.2,1.1-2.2,1.3c-0.8,0.2-2.6,0.1-3.7-1.8c-0.2-0.3-1.1-1.9-1.6-5.1c0,1.3,0.2,2.9,0.4,4.7c0,0,0,0,0,0.1
						c0,0.1,0.2,3.2-2.4,4.4C310.3,287.2,310.2,287.3,310,287.3z M307.8,283.1c0.6,1.6,1.7,2.1,2.2,2.2c1.1-0.7,1.1-2.2,1.1-2.4
						c-1.6-11.1,1.6-14.1,2-14.5c0.3-0.3,0.7-0.3,1.1-0.1c0.3,0.2,0.5,0.6,0.5,1c-1.4,9,1.1,12.7,1.1,12.8c0,0,0,0,0,0.1
						c0.7,1.1,1.5,1,1.7,1c0,0,0.1,0,0.1,0c0.5-0.1,0.9-0.2,1-0.4c0.1-0.1,0.1-0.3,0.1-0.3c-2.2-7.3,0.2-14.1,0.5-14.9
						c1.1-4.9,2.3-5.9,2.7-6.2c0.3-0.2,0.8-0.1,1,0.1c1.6,1.4,1.7,5.1,1.7,6c0.3,1.9,1.1,2.2,1.4,2.2c1.4-0.3,1.4-3.2,1.4-3.3
						c-0.1-5.8-0.2-5.8-1.4-8.5c-0.1-0.3-0.3-0.6-0.5-1c-1.8-4-1.2-9.7-1.1-10c0-0.1,0-0.1,0-0.2c1.7-5.7,3.5-9.8,4.3-11.3
						c-7.3-5.5-15-2-16.8-1.1l-2.2,12.3c0,0,0,0.1,0,0.1c-2,5.8-8.2,13.5-8.8,14.2c-3.8,5.8-4.6,13.8-4.6,13.9
						c-0.3,2.5,0.4,3.5,0.9,3.8c0.8-0.5,0.8-1.4,0.8-1.4c0,0,0-0.1,0-0.1c1-6.1,2.6-9.3,2.6-9.5c0.2-0.4,0.7-0.6,1.2-0.4
						c0.5,0.2,0.7,0.7,0.5,1.2c-2.2,6.4-1.6,13.4-1.6,13.5c0.2,1.6,0.7,2.3,1.1,2.6c0.3,0.2,0.5,0.2,0.7,0.2c1.2-0.8,1.2-3,1.2-3
						c-0.6-10,2.8-13.3,2.9-13.5c0.3-0.3,0.7-0.3,1.1-0.1c0.4,0.2,0.5,0.6,0.4,1C306.2,276.3,307.6,282.5,307.8,283.1z"/>
				</g>
				<path id="XMLID_8528_" fill="#231815" d="M313.9,266.1c-0.3,0-0.6-0.2-0.7-0.6c0-0.1-0.2-1.3,0.7-2.1c0.3-0.3,0.7-0.2,1,0
					c0.3,0.3,0.2,0.7,0,1c-0.3,0.3-0.2,0.8-0.2,0.8c0.1,0.4-0.2,0.7-0.6,0.8C313.9,266.1,313.9,266.1,313.9,266.1z"/>
				<path id="XMLID_8527_" fill="#231815" d="M308,265.6c-0.4,0-0.7-0.3-0.7-0.6c0-0.1-0.1-1.3,0.7-1.9c0.3-0.2,0.7-0.2,1,0.1
					c0.2,0.3,0.2,0.7-0.1,1c-0.1,0.1-0.2,0.5-0.2,0.7C308.7,265.2,308.4,265.5,308,265.6C308,265.6,308,265.6,308,265.6z"/>
				<path id="XMLID_8526_" fill="#231815" d="M302.5,264.7L302.5,264.7c-0.4,0-0.7-0.1-0.7-0.4c0-0.1,0-1.1,0.7-1.8
					c0.3-0.3,0.7-0.2,1,0.1c0.3,0.3,0.2,0.8,0,1c-0.2,0.2-0.3,0.5-0.3,0.7C303.2,264.6,302.9,264.7,302.5,264.7z"/>
				<g id="XMLID_8521_">
					<path id="XMLID_8525_" fill="#231815" d="M310.9,233.8l-6.2,0.5c0,0,4.3,0.9,5,2.9L310.9,233.8z"/>
					<path id="XMLID_8522_" fill="#231815" d="M309.7,235.7c-0.4,0-0.7,1-0.9,0.7c-0.4-1.2-3.1-1.5-4.4-1.7
						c-0.4-0.1-0.8-0.2-0.7-0.6c0-0.5,0.4-0.7,0.8-0.7l6.2-0.5c0.3,0,0.6,0.1,0.8,0.4c0.2,0.2,0.2,0.6,0.1,0.9l-1.2,2.2
						C310.4,236.7,310.1,235.7,309.7,235.7C309.7,235.7,309.7,235.7,309.7,235.7z M308.7,234.9c0.2,0.1,0.5,0.3,0.7,0.5l0.2-0.5
						L308.7,234.9z"/>
				</g>
				<g id="XMLID_8516_">
					<path id="XMLID_8520_" fill="#231815" d="M328,234.1c0,0,3.7,2.2,5.4,2.7l-5.3,1.7C328.1,238.4,331.2,236.6,328,234.1z"/>
					<path id="XMLID_8517_" fill="#231815" d="M328.1,239.3c-0.4,0-0.7-0.2-0.8-0.5c-0.2-0.4,0-0.9,0.4-1.2c0.2-0.1,0.9-0.6,0.9-1.2
						c0-0.6-0.6-1.2-1.1-1.6c-0.4-0.3-0.5-0.8-0.2-1.3c0.3-0.4,0.8-0.5,1.2-0.3c1,0.6,3.9,2.2,5.2,2.6c0.4,0.1,0.7,0.5,0.7,0.9
						c0,0.4-0.3,0.8-0.7,0.9l-5.3,1.7C328.3,239.3,328.2,239.3,328.1,239.3z M330.4,236.4c0,0,0,0.1,0,0.1c0,0.1,0,0.1,0,0.2
						l0.4-0.1C330.7,236.6,330.5,236.5,330.4,236.4z"/>
				</g>
				<g id="XMLID_8499_">
					<g id="XMLID_8511_">
						<path id="XMLID_8515_" fill="#FFFFFF" d="M329.5,271.8c0,0,18.8-5,27.3,27.1c35.8-0.9,52.4,7.7,50,6.6c0,0-16.8-28.5-29-30.8
							C364,272.1,336.2,269.5,329.5,271.8z"/>
						<path id="XMLID_8512_" fill="#231815" d="M407.1,305.7c-0.2,0-0.3,0-0.5,0l0,0c0,0,0,0,0,0c-0.1,0-0.1,0.3-0.2,0.3
							c-1.9-0.8-18.2-7.1-49.6-6.3c-0.4,0-0.8-0.2-0.9-0.6c-3.3-12.3-8.3-20.4-15.1-24.3c-6-3.4-11-2.1-11.1-2.1
							c-0.5,0.1-1-0.1-1.1-0.6c-0.1-0.5,0.1-1,0.6-1.1c7.1-2.4,35.9,0.4,48.8,2.9c12,2.3,27.7,28.1,29.5,31c0.3,0.2,0.4,0.3,0.4,0.4
							c0.1,0.4,0.1,0.3-0.2,0.6C407.5,306,407.3,305.7,407.1,305.7z M361.9,298c14.8,0,25.9,1.6,32.8,3.1c4.4,0.9,7.6,1.9,9.5,2.5
							c0.1,0,0.3,0.1,0.4,0.1c-4.3-6.7-17.3-26.2-26.9-28.1c-10.2-1.9-27.6-3.8-38.8-3.8c0.9,0.4,1.9,0.8,2.9,1.4
							c7.1,4.1,12.4,12.4,15.7,24.8C359,298,360.5,298,361.9,298z"/>
					</g>
					<g id="XMLID_8506_">
						<path id="XMLID_8510_" fill="#FFFFFF" d="M329.5,271.8c0,0-3.7,0.5-3.1,5.8c0,0,10.3-6.2,19.9,0.5
							C346.4,278.1,338.8,269.4,329.5,271.8z"/>
						<path id="XMLID_8507_" fill="#231815" d="M346.4,279c-0.2,0-0.4-0.1-0.5-0.2c-9-6.2-18.8-0.5-18.9-0.5c-0.3,0.2-0.6,0.2-0.9,0
							c-0.3-0.1-0.5-0.4-0.5-0.7c-0.6-5.7,3.1-6.7,3.8-6.8c4-1.1,8.4-0.2,12.6,2.3c3.1,1.9,5.1,4.1,5.2,4.2c0.3,0.4,0.3,0.9,0,1.2
							C346.9,278.9,346.7,279,346.4,279z M329.6,272.7c-0.3,0-2.2,0.4-2.3,3.4c2.3-1.1,7.4-2.8,13.1-1.6c-3.6-2.1-7.2-2.7-10.7-1.8
							C329.7,272.7,329.7,272.7,329.6,272.7z"/>
					</g>
					<path id="XMLID_8505_" fill="#231815" d="M381.8,280.5c0,0-0.1,0-0.1,0c-9.3-2.5-31.4-4.9-31.6-4.9c-0.3,0-0.4-0.3-0.4-0.5
						c0-0.3,0.3-0.4,0.5-0.4c0.2,0,22.4,2.4,31.8,4.9c0.2,0.1,0.4,0.3,0.3,0.6C382.2,280.3,382,280.5,381.8,280.5z"/>
					<path id="XMLID_8504_" fill="#231815" d="M384.6,283.8c0,0-0.1,0-0.1,0c-9.3-2.5-31.4-4.9-31.6-4.9c-0.3,0-0.4-0.3-0.4-0.5
						c0-0.3,0.2-0.4,0.5-0.4c0.2,0,22.4,2.4,31.8,4.9c0.2,0.1,0.4,0.3,0.3,0.6C385,283.7,384.8,283.8,384.6,283.8z"/>
					<path id="XMLID_8503_" fill="#231815" d="M387.4,287.1c0,0-0.1,0-0.1,0c-9.3-2.5-31.4-4.9-31.6-4.9c-0.3,0-0.4-0.3-0.4-0.5
						c0-0.3,0.3-0.4,0.5-0.4c0.2,0,22.4,2.4,31.8,4.9c0.2,0.1,0.4,0.3,0.3,0.6C387.8,287,387.6,287.1,387.4,287.1z"/>
					<path id="XMLID_8502_" fill="#231815" d="M390.2,290.4c0,0-0.1,0-0.1,0c-9.3-2.5-31.4-4.9-31.6-4.9c-0.3,0-0.4-0.3-0.4-0.5
						c0-0.3,0.2-0.4,0.5-0.4c0.2,0,22.4,2.4,31.8,4.9c0.2,0.1,0.4,0.3,0.3,0.6C390.6,290.3,390.4,290.4,390.2,290.4z"/>
					<path id="XMLID_8501_" fill="#231815" d="M393,293.8c0,0-0.1,0-0.1,0c-9.3-2.5-31.4-4.9-31.6-4.9c-0.3,0-0.4-0.3-0.4-0.5
						c0-0.3,0.3-0.4,0.5-0.4c0.2,0,22.4,2.4,31.8,4.9c0.2,0.1,0.4,0.3,0.3,0.6C393.4,293.6,393.2,293.8,393,293.8z"/>
					<path id="XMLID_8500_" fill="#231815" d="M395.8,297.1c0,0-0.1,0-0.1,0c-9.3-2.5-31.4-4.9-31.6-4.9c-0.3,0-0.4-0.3-0.4-0.5
						c0-0.3,0.2-0.4,0.5-0.4c0.2,0,22.4,2.4,31.8,4.9c0.2,0.1,0.4,0.3,0.3,0.6C396.2,297,396,297.1,395.8,297.1z"/>
				</g>
				<g id="XMLID_8496_">
					<path fill="#6D1200" d="M146.5,293.2c-0.5-2.4,2.5-2.5,3.6-2.8c3.2-0.5,4.3-3.4,7.2-4.1c3.2-0.6,6.6,2.3,9.9,2.3
						c1.6-0.1,13.6-1.1,11.3,2.6c-1,1.5-7.5,1.4-9.4,2.3c-3.3,1.4-5,3.2-8.8,2.2c-3.8-1.2-4.9-0.7-8.8-0.5
						C151.5,295.3,147,295.7,146.5,293.2z"/>
				</g>
				<g id="XMLID_8493_">
					<path fill="#6D1200" d="M186.5,295.4c-0.4-1,0.8-1.6,1.6-1.7c1.3-0.1,2.1,0.4,3.4-0.2c1.2-0.4,2.6-0.6,3.9-0.2
						c0.8,0.3,2.9,1.2,1.7,2.2c-0.9,0.7-2.4,0.4-3.4,0.2c-1.3-0.2-2.1,0.1-3.4,0.3C188.9,296.2,187.3,296.5,186.5,295.4z"/>
				</g>
				<path id="XMLID_8492_" fill="#231815" d="M332.8,245.7c0,0-1.9,5.9-0.4,6.2c0,0,2.6,1.4,0.4-6.4"/>
				<g id="XMLID_8441_">
					<g id="XMLID_8487_">
						<polygon id="XMLID_8491_" fill="#FFFFFF" points="275.8,234.7 261.1,234.7 283,202.7 297.7,202.7 						"/>
						<path id="XMLID_8488_" fill="#231815" d="M275.8,235.7h-14.8c-0.3,0-0.7,0.9-0.8,0.6c-0.2-0.3-0.1-0.1,0-0.4l21.9-34.4
							c0.2-0.3,0.5-0.8,0.8-0.8h14.8c0.3,0,0.7,0.9,0.8,1.2c0.2,0.3,0.1,1,0,1.3l-21.9,33.1C276.4,236.4,276.2,235.7,275.8,235.7z
							 M262.8,234.7h12.6l20.7-32h-12.6L262.8,234.7z"/>
					</g>
					<path id="XMLID_8486_" fill="#231815" d="M269,237.9c-0.2,0-0.3,0-0.5-0.1c-0.4-0.3-0.6-0.8-0.3-1.3l21.4-34
						c0.3-0.4,0.8-0.6,1.3-0.3c0.4,0.3,0.6,0.8,0.3,1.3l-21.4,34C269.6,237.7,269.3,237.9,269,237.9z"/>
					<g id="XMLID_8481_">
						<path id="XMLID_8485_" fill="#FFFFFF" d="M286.8,241.1c0,2.5-1.9,4.4-4.1,4.4l-31.8-0.6c-2.2,0-4-2.1-4-4.5l0-0.7
							c0-2.5,1.9-4.4,4.1-4.4l31.8,0.6c2.2,0,4,2.1,4,4.5L286.8,241.1z"/>
						<path id="XMLID_8482_" fill="#231815" d="M282.8,245.7C282.7,245.7,282.7,245.7,282.8,245.7l-31.9-0.3c-1.3,0-2.6-0.4-3.5-1.5
							c-0.9-1-1.4-2.3-1.4-3.7l0-0.7c0-1.4,0.6-2.7,1.5-3.7c1-1,2.2-1.6,3.6-1.5l31.8,0.6c1.3,0,2.6,0.6,3.5,1.7
							c0.9,1,1.4,2.4,1.4,3.8l0,0.3C287.7,243.7,285.5,245.7,282.8,245.7z M251,234.7c-0.8,0-1.6,1.1-2.1,1.7c-0.6,0.7-1,1.9-1,2.9
							l0,0.9c0,1,0.3,1.9,0.9,2.6c0.6,0.7,1.3,1.1,2.2,1.1l31.8,0.6c1.7,0,3.1-1.5,3.1-3.4v0l0.1-0.7c0-1-0.3-1.9-0.9-2.5
							c-0.6-0.7-1.3-1.8-2.2-1.8L251,234.7C251,234.7,251,234.7,251,234.7z"/>
					</g>
					<path id="XMLID_8480_" fill="#231815" d="M286.7,237.7C286.7,237.7,286.7,237.7,286.7,237.7l-39.7,0.3c-0.5,0-0.9-0.7-0.9-1.2
						c0-0.5,0.4-1.1,0.9-1.1c0,0,0,0,0,0l39.6,1.8c0.5,0,0.9-0.4,0.9,0.1C287.7,238.1,287.2,237.7,286.7,237.7z"/>
					<g id="XMLID_8475_">
						<polygon id="XMLID_8479_" fill="#FFFFFF" points="250.7,275.7 235.9,275.7 257.8,241.7 272.6,241.7 						"/>
						<path id="XMLID_8476_" fill="#231815" d="M250.7,277.7h-14.8c-0.3,0-0.7-0.6-0.8-0.9s-0.1-0.9,0-1.1l21.9-34.8
							c0.2-0.3,0.5-1.2,0.8-1.2h14.8c0.3,0,0.7,0.9,0.8,1.2s0.1,1,0,1.3l-21.9,34.6C251.3,276.9,251,277.7,250.7,277.7z
							 M237.6,275.7h12.6l20.7-34h-12.6L237.6,275.7z"/>
					</g>
					<g id="XMLID_8470_">
						<path id="XMLID_8474_" fill="#FFFFFF" d="M248.6,279.2c-0.7,1.3-1.2,1.3-1.9,1.3l-12.4,0c-0.7,0-1.4-0.3-0.9-1.2l4.7-6.8
							c0.6-0.8,0.6-1.2,1.5-1.1l12.6,0c1,0,1.2,0.4,0.8,1L248.6,279.2z"/>
						<path id="XMLID_8471_" fill="#231815" d="M246.7,281.5l-12.4,0c-0.9,0-1.5-0.3-1.8-0.9c-0.2-0.4-0.3-1,0.2-1.8l4.7-6.9
							c0.1-0.1,0.1-0.2,0.2-0.3c0.4-0.7,0.9-1.3,2.1-1.3l12.5,0c0.3,0,1.3,0,1.8,0.8c0.2,0.3,0.3,0.9-0.2,1.6l-4.4,6.9
							C248.5,281.3,247.7,281.5,246.7,281.5z M234.4,279.6l12.3,0c0.6,0,0.6,0,1.1-0.8c0,0,0,0,0-0.1l4.1-6.7l-12.3-0.3
							c0,0,0,0-0.1,0c-0.1,0-0.2,0.3-0.2,0.3c-0.1,0.1-0.2,0.4-0.3,0.6c-0.1,0.1-0.1,0.3-0.2,0.4L234.4,279.6z"/>
					</g>
					<g id="XMLID_8465_">
						<polygon id="XMLID_8469_" fill="#FFFFFF" points="248.4,282.5 248.2,284.2 273,245.3 272.6,242 247.7,280.4 						"/>
						<path id="XMLID_8466_" fill="#231815" d="M248.2,285.2c-0.1,0-0.2,0-0.3-0.1c-0.4-0.1-0.7-0.5-0.6-1l0.2-1.6l-0.6-1.9
							c-0.1-0.3,0-0.6,0.1-0.8l24.9-38.4c0.2-0.3,0.6-0.5,1-0.4c0.4,0.1,0.7,0.4,0.7,0.8l0.4,3.3c0,0.2,0,0.4-0.1,0.6l-24.8,39
							C248.8,285,248.5,285.2,248.2,285.2z M248.7,280.5l0.2,0.8L272,245l0-0.4L248.7,280.5z"/>
					</g>
					<g id="XMLID_8460_">
						<path id="XMLID_8464_" fill="#FFFFFF" d="M247.8,285.4c0,0.7-0.6,1.3-1.3,1.3h-12.4c-0.7,0-1.3-0.6-1.3-1.3V282
							c0-0.7,0.6-1.3,1.3-1.3h12.4c0.7,0,1.3,0.6,1.3,1.3V285.4z"/>
						<path id="XMLID_8461_" fill="#231815" d="M248.8,283.4c0,1.2-1,2.2-2.2,2.2h-12.5c-1.2,0-2.2-1-2.2-2.2v-2.5
							c0-1.2,1-2.2,2.2-2.2h12.5c1.2,0,2.2,1,2.2,2.2V283.4z M245.8,281.1c0-0.2-0.2-0.4-0.4-0.4h-12.2c-0.2,0-0.4,0.2-0.4,0.4v1.2
							c0,0.2,0.2,0.4,0.4,0.4h12.2c0.2,0,0.4-0.2,0.4-0.4V281.1z"/>
					</g>
					<path id="XMLID_8459_" fill="#231815" d="M255.1,267.7h-14.3c-0.5,0-0.9-0.5-0.9-1c0-0.5,0.4-1,0.9-1h14.3c0.5,0,0.9,0.5,0.9,1
						C256,267.2,255.6,267.7,255.1,267.7z"/>
					<path id="XMLID_8458_" fill="#231815" d="M257.6,263.7h-14.3c-0.5,0-0.9,0-0.9-0.5c0-0.5,0.4-0.5,0.9-0.5h14.3
						c0.5,0,0.9,0,0.9,0.5C258.5,263.7,258.1,263.7,257.6,263.7z"/>
					<path id="XMLID_8457_" fill="#231815" d="M259.1,260.7h-13.4c-0.5,0-0.9,0-0.9,0s0.4,0,0.9,0H259.1c0.5,0,0.9,0,0.9,0
						S259.6,260.7,259.1,260.7z"/>
					<path id="XMLID_8456_" fill="#231815" d="M261.7,258.7h-14.3c-0.5,0-0.9,0-0.9,0c0-2,0.4,0,0.9,0H261.7c0.5,0,0.9-2,0.9,0
						C262.6,258.7,262.2,258.7,261.7,258.7z"/>
					<path id="XMLID_8455_" fill="#231815" d="M263.4,256.7h-13.6c-0.5,0-0.9-0.5-0.9-1s0.4-1,0.9-1h13.6c0.5,0,0.9,0.5,0.9,1
						S263.9,256.7,263.4,256.7z"/>
					<path id="XMLID_8454_" fill="#231815" d="M265.3,252.7h-13.6c-0.5,0-0.9-0.5-0.9-1c0-0.5,0.4-1,0.9-1h13.6c0.5,0,0.9,0.5,0.9,1
						C266.3,252.2,265.8,252.7,265.3,252.7z"/>
					<path id="XMLID_8453_" fill="#231815" d="M267.9,249.7h-14.3c-0.5,0-0.9-0.5-0.9-1c0-0.5,0.4-1,0.9-1h14.3c0.5,0,0.9,0.5,0.9,1
						C268.8,249.2,268.4,249.7,267.9,249.7z"/>
					<path id="XMLID_8452_" fill="#231815" d="M269.4,247.7h-13.9c-0.5,0-0.9-1.5-0.9-2c0-0.5,0.4-2,0.9-2h13.9c0.5,0,0.9,1.5,0.9,2
						C270.4,246.2,269.9,247.7,269.4,247.7z"/>
					<g id="XMLID_8447_">
						<polygon id="XMLID_8451_" fill="#FFFFFF" points="279.4,235.7 300.4,202.7 297.7,202.7 276.6,235.6 						"/>
						<path id="XMLID_8448_" fill="#231815" d="M279.4,234.7C279.4,234.7,279.4,234.7,279.4,234.7l-2.8,1c-0.3,0-0.6,0.3-0.8,0
							c-0.2-0.3-0.1-0.4,0-0.7l21.2-33.4c0.2-0.3,0.5-1,0.8-1h2.7c0.3,0,0.6,0.9,0.8,1.2c0.2,0.3,0.1,1,0,1.3l-21,32
							C280,235.4,279.7,234.7,279.4,234.7z M278.3,234.3l0.6-0.3l19.8-31.3h-0.5L278.3,234.3z"/>
					</g>
					<g id="XMLID_8442_">
						<polygon id="XMLID_8446_" fill="#FFFFFF" points="245.1,277.7 239.7,277.7 241.4,273.7 246.8,273.7 						"/>
						<path id="XMLID_8443_" fill="#231815" d="M245.1,277.7h-5.4c-0.3,0-0.5-0.5-0.6-0.7c-0.1-0.2-0.1-0.7,0.1-0.9l1.7-2.1
							c0.1-0.2,0.3-0.3,0.5-0.3h5.4c0.3,0,0.5,0.1,0.6,0.3c0.1,0.2,0.1,0.5-0.1,0.7l-1.7,2.4C245.6,277.3,245.4,277.7,245.1,277.7z
							 M241.1,275.7h3.7h0.6h-3.7H241.1z"/>
					</g>
				</g>
				<g id="XMLID_8390_">
					<g id="XMLID_8436_">
						<polygon id="XMLID_8440_" fill="#FFFFFF" points="352.8,211.1 367.3,208.3 343.3,181.7 327.2,181.7 						"/>
						<path id="XMLID_8437_" fill="#231815" d="M352.8,212.1c-0.3,0-0.5-0.1-0.7-0.3l-25.6-29.3c-0.2-0.3-0.3-0.8-0.1-1.1
							c0.2-0.3,0.5-0.7,0.8-0.7h16.1c0.3,0,0.5,0.2,0.7,0.4l24,26.7c0.2,0.2,0.3,0.6,0.2,0.9c-0.1,0.3-0.4,0.6-0.7,0.6l-14.5,2.7
							C352.9,212.1,352.8,212.1,352.8,212.1z M329.2,181.7l23.9,27.9l12.4-2.6l-22.6-25.3H329.2z"/>
					</g>
					<path id="XMLID_8435_" fill="#231815" d="M359.5,210.8c-0.3,0-0.5-0.1-0.7-0.3l-24.3-28.1c-0.3-0.4-0.3-1,0.1-1.3
						s1-0.3,1.3,0.1l24.3,28.1c0.3,0.4,0.3,1-0.1,1.3C359.9,210.8,359.7,210.8,359.5,210.8z"/>
					<g id="XMLID_8430_">
						<path id="XMLID_8434_" fill="#FFFFFF" d="M342.7,217.3c0.5,2.4,2.7,4,4.9,3.5l31.2-6.5c2.2-0.5,3.6-2.8,3.1-5.2l-0.1-0.7
							c-0.5-2.4-2.7-4-4.9-3.5l-31.2,6.5c-2.2,0.5-3.6,2.8-3.1,5.2L342.7,217.3z"/>
						<path id="XMLID_8431_" fill="#231815" d="M346.8,221.8c-2.3,0-4.5-1.8-5-4.3l0,0l-0.1-0.7c-0.6-2.9,1.1-5.7,3.8-6.3l31.2-6.5
							c1.3-0.3,2.7,0,3.8,0.8c1.1,0.8,1.9,2,2.2,3.4l0.1,0.7c0.3,1.4,0.1,2.8-0.6,4c-0.7,1.2-1.8,2-3.1,2.3l-31.2,6.5
							C347.5,221.8,347.2,221.8,346.8,221.8z M343.6,217.1c0.4,1.9,2.1,3.2,3.8,2.8l31.2-6.5c0.8-0.2,1.5-0.7,1.9-1.4
							c0.5-0.8,0.6-1.7,0.4-2.7l-0.1-0.7c-0.2-0.9-0.7-1.7-1.4-2.3c-0.7-0.5-1.5-0.7-2.3-0.5l-31.2,6.5c-1.7,0.4-2.7,2.2-2.3,4.1
							L343.6,217.1z"/>
					</g>
					<path id="XMLID_8429_" fill="#231815" d="M342.5,216.4c-0.4,0-0.8-0.3-0.9-0.7c-0.1-0.5,0.2-1,0.7-1.1l38.8-8.2
						c0.5-0.1,1,0.2,1.1,0.7s-0.2,1-0.7,1.1l-38.8,8.2C342.6,216.4,342.6,216.4,342.5,216.4z"/>
					<g id="XMLID_8424_">
						<polygon id="XMLID_8428_" fill="#FFFFFF" points="384.7,244.8 399.2,242.1 371.4,212.8 356.9,215.5 						"/>
						<path id="XMLID_8425_" fill="#231815" d="M384.7,245.8c-0.3,0-0.5-0.1-0.7-0.3l-27.8-29.3c-0.2-0.2-0.3-0.6-0.2-0.9
							c0.1-0.3,0.4-0.6,0.7-0.6l14.5-2.7c0.3-0.1,0.6,0,0.8,0.3l27.8,29.3c0.2,0.2,0.3,0.6,0.2,0.9c-0.1,0.3-0.4,0.6-0.7,0.6
							l-14.5,2.7C384.8,245.8,384.7,245.8,384.7,245.8z M358.7,216.1l26.3,27.7l12.4-2.3l-26.3-27.7L358.7,216.1z"/>
					</g>
					<g id="XMLID_8419_">
						<path id="XMLID_8423_" fill="#FFFFFF" d="M387.3,247.7c0.9,1.1,1.4,1.1,2.1,0.9l12.2-2.3c0.7-0.1,1.4-0.5,0.6-1.3l-5.8-5.9
							c-0.7-0.7-0.9-1-1.7-0.8l-12.3,2.4c-1,0.2-1.1,0.6-0.6,1.1L387.3,247.7z"/>
						<path id="XMLID_8420_" fill="#231815" d="M388.8,249.6c-0.7,0-1.3-0.3-2.2-1.3l-5.6-5.9c-0.6-0.6-0.6-1.2-0.5-1.6
							c0.3-0.8,1.3-1,1.6-1.1l12.3-2.4c1.2-0.3,1.8,0.3,2.3,0.9c0.1,0.1,0.1,0.2,0.2,0.2l5.8,5.9c0.7,0.7,0.7,1.3,0.5,1.7
							c-0.2,0.6-0.8,1-1.6,1.2l-12.2,2.3C389.3,249.6,389.1,249.6,388.8,249.6z M382.8,241.5l5.2,5.6c0,0,0,0,0,0
							c0.6,0.7,0.7,0.7,1.2,0.6l12.1-2.3l-5.6-5.7c-0.1-0.1-0.2-0.2-0.3-0.3c-0.1-0.1-0.3-0.3-0.4-0.3c0,0-0.1,0-0.2,0c0,0,0,0,0,0
							L382.8,241.5z"/>
					</g>
					<g id="XMLID_8414_">
						<polygon id="XMLID_8418_" fill="#FFFFFF" points="388.2,250.8 388.7,252.5 357.1,218.8 356.9,215.5 388.5,248.6 						"/>
						<path id="XMLID_8415_" fill="#231815" d="M388.7,253.5c-0.2,0-0.5-0.1-0.7-0.3l-31.6-33.7c-0.1-0.2-0.2-0.4-0.2-0.6l-0.3-3.3
							c0-0.4,0.2-0.8,0.5-0.9c0.4-0.2,0.8-0.1,1,0.2l31.6,33.1c0.2,0.2,0.3,0.5,0.2,0.8l-0.2,2l0.5,1.5c0.1,0.4,0,0.9-0.4,1.1
							C389,253.4,388.9,253.5,388.7,253.5z M358,218.4l29.4,31.3l0.1-0.8L358,218L358,218.4z"/>
					</g>
					<g id="XMLID_8409_">
						<path id="XMLID_8413_" fill="#FFFFFF" d="M388.5,251.3c0.1,0.7,0.8,1.2,1.5,1l11.8-2.2c0.7-0.1,1.2-0.8,1-1.5l-0.3-1.5
							c-0.1-0.7-0.8-1.2-1.5-1l-11.8,2.2c-0.7,0.1-1.2,0.8-1,1.5L388.5,251.3z"/>
						<path id="XMLID_8410_" fill="#231815" d="M389.8,253.2c-1.1,0-2-0.8-2.2-1.8l0,0l-0.3-1.5c-0.1-0.6,0-1.2,0.4-1.7
							c0.3-0.5,0.8-0.8,1.4-0.9l11.8-2.2c1.2-0.2,2.4,0.6,2.6,1.8l0.3,1.5c0.2,1.2-0.6,2.4-1.8,2.6l-11.8,2.2
							C390,253.2,389.9,253.2,389.8,253.2z M389.4,251.1c0,0.2,0.2,0.3,0.5,0.3l11.8-2.2c0.1,0,0.2-0.1,0.2-0.2c0,0,0.1-0.2,0.1-0.3
							l-0.3-1.5c0-0.1-0.1-0.2-0.2-0.2c0,0-0.2-0.1-0.3-0.1l-11.8,2.2c-0.1,0-0.2,0.1-0.2,0.2c0,0-0.1,0.2-0.1,0.3L389.4,251.1z"/>
					</g>
					<path id="XMLID_8408_" fill="#231815" d="M379,239.1c-0.4,0-0.8-0.3-0.9-0.8c-0.1-0.5,0.2-1,0.7-1.1l14-2.6
						c0.5-0.1,1,0.2,1.1,0.7c0.1,0.5-0.2,1-0.7,1.1l-14,2.6C379.1,239.1,379,239.1,379,239.1z"/>
					<path id="XMLID_8407_" fill="#231815" d="M375.9,236.4c-0.4,0-0.8-0.3-0.9-0.8c-0.1-0.5,0.2-1,0.7-1.1l14.1-2.6
						c0.5-0.1,1,0.2,1.1,0.7c0.1,0.5-0.2,1-0.7,1.1l-14.1,2.6C376,236.4,376,236.4,375.9,236.4z"/>
					<path id="XMLID_8406_" fill="#231815" d="M373.9,233.6c-0.4,0-0.8-0.3-0.9-0.8c-0.1-0.5,0.2-1,0.7-1.1l13.2-2.5
						c0.5-0.1,1,0.2,1.1,0.7c0.1,0.5-0.2,1-0.7,1.1l-13.2,2.5C374,233.6,373.9,233.6,373.9,233.6z"/>
					<path id="XMLID_8405_" fill="#231815" d="M370.7,230.9c-0.4,0-0.8-0.3-0.9-0.8c-0.1-0.5,0.2-1,0.7-1.1l14.1-2.6
						c0.5-0.1,1,0.2,1.1,0.7c0.1,0.5-0.2,1-0.7,1.1l-14.1,2.6C370.8,230.9,370.8,230.9,370.7,230.9z"/>
					<path id="XMLID_8404_" fill="#231815" d="M368.5,228.1c-0.4,0-0.8-0.3-0.9-0.8c-0.1-0.5,0.2-1,0.7-1.1l13.4-2.5
						c0.5-0.1,1,0.2,1.1,0.7c0.1,0.5-0.2,1-0.7,1.1l-13.4,2.5C368.6,228.1,368.5,228.1,368.5,228.1z"/>
					<path id="XMLID_8403_" fill="#231815" d="M365.9,225.3c-0.4,0-0.8-0.3-0.9-0.8c-0.1-0.5,0.2-1,0.7-1.1l13.4-2.5
						c0.5-0.1,1,0.2,1.1,0.7c0.1,0.5-0.2,1-0.7,1.1l-13.4,2.5C366.1,225.3,366,225.3,365.9,225.3z"/>
					<path id="XMLID_8402_" fill="#231815" d="M362.9,222.6c-0.4,0-0.8-0.3-0.9-0.8c-0.1-0.5,0.2-1,0.7-1.1l14.1-2.7
						c0.5-0.1,1,0.2,1.1,0.7c0.1,0.5-0.2,1-0.7,1.1l-14.1,2.7C363,222.6,362.9,222.6,362.9,222.6z"/>
					<path id="XMLID_8401_" fill="#231815" d="M360.7,219.8c-0.4,0-0.8-0.3-0.9-0.8c-0.1-0.5,0.2-1,0.7-1.1l13.7-2.6
						c0.5-0.1,1,0.2,1.1,0.7c0.1,0.5-0.2,1-0.7,1.1l-13.7,2.6C360.8,219.8,360.8,219.8,360.7,219.8z"/>
					<g id="XMLID_8396_">
						<polygon id="XMLID_8400_" fill="#FFFFFF" points="349.1,210.7 324.2,181.7 327.2,181.7 351.8,210 						"/>
						<path id="XMLID_8397_" fill="#231815" d="M349.1,211.7c-0.3,0-0.5-0.1-0.7-0.3l-24.9-28.9c-0.2-0.3-0.3-0.8-0.1-1.1
							c0.2-0.3,0.5-0.7,0.8-0.7h3c0.3,0,0.5,0.2,0.7,0.4l24.6,28.4c0.2,0.2,0.3,0.6,0.2,0.9c-0.1,0.3-0.4,0.6-0.7,0.6l-2.8,0.6
							C349.2,211.6,349.1,211.7,349.1,211.7z M326.2,181.7l23.2,27.5l0.7-0.4l-23.3-27.1H326.2z"/>
					</g>
					<g id="XMLID_8391_">
						<polygon id="XMLID_8395_" fill="#FFFFFF" points="390.2,244.3 395.6,243.2 393.5,241.5 388.2,242.5 						"/>
						<path id="XMLID_8392_" fill="#231815" d="M390.2,244.9c-0.2,0-0.3-0.1-0.5-0.2l-2-1.8c-0.2-0.2-0.3-0.4-0.2-0.7
							c0.1-0.3,0.3-0.5,0.5-0.5l5.3-1c0.2,0,0.4,0,0.6,0.2l2,1.8c0.2,0.2,0.3,0.4,0.2,0.7c-0.1,0.3-0.3,0.5-0.5,0.5l-5.3,1
							C390.3,244.9,390.3,244.9,390.2,244.9z M389.7,242.9l0.7,0.6l3.6-0.7l-0.7-0.6L389.7,242.9z"/>
					</g>
				</g>
				<path id="XMLID_8389_" fill="#7C1B00" d="M402,169.5c0,0,4.4,1.5,2.8,10.1c0,0-1.3,4,0.4,5c0,0,1.7,0.1,1.8-5.6
					c0,0,0.9-5,2.6-3.8L402,169.5z"/>
				<path id="XMLID_8388_" fill="#7C1B00" d="M408,174.4c0,0,2.2,1.8,1.6,4.9c0,0-0.5,1.2,0.1,1.7c0,0,1.6,0.3,2.1-3.3L408,174.4z"
					/>
				<path id="XMLID_8387_" fill="#7C1B00" d="M394.2,161.5c0,0,1.5,2.8,0.8,7.3c0,0-0.6,3.5,0.5,4.1c0,0,1,0.8,1.3-3.2
					c0.1-2.2,0.8-1.6,0.8-0.6c0,1-0.9,5.6,1.2,6c0,0,1.7,0.5,1.8-5.3c0,0,0.3-3.3,1.4-2.3L394.2,161.5z"/>
				<g id="XMLID_8375_">
					<g id="XMLID_8382_">
						<path id="XMLID_8386_" fill="#FFFFFF" d="M424.3,160.5l-15.9-11.8c-2.4-1.8-7.1,0.4-10.5,5c-3.4,4.5-4.1,9.7-1.7,11.5
							l15.9,11.8L424.3,160.5z"/>
						<path id="XMLID_8383_" fill="#231815" d="M412.1,177.9c-0.2,0-0.4-0.1-0.6-0.2l-15.9-11.8c-1.5-1.1-2.1-3.1-1.7-5.6
							c0.3-2.3,1.5-4.9,3.2-7.2c1.7-2.3,3.8-4.1,6-5.1c2.3-1.1,4.4-1.1,5.8,0l15.9,11.8c0.4,0.3,0.5,0.9,0.2,1.3l-12.2,16.4
							c-0.1,0.2-0.4,0.3-0.6,0.4C412.2,177.9,412.2,177.9,412.1,177.9z M406.3,149c-0.7,0-1.6,0.2-2.4,0.6c-1.8,0.9-3.7,2.5-5.3,4.6
							c-1.5,2.1-2.6,4.3-2.9,6.4c-0.3,1.8,0.1,3.2,1,3.8l15.2,11.3l11.1-15l-15.2-11.3C407.4,149.1,406.9,149,406.3,149z"/>
					</g>
					<g id="XMLID_8377_">
						
							<ellipse id="XMLID_8381_" transform="matrix(-0.5957 0.8032 -0.8032 -0.5957 802.9075 -66.6838)" fill="#FFFFFF" cx="418.2" cy="168.7" rx="10.2" ry="5.5"/>
						<path id="XMLID_8378_" fill="#231815" d="M414.2,178.5c-1,0-1.9-0.3-2.6-0.8l0,0c-1.5-1.1-2.1-3.1-1.7-5.6
							c0.3-2.3,1.5-4.9,3.2-7.2c3.7-5,8.9-7.3,11.8-5.1c1.5,1.1,2.1,3.1,1.7,5.6c-0.3,2.3-1.5,4.9-3.2,7.2c-1.7,2.3-3.8,4.1-6,5.1
							C416.3,178.2,415.2,178.5,414.2,178.5z M412.7,176.2c0.9,0.6,2.3,0.6,4-0.2c1.8-0.9,3.7-2.5,5.3-4.6c1.5-2.1,2.6-4.3,2.9-6.4
							c0.3-1.8-0.1-3.2-1-3.8c-1.8-1.3-5.9,0.3-9.2,4.8c-1.5,2.1-2.6,4.3-2.9,6.4C411.5,174.2,411.8,175.6,412.7,176.2L412.7,176.2z
							"/>
					</g>
					<path id="XMLID_8376_" fill="#7C1B00" d="M414.9,173.2c-1.3-1-0.9-3.8,0.9-6.3c1.8-2.5,4.4-3.7,5.7-2.7c1.3,1,0.9,3.8-0.9,6.3
						C419.7,171.8,416.9,174.7,414.9,173.2z"/>
				</g>
				<g id="XMLID_8370_">
					<path id="XMLID_8374_" fill="#231815" d="M404.1,148.1c0.3-0.4,5.9-0.8,8-1.9l-3.2,3L404.1,148.1z"/>
					<path id="XMLID_8371_" fill="#231815" d="M408.9,149.6C408.9,149.6,408.9,149.6,408.9,149.6l-5-1c-0.2,0-0.3-0.1-0.3-0.3
						c-0.1-0.2,0-0.3,0.1-0.4c0.2-0.3,0.7-0.4,2.7-0.7c1.8-0.3,4.3-0.7,5.5-1.3c0.2-0.1,0.5,0,0.6,0.2c0.1,0.2,0.1,0.4-0.1,0.6
						l-3.2,3C409.2,149.5,409.1,149.6,408.9,149.6z M406.2,148l2.6,0.6l1.4-1.3c-1.2,0.3-2.5,0.5-3.7,0.7
						C406.4,148,406.3,148,406.2,148z"/>
				</g>
				<g id="XMLID_8365_">
					<polygon id="XMLID_8369_" fill="#231815" points="396.8,157.7 392.3,168.7 396.8,163.9 					"/>
					<path id="XMLID_8366_" fill="#231815" d="M390.7,169.2c-0.1,0-0.2,0-0.2-0.1c-0.2-0.1-0.3-0.4-0.2-0.6l4.5-11
						c0.1-0.2,1.9-0.3,2.1-0.3c0.2,0,1.9,0.2,1.9,0.5v6.2c0,0.1-1.6,0.2-1.7,0.3l-5.3,4.8C391.8,169.1,390.9,169.2,390.7,169.2z
						 M396.8,160.1l-2.7,6.5l2.7-2.8V160.1z"/>
				</g>
				<g id="XMLID_8298_">
					<path id="XMLID_8364_" fill="#6D1200" d="M438.3,255.2c0,0-4.6,0-8.3,0.3c0,0-5.3,0.1-5.3,1.8c0,0-0.1,1.2,5.1,1.2
						c4.8,0,4.9,1.3,3,1.3c-2,0-12.5-1.2-13,1.2c-0.5,2.4,7.5,0.5,14.5,1.5c7,1-8.4,1.8-8.4,4c0.1,2.1,6.9,2.7,13.9,1.8
						s7.9-3,12.4,0.3c4.6,3.3,12.4-1.5,7.4-4.8c-5-3.3-3.1-3.8,0.8-3.5c6.2,0.6,5.4-3.3-1.5-2.9l-20.3-0.5L438.3,255.2z"/>
					<g id="XMLID_8359_">
						<path id="XMLID_8363_" fill="#FFFFFF" d="M478.3,236c0,0,12.9-25.4,29.5-20.9l7.2,10.7l-30.5,14.5L478.3,236z"/>
						<path id="XMLID_8360_" fill="#231815" d="M484.5,241.2c-0.2,0-0.4-0.1-0.5-0.2l-6.2-4.3c-0.4-0.3-0.5-0.8-0.3-1.2
							c0.1-0.3,3.3-6.5,8.7-12.3c7.2-7.8,14.7-11,21.9-9c0.2,0.1,0.4,0.2,0.5,0.4l7.2,10.7c0.2,0.2,0.2,0.5,0.1,0.8
							c-0.1,0.3-0.3,0.5-0.5,0.6l-30.5,14.5C484.8,241.2,484.6,241.2,484.5,241.2z M479.5,235.7l5,3.6l29-13.8l-6.4-9.5
							C493.2,212.4,481.7,231.7,479.5,235.7z"/>
					</g>
					<g id="XMLID_8354_">
						<path id="XMLID_8358_" fill="#FFFFFF" d="M481.2,240.1c0,0,12.2-21.8,40.4-12.6l20.5,27.2c0,0-19.7-15.4-46.8-9.1L481.2,240.1
							z"/>
						<path id="XMLID_8355_" fill="#231815" d="M542.2,255.6c-0.2,0-0.4-0.1-0.6-0.2c-0.2-0.2-19.7-15-46-9c-0.2,0-0.4,0-0.5,0
							l-14.2-5.5c-0.3-0.1-0.4-0.3-0.5-0.5c-0.1-0.3-0.1-0.5,0.1-0.8c0.1-0.2,3.2-5.7,9.9-10.1c6.2-4,16.7-7.8,31.6-2.9
							c0.2,0.1,0.3,0.2,0.5,0.3l20.5,27.2c0.3,0.4,0.2,0.9-0.1,1.2C542.6,255.5,542.4,255.6,542.2,255.6z M508.3,243.1
							c13.6,0,24.4,4.8,30,8l-17.2-22.9c-11.3-3.6-21.3-2.7-29.7,2.8c-4.8,3.1-7.7,6.9-8.8,8.6l12.8,4.9
							C500,243.5,504.3,243.1,508.3,243.1z"/>
					</g>
					<g id="XMLID_8349_">
						<path id="XMLID_8353_" fill="#FFFFFF" d="M481.2,240.1l5.9,0.4c-6.5-5.7-10.2-4.4-10.2-4.4c-2.8,2.7-8.6,3.6-8.6,3.6
							c-0.4,0.6-25.5-2.5-25.5-2.5v21l25.9-0.8c0,0,16.4,4.9,24.6,0.8c0,0,1.7-2.4,0.8-3.4c0,0,1.7-3.2,1.2-4.3c0,0,1.8-3.6,0.1-5
							c0,0-0.4-3.8-2-4.6L481.2,240.1z"/>
						<path id="XMLID_8350_" fill="#231815" d="M484.5,260.7c-7.2,0-14.8-2.1-16-2.4l-25.9,0.8c-0.2,0,0.1-0.1-0.1-0.3
							c-0.2-0.2,0.3-0.4,0.3-0.7v-21c0-0.3-0.5-0.5-0.3-0.7c0.2-0.2,0.2-0.3,0.4-0.2c8.9,1.1,23.2,2.7,25,2.6c0.1,0,0.1-0.1,0.2-0.1
							c0.1,0,5.6-0.9,8.2-3.4c0.1-0.1,0.2-0.2,0.3-0.2c0.2-0.1,4.2-1.3,10.9,4.4l5.9,0.4c0.1,0,0.2,0,0.3,0.1c1.7,0.9,2.3,3.8,2.5,5
							c1.5,1.6,0.5,4.5,0,5.5c0.2,1.2-0.6,3.1-1.1,4.2c0.6,1.5-0.8,3.6-1.1,4c-0.1,0.1-0.2,0.2-0.3,0.3
							C491.1,260.3,487.8,260.7,484.5,260.7z M468.6,256.7c0.1,0,0.2-0.1,0.3-0.1c0.2,0,15.9,4.6,23.8,0.9c0.6-0.9,0.9-1.9,0.7-2.1
							c-0.3-0.3-0.3-0.7-0.1-1.1c0.8-1.4,1.3-3,1.2-3.4c-0.1-0.3-0.1-0.6,0-0.8c0.5-0.9,1.2-3.2,0.4-3.8c-0.2-0.2-0.3-0.4-0.4-0.6
							c-0.1-1.2-0.6-3.2-1.4-3.8l-11.9-0.9c-0.5,0-0.9-0.5-0.9-1c0-0.5,0.5-0.9,1-0.9l2.9,0.2c-3.8-2.6-6.2-2.5-6.8-2.4
							c-2.8,2.5-8,3.5-8.9,3.6c-0.9,0.3-2.8,0.1-12.7-1c-4.8-0.5-9-1.1-11-1.4v19L468.6,256.7C468.6,256.7,468.6,256.7,468.6,256.7z
							"/>
					</g>
					<g id="XMLID_8346_">
						<path id="XMLID_8348_" fill="#FFFFFF" d="M490.2,246.1c0.2,0,4.8-0.9,4.8-0.9"/>
						<path id="XMLID_8347_" fill="#231815" d="M490.2,247c-0.5,0-0.9-0.4-0.9-0.9c0-0.5,0.4-0.9,0.9-0.9c0.3,0,2.7-0.5,4.7-0.9
							c0.5-0.1,1,0.2,1.1,0.7c0.1,0.5-0.2,1-0.7,1.1C490.5,247,490.3,247,490.2,247z"/>
					</g>
					<g id="XMLID_8343_">
						<line id="XMLID_8345_" fill="#FFFFFF" x1="490.2" y1="250.4" x2="495.6" y2="249.8"/>
						<path id="XMLID_8344_" fill="#231815" d="M490.2,251.4c-0.5,0-0.9-0.4-0.9-0.8c-0.1-0.5,0.3-1,0.8-1l5.4-0.6
							c0.5-0.1,1,0.3,1,0.8c0.1,0.5-0.3,1-0.8,1l-5.4,0.6C490.2,251.4,490.2,251.4,490.2,251.4z"/>
					</g>
					<g id="XMLID_8340_">
						<line id="XMLID_8342_" fill="#FFFFFF" x1="489.6" y1="254.6" x2="494.3" y2="254.4"/>
						<path id="XMLID_8341_" fill="#231815" d="M489.6,256.7c-0.5,0-0.9-0.9-0.9-1.4c0-0.5,0.4-1.2,0.9-1.2l4.7-0.4
							c0.5,0,0.9,0.3,1,0.8c0,0.5-0.4,1.5-0.9,1.5L489.6,256.7C489.6,256.7,489.6,256.7,489.6,256.7z"/>
					</g>
					<g id="XMLID_8337_">
						<path id="XMLID_8339_" fill="#FFFFFF" d="M484.4,244.2c0,0-0.4,0.9,0.4,1.9"/>
						<path id="XMLID_8338_" fill="#231815" d="M484.7,246.8c-0.2,0-0.4-0.1-0.5-0.3c-0.9-1.1-0.7-2.2-0.5-2.7
							c0.2-0.3,0.6-0.5,0.9-0.3c0.3,0.2,0.5,0.6,0.3,0.9c0,0.1-0.2,0.6,0.3,1.2c0.2,0.3,0.2,0.7-0.1,1
							C485,246.8,484.9,246.8,484.7,246.8z"/>
					</g>
					<g id="XMLID_8334_">
						<path id="XMLID_8336_" fill="#FFFFFF" d="M484.5,248.7c0,0-0.6,1.2,0.3,2.3"/>
						<path id="XMLID_8335_" fill="#231815" d="M484.7,251.7c-0.2,0-0.4-0.1-0.5-0.3c-1.2-1.4-0.4-3-0.3-3.1
							c0.2-0.3,0.6-0.5,0.9-0.3c0.3,0.2,0.5,0.6,0.3,0.9c0,0-0.4,0.8,0.2,1.6c0.2,0.3,0.2,0.7-0.1,1
							C485,251.7,484.9,251.7,484.7,251.7z"/>
					</g>
					<g id="XMLID_8331_">
						<path id="XMLID_8333_" fill="#FFFFFF" d="M484.7,253.9c0,0-0.7,1.2,0.6,2.5"/>
						<path id="XMLID_8332_" fill="#231815" d="M485.3,257.1c-0.2,0-0.4-0.1-0.5-0.2c-1.6-1.7-0.7-3.3-0.7-3.3
							c0.2-0.3,0.6-0.4,0.9-0.3c0.3,0.2,0.4,0.6,0.3,0.9c0,0.1-0.4,0.8,0.5,1.7c0.3,0.3,0.2,0.7,0,1
							C485.7,257,485.5,257.1,485.3,257.1z"/>
					</g>
					<g id="XMLID_8319_">
						<path id="XMLID_8330_" fill="#231815" d="M525.4,242.6c-0.1,0-0.3-0.1-0.4-0.2c-10.3-13.5-10.2-13.8-10.1-14.1
							c0.1-0.2,0.3-0.4,0.6-0.3c0.2,0,0.3,0.2,0.3,0.3c0.4,0.8,6.2,8.5,10,13.5c0.2,0.2,0.1,0.5-0.1,0.6
							C525.6,242.6,525.5,242.6,525.4,242.6z"/>
						<path id="XMLID_8329_" fill="#231815" d="M521.8,242.2c-0.1,0-0.3-0.1-0.4-0.2c-10.3-13.5-10.2-13.8-10.1-14.1
							c0.1-0.2,0.3-0.4,0.6-0.3c0.2,0,0.3,0.2,0.3,0.3c0.4,0.8,6.2,8.5,10,13.5c0.2,0.2,0.1,0.5-0.1,0.6
							C522,242.2,521.9,242.2,521.8,242.2z"/>
						<path id="XMLID_8328_" fill="#231815" d="M518.8,242.2c-0.1,0-0.3-0.1-0.4-0.2c-10.3-13.5-10.2-13.8-10.1-14.1
							c0.1-0.2,0.3-0.4,0.6-0.3c0.2,0,0.3,0.2,0.3,0.3c0.4,0.8,6.2,8.5,10,13.5c0.2,0.2,0.1,0.5-0.1,0.6
							C519,242.2,518.9,242.2,518.8,242.2z"/>
						<path id="XMLID_8327_" fill="#231815" d="M515,241.7c-0.1,0-0.3-0.1-0.4-0.2c-10-12.7-9.9-12.9-9.8-13.2
							c0.1-0.2,0.3-0.4,0.6-0.3c0.2,0,0.3,0.2,0.3,0.3c0.4,0.7,5.2,7,9.7,12.6c0.2,0.2,0.1,0.5-0.1,0.7
							C515.2,241.6,515.1,241.7,515,241.7z"/>
						<path id="XMLID_8326_" fill="#231815" d="M511.3,241.7c-0.1,0-0.3-0.1-0.4-0.2c-0.4-0.5-8.7-11.6-9.4-12.8
							c-0.1-0.2-0.1-0.5,0.1-0.6c0.2-0.1,0.5-0.1,0.6,0.1c0.8,1.2,9.3,12.6,9.4,12.7c0.2,0.2,0.1,0.5-0.1,0.6
							C511.5,241.7,511.4,241.7,511.3,241.7z"/>
						<path id="XMLID_8325_" fill="#231815" d="M508,241.7c-0.1,0-0.3-0.1-0.4-0.2c-9.1-11.8-9.1-12.1-9-12.4
							c0.1-0.2,0.3-0.4,0.6-0.3c0.2,0,0.3,0.2,0.3,0.3c0.4,0.8,5.6,7.6,8.8,11.8c0.2,0.2,0.1,0.5-0.1,0.6
							C508.2,241.7,508.1,241.7,508,241.7z"/>
						<path id="XMLID_8324_" fill="#231815" d="M504.4,241.7c-0.1,0-0.3-0.1-0.4-0.2c-8-10.6-8-10.8-7.9-11.1
							c0.1-0.2,0.3-0.4,0.6-0.3c0.2,0.1,0.3,0.2,0.3,0.3c0.4,0.7,4.9,6.8,7.7,10.5c0.2,0.2,0.1,0.5-0.1,0.6
							C504.6,241.7,504.5,241.7,504.4,241.7z"/>
						<path id="XMLID_8323_" fill="#231815" d="M501.9,242.2c-0.1,0-0.3-0.1-0.4-0.2c-8.4-9.9-8.3-10.1-8.2-10.4
							c0.1-0.2,0.3-0.4,0.6-0.3c0.2,0,0.3,0.2,0.3,0.3c0.4,0.7,5.1,6.3,8,9.8c0.2,0.2,0.1,0.5-0.1,0.7
							C502.1,242.2,502,242.2,501.9,242.2z"/>
						<path id="XMLID_8322_" fill="#231815" d="M498.7,242.6c-0.1,0-0.3-0.1-0.4-0.2l-7.2-9.3c-0.2-0.2-0.1-0.5,0.1-0.6
							c0.2-0.2,0.5-0.1,0.6,0.1l7.2,9.3c0.2,0.2,0.1,0.5-0.1,0.6C498.9,242.6,498.8,242.6,498.7,242.6z"/>
						<path id="XMLID_8321_" fill="#231815" d="M495.9,242.9c-0.1,0-0.3-0.1-0.4-0.2l-6.3-8.2c-0.2-0.2-0.1-0.5,0.1-0.6
							c0.2-0.2,0.5-0.1,0.6,0.1l6.3,8.2c0.2,0.2,0.1,0.5-0.1,0.6C496.1,242.8,496,242.9,495.9,242.9z"/>
						<path id="XMLID_8320_" fill="#231815" d="M491.5,241.6c-0.1,0-0.3-0.1-0.4-0.2l-3.8-4.9c-0.2-0.2-0.1-0.5,0.1-0.6
							c0.2-0.2,0.5-0.1,0.6,0.1l3.8,4.9c0.2,0.2,0.1,0.5-0.1,0.6C491.7,241.5,491.6,241.6,491.5,241.6z"/>
					</g>
					<path id="XMLID_8318_" fill="#231815" d="M510.1,225.7c-0.1,0-0.3-0.1-0.4-0.2l-5.3-7.5c-0.1-0.2-0.1-0.5,0.1-0.6
						c0.2-0.1,0.5-0.1,0.6,0.1l5.3,7.5c0.1,0.2,0.1,0.5-0.1,0.6C510.3,225.7,510.2,225.7,510.1,225.7z"/>
					<path id="XMLID_8317_" fill="#231815" d="M506.9,225.6c-0.1,0-0.3-0.1-0.4-0.2l-5-7.5c-0.1-0.2-0.1-0.5,0.1-0.6
						c0.2-0.1,0.5-0.1,0.6,0.1l5,7.5c0.1,0.2,0.1,0.5-0.1,0.6C507.1,225.6,507,225.6,506.9,225.6z"/>
					<path id="XMLID_8316_" fill="#231815" d="M504,225.6c-0.2,0-0.3-0.1-0.4-0.2l-4.5-6.9c-0.1-0.2-0.1-0.5,0.1-0.6
						c0.2-0.1,0.5-0.1,0.6,0.1l4.5,6.9c0.1,0.2,0.1,0.5-0.1,0.6C504.2,225.6,504.1,225.6,504,225.6z"/>
					<path id="XMLID_8315_" fill="#231815" d="M501.8,226.3c-0.1,0-0.3-0.1-0.4-0.2l-4.6-6.5c-0.1-0.2-0.1-0.5,0.1-0.6
						c0.2-0.1,0.5-0.1,0.6,0.1l4.6,6.5c0.1,0.2,0.1,0.5-0.1,0.6C502,226.3,501.9,226.3,501.8,226.3z"/>
					<path id="XMLID_8314_" fill="#231815" d="M499.2,226.9c-0.2,0-0.3-0.1-0.4-0.2l-3.8-6.2c-0.1-0.2-0.1-0.5,0.2-0.6
						c0.2-0.1,0.5-0.1,0.6,0.2l3.8,6.2c0.1,0.2,0.1,0.5-0.2,0.6C499.3,226.9,499.2,226.9,499.2,226.9z"/>
					<path id="XMLID_8313_" fill="#231815" d="M497.2,227.9c-0.2,0-0.3-0.1-0.4-0.2l-3.7-5.7c-0.1-0.2-0.1-0.5,0.1-0.6
						c0.2-0.1,0.5-0.1,0.6,0.1l3.7,5.7c0.1,0.2,0.1,0.5-0.1,0.6C497.4,227.9,497.3,227.9,497.2,227.9z"/>
					<path id="XMLID_8312_" fill="#231815" d="M495.2,228.8c-0.2,0-0.3-0.1-0.4-0.2l-3.4-5.3c-0.1-0.2-0.1-0.5,0.1-0.6
						c0.2-0.1,0.5-0.1,0.6,0.1l3.4,5.3c0.1,0.2,0.1,0.5-0.1,0.6C495.4,228.8,495.3,228.8,495.2,228.8z"/>
					<path id="XMLID_8311_" fill="#231815" d="M493.3,229.8c-0.2,0-0.3-0.1-0.4-0.2l-2.9-4.7c-0.1-0.2-0.1-0.5,0.1-0.6
						c0.2-0.1,0.5-0.1,0.6,0.1l2.9,4.7c0.1,0.2,0.1,0.5-0.1,0.6C493.4,229.8,493.3,229.8,493.3,229.8z"/>
					<path id="XMLID_8310_" fill="#231815" d="M491.3,230.7c-0.2,0-0.3-0.1-0.4-0.2l-2.7-4.3c-0.1-0.2-0.1-0.5,0.1-0.6
						c0.2-0.1,0.5-0.1,0.6,0.1l2.7,4.3c0.1,0.2,0.1,0.5-0.1,0.6C491.5,230.7,491.4,230.7,491.3,230.7z"/>
					<path id="XMLID_8309_" fill="#231815" d="M489.3,231.7c-0.1,0-0.3-0.1-0.4-0.2l-2.3-3.3c-0.1-0.2-0.1-0.5,0.1-0.6
						c0.2-0.1,0.5-0.1,0.6,0.1l2.3,3.3c0.1,0.2,0.1,0.5-0.1,0.6C489.5,231.7,489.4,231.7,489.3,231.7z"/>
					<path id="XMLID_8308_" fill="#231815" d="M488,233.1c-0.1,0-0.3-0.1-0.4-0.2l-2.3-3.3c-0.1-0.2-0.1-0.5,0.1-0.6
						c0.2-0.1,0.5-0.1,0.6,0.1l2.3,3.3c0.1,0.2,0.1,0.5-0.1,0.6C488.1,233.1,488,233.1,488,233.1z"/>
					<path id="XMLID_8307_" fill="#231815" d="M486.8,234.5c-0.1,0-0.3-0.1-0.4-0.2l-2.1-3.1c-0.1-0.2-0.1-0.5,0.1-0.6
						c0.2-0.1,0.5-0.1,0.6,0.1l2.1,3.1c0.1,0.2,0.1,0.5-0.1,0.6C487,234.5,486.9,234.5,486.8,234.5z"/>
					<path id="XMLID_8306_" fill="#231815" d="M485.4,235.8c-0.1,0-0.3-0.1-0.4-0.2l-2.1-2.8c-0.2-0.2-0.1-0.5,0.1-0.6
						c0.2-0.2,0.5-0.1,0.6,0.1l2.1,2.8c0.2,0.2,0.1,0.5-0.1,0.6C485.6,235.8,485.5,235.8,485.4,235.8z"/>
					<g id="XMLID_8301_">
						<ellipse id="XMLID_8305_" fill="#FFFFFF" cx="442.6" cy="247.7" rx="6.2" ry="10.5"/>
						<path id="XMLID_8302_" fill="#231815" d="M442.6,259.1c-4,0-7.1-5-7.1-11.4s3.1-11.4,7.1-11.4s7.1,5,7.1,11.4
							S446.6,259.1,442.6,259.1z M442.6,238.1c-2.8,0-5.3,4.4-5.3,9.6s2.4,9.6,5.3,9.6s5.3-4.4,5.3-9.6S445.4,238.1,442.6,238.1z"/>
					</g>
					<ellipse id="XMLID_8300_" fill="#7C1B00" cx="442.6" cy="247.7" rx="3.3" ry="6.2"/>
					<ellipse id="XMLID_8299_" fill="#6D1200" cx="416.1" cy="265.9" rx="4.3" ry="1.1"/>
				</g>
				<rect id="XMLID_8297_" x="251.6" y="189.7" fill="#565454" width="38.8" height="0"/>
				<rect id="XMLID_8296_" x="264.8" y="191.7" fill="#565454" width="39" height="2"/>
				<rect id="XMLID_8295_" x="329.8" y="174.7" fill="#565454" width="32" height="2"/>
				<rect id="XMLID_8294_" x="331.8" y="234.7" fill="#565454" width="28" height="1"/>
				<rect id="XMLID_8293_" x="337.8" y="239.7" fill="#565454" width="30" height="4"/>
				<rect id="XMLID_8292_" x="264.8" y="262.7" fill="#565454" width="28" height="1"/>
				<rect id="XMLID_8291_" x="313.8" y="180.7" fill="#565454" width="41" height="1"/>
				
					<rect id="XMLID_8290_" x="400" y="192.7" transform="matrix(0.6328 0.7743 -0.7743 0.6328 303.7974 -235.7655)" fill="#565454" width="0.9" height="19.4"/>
				
					<rect id="XMLID_8289_" x="405.3" y="193.3" transform="matrix(0.6328 0.7743 -0.7743 0.6328 306.1756 -239.6914)" fill="#565454" width="0.9" height="19.4"/>
				
					<rect id="XMLID_8288_" x="401.6" y="215" transform="matrix(0.6328 0.7743 -0.7743 0.6328 321.5812 -228.8162)" fill="#565454" width="0.9" height="19.4"/>
				
					<rect id="XMLID_8287_" x="407.5" y="216.9" transform="matrix(0.6328 0.7743 -0.7743 0.6328 322.7099 -233.9025)" fill="#565454" width="0.9" height="12.8"/>
				
					<rect id="XMLID_8286_" x="406.1" y="221.5" transform="matrix(0.6328 0.7743 -0.7743 0.6328 325.7402 -231.1125)" fill="#565454" width="0.9" height="12.8"/>
				
					<rect id="XMLID_8285_" x="344.5" y="126.4" transform="matrix(0.9399 0.3415 -0.3415 0.9399 65.0571 -114.8718)" fill="#514E4E" width="28.5" height="1.9"/>
				<rect id="XMLID_8284_" x="268.8" y="125.7" fill="#514E4E" width="35" height="2"/>
				<rect id="XMLID_8283_" x="290.8" y="133.7" fill="#514E4E" width="26" height="2"/>
				
					<rect id="XMLID_8282_" x="334.3" y="126.4" transform="matrix(0.941 0.3383 -0.3383 0.941 63.4757 -109.9896)" fill="#514E4E" width="25.8" height="1.4"/>
				<path id="XMLID_8273_" fill="#C73625" d="M375.6,283.3c0,0,0.5-7.4,4.4-2.5c3.9,4.9,2.3,3.7,5.6,5.3c3.3,1.7,10.3,5.3,4.3,7.2
					s-4.8-1.5-8.7-1.2c-3.8,0.3-3.7,6.6-7.5,2.9c-3.7-3.7-6.4-7.1-2.7-6.8c3.7,0.3-13.7-8.9-6.4-7.4c7.2,1.5,10,4.3,10.6,2.5"/>
				<path id="XMLID_8272_" fill="#C73625" d="M331.3,298c0.5,0,2.5-2.1,6,1.7c3.5,3.7,2.8,1.9,8.1,3.4s13.5,3.2,9.3,6
					c-4.2,2.9-6.4-2.7-6.3,0.8c0.1,3.5,6.3,2.4,3.5,5.9c-2.8,3.5-4.6,2.3-5.5,2.7c-0.9,0.4-15.6-19.7-15.6-19.7L331.3,298z"/>
				<g id="XMLID_8257_">
					<g id="XMLID_8267_">
						<path id="XMLID_8271_" fill="#FFFFFF" d="M475,278.2c0,0,14.1,8.3,26.5,19.7l53.5-7.3c0,0-23.4-16.8-27.5-18.6L475,278.2z"/>
						<path id="XMLID_8268_" fill="#231815" d="M501.5,298.9c-0.2,0-0.5-0.1-0.6-0.2c-12.2-11.3-26.2-19.5-26.3-19.6
							c-0.3-0.2-0.5-0.6-0.4-1c0.1-0.4,0.4-0.7,0.8-0.7l52.5-6.1c0.2,0,0.3,0,0.5,0.1c4.1,1.8,26.7,18,27.7,18.7
							c0.3,0.2,0.5,0.6,0.4,1c-0.1,0.4-0.4,0.6-0.8,0.7l-53.5,7.3C501.5,298.9,501.5,298.9,501.5,298.9z M477.7,278.9
							c4.5,2.8,14.7,9.6,24,18.1l50.8-6.9c-5.5-3.9-21.5-15.2-25.2-17L477.7,278.9z"/>
					</g>
					<path id="XMLID_8266_" fill="#231815" d="M505.9,294.5c-0.1,0-0.2,0-0.3-0.1L487.5,281c-0.2-0.2-0.2-0.4-0.1-0.6
						c0.2-0.2,0.4-0.2,0.6-0.1l18.1,13.5c0.2,0.2,0.2,0.4,0.1,0.6C506.2,294.5,506,294.5,505.9,294.5z"/>
					<path id="XMLID_8265_" fill="#231815" d="M510.8,293.8c-0.1,0-0.2,0-0.3-0.1l-18.4-13.6c-0.2-0.2-0.2-0.4-0.1-0.6
						c0.2-0.2,0.4-0.2,0.6-0.1l18.4,13.6c0.2,0.2,0.2,0.4,0.1,0.6C511.1,293.7,511,293.8,510.8,293.8z"/>
					<path id="XMLID_8264_" fill="#231815" d="M515.3,293.2c-0.1,0-0.2,0-0.3-0.1l-18.1-13.5c-0.2-0.2-0.2-0.4-0.1-0.6
						c0.2-0.2,0.4-0.2,0.6-0.1l18.1,13.5c0.2,0.2,0.2,0.4,0.1,0.6C515.6,293.1,515.5,293.2,515.3,293.2z"/>
					<path id="XMLID_8263_" fill="#231815" d="M519.3,292.3c-0.1,0-0.2,0-0.3-0.1l-17.7-13.1c-0.2-0.2-0.2-0.4-0.1-0.6
						c0.2-0.2,0.4-0.2,0.6-0.1l17.7,13.1c0.2,0.2,0.2,0.4,0.1,0.6C519.6,292.2,519.5,292.3,519.3,292.3z"/>
					<path id="XMLID_8262_" fill="#231815" d="M524.3,291.9c-0.1,0-0.2,0-0.3-0.1l-17.6-13.1c-0.2-0.2-0.2-0.4-0.1-0.6
						c0.2-0.2,0.4-0.2,0.6-0.1l17.6,13.1c0.2,0.2,0.2,0.4,0.1,0.6C524.6,291.9,524.4,291.9,524.3,291.9z"/>
					<path id="XMLID_8261_" fill="#231815" d="M528.9,290.8c-0.1,0-0.2,0-0.3-0.1L511.1,278c-0.2-0.1-0.3-0.4-0.1-0.6
						c0.1-0.2,0.4-0.3,0.6-0.1l17.5,12.6c0.2,0.1,0.3,0.4,0.1,0.6C529.2,290.7,529,290.8,528.9,290.8z"/>
					<path id="XMLID_8260_" fill="#231815" d="M533.9,290.5c-0.1,0-0.2,0-0.3-0.1l-17.8-13.2c-0.2-0.2-0.2-0.4-0.1-0.6
						c0.2-0.2,0.4-0.2,0.6-0.1l17.8,13.2c0.2,0.2,0.2,0.4,0.1,0.6C534.1,290.4,534,290.5,533.9,290.5z"/>
					<path id="XMLID_8259_" fill="#231815" d="M537.7,289.6c-0.1,0-0.2,0-0.3-0.1l-17-13.1c-0.2-0.2-0.2-0.4-0.1-0.6
						c0.2-0.2,0.4-0.2,0.6-0.1l17,13.1c0.2,0.2,0.2,0.4,0.1,0.6C538,289.6,537.8,289.6,537.7,289.6z"/>
					<path id="XMLID_8258_" fill="#231815" d="M541.8,289.1c-0.1,0-0.2,0-0.3-0.1l-17.1-12.9c-0.2-0.2-0.2-0.4-0.1-0.6
						c0.2-0.2,0.4-0.2,0.6-0.1l17.1,12.9c0.2,0.2,0.2,0.4,0.1,0.6C542.1,289,542,289.1,541.8,289.1z"/>
				</g>
				<path id="XMLID_8256_" fill="#7C1B00" d="M298.9,204.7c0,0,1.4,1.2,1.5,4.2c0,0-0.5,4.8,0.8,3.9c1.3-0.9,0.2-6.5,1.8-5.2
					c1.5,1.3-1.3,11.3,2,11s-1.3-16.8,2.4-10.7c3.7,6.1,2.4-1.1,2.3-3.1H298.9z"/>
				<rect id="XMLID_8255_" x="268.8" y="202.7" fill="#565454" width="43" height="2"/>
			</g>
			<rect id="XMLID_8253_" x="152.8" y="46.7" fill="none" width="344" height="260"/>
		</g>
	</g>
</g>
<g>
</g>
<g>
</g>
<g>
</g>
<g>
</g>
<g>
</g>
<g>
</g>
<g>
</g>
<g>
</g>
<g>
</g>
<g>
</g>
<g>
</g>
<g>
</g>
<g>
</g>
<g>
</g>
<g>
</g>
</svg>
