<?xml version="1.0" encoding="utf-8"?>
<!-- Generator: Adobe Illustrator 18.1.1, SVG Export Plug-In . SVG Version: 6.00 Build 0)  -->
<!DOCTYPE svg PUBLIC "-//W3C//DTD SVG 1.1//EN" "http://www.w3.org/Graphics/SVG/1.1/DTD/svg11.dtd">
<svg version="1.1" id="Layer_1" xmlns="http://www.w3.org/2000/svg" xmlns:xlink="http://www.w3.org/1999/xlink" x="0px" y="0px"
	 viewBox="0 0 358.3 80.3" enable-background="new 0 0 358.3 80.3" xml:space="preserve">
<g id="XMLID_8954_">
	<path id="XMLID_8960_" fill="#6E1F21" d="M321,80.3H43C22.4,80.3,5.7,63.6,5.7,43v0C5.7,22.4,22.4,5.7,43,5.7h278
		c20.6,0,37.3,16.7,37.3,37.3v0C358.3,63.6,341.6,80.3,321,80.3z"/>
	<path id="XMLID_14_" fill="#231815" d="M316.2,75.5h-278c-20.6,0-37.3-16.7-37.3-37.3v0c0-20.6,16.7-37.3,37.3-37.3h278
		c20.6,0,37.3,16.7,37.3,37.3v0C353.5,58.8,336.8,75.5,316.2,75.5z"/>
	<path id="XMLID_15_" fill="#FFFFFF" d="M316.2,76.5H39C18.1,76.5,0.5,60,0,39.1C-0.5,17.6,16.9,0,38.2,0l277.2,0
		c20.9,0,38.5,16.5,39,37.3C354.9,58.8,337.6,76.5,316.2,76.5z M38.2,1.9C17.9,1.9,1.4,18.6,1.9,39.1c0.4,19.9,17.2,35.5,37.1,35.5
		h276.5c19.9,0,36.6-15.6,37.1-35.5c0.5-20.4-16-37.2-36.3-37.2H38.2z"/>
	<g id="XMLID_2_">
		<path id="XMLID_3_" fill="#FFFFFF" d="M98.7,55.4h-8.3L96.2,43h8.3L98.7,55.4z M120.9,41.4l-1.2-3.7l-1.2,3.7h-5.8v14h-7.6v-14
			h-5.3l-1.2-3.6l-1.1,3.6h-6.9l4-13.2h6.9l-1.1,3.8h2.6l2.1,6.2V26.7H90.7v-4h14.4v-3.3h7.6v3.3h14.2v4h-14.2v11.9l3.3-10.4h6.8
			l-1.2,3.8h2.8l3,9.5H120.9z M119.5,55.4L113.3,43h8.2l6.2,12.4H119.5z"/>
		<path id="XMLID_8_" fill="#FFFFFF" d="M175,55.4h-15.1V23.6h-9.3l-1.2,4.4h8.5v17.5l-9.6,9.8h-9.4l6.8-6.7l-5.2-9.4h7.5l2.6,4.4
			V32h-2.1l-1.4,5.7h-7.7l3.7-14.1h-3v-4h35.7v4h-8.1v15.5h1.2l1.3-12h6.1l-1.8,16.1h-6.8v8h9.2L175,55.4z"/>
		<path id="XMLID_32_" fill="#FFFFFF" d="M222.7,24.5h-13.2l-1.1,1.5h14.7v3.3h-17.1l-1.3,1.9h19.9v3.5h-22.3l-1.4,1.9h22.2v18.5
			h-31.4v-13h-3.5l5.3-7.5h-4.7v-3.5h7.3l1.3-1.9h-7v-3.3h9.4l1.1-1.5h-11.5V21h26.1l0.8-1.6h8.6L222.7,24.5z M215.4,40.2h-15.9v1.6
			h15.9V40.2z M215.4,45h-15.9v1.8h15.9V45z M215.4,49.9h-15.9v1.8h15.9V49.9z"/>
		<path id="XMLID_45_" fill="#FFFFFF" d="M271.6,24.5h-13.2l-1.1,1.5h14.7v3.3H255l-1.3,1.9h19.9v3.5h-22.3l-1.4,1.9h22.2v18.5
			h-31.4v-13h-3.5l5.3-7.5h-4.7v-3.5h7.3l1.3-1.9h-7v-3.3h9.4l1.1-1.5h-11.5V21h26.1l0.8-1.6h8.6L271.6,24.5z M264.3,40.2h-15.9v1.6
			h15.9V40.2z M264.3,45h-15.9v1.8h15.9V45z M264.3,49.9h-15.9v1.8h15.9V49.9z"/>
	</g>
</g>
<g>
</g>
<g>
</g>
<g>
</g>
<g>
</g>
<g>
</g>
<g>
</g>
<g>
</g>
<g>
</g>
<g>
</g>
<g>
</g>
<g>
</g>
<g>
</g>
<g>
</g>
<g>
</g>
<g>
</g>
</svg>
