<?xml version="1.0" encoding="utf-8"?>
<!-- Generator: Adobe Illustrator 18.1.1, SVG Export Plug-In . SVG Version: 6.00 Build 0)  -->
<!DOCTYPE svg PUBLIC "-//W3C//DTD SVG 1.1//EN" "http://www.w3.org/Graphics/SVG/1.1/DTD/svg11.dtd">
<svg version="1.1" id="Layer_1" xmlns="http://www.w3.org/2000/svg" xmlns:xlink="http://www.w3.org/1999/xlink" x="0px" y="0px"
	 viewBox="0 0 66.5 43.5" enable-background="new 0 0 66.5 43.5" xml:space="preserve">
<g id="XMLID_8804_">
	<g id="XMLID_8811_">
		<g id="XMLID_8836_">
			<path id="XMLID_8840_" fill="#FFFFFF" d="M33.2,13.4l-6.5-1.9c9.2-3.5,12.7-0.7,12.7-0.7c2,4,8.3,7.4,8.3,7.4
				c0.2,0.8,14.7,1.8,14.7,1.8l-8.2,22.5L40.3,37c0,0-19.7-1.3-26.9-8.8c0,0-1-3.3,0.4-4c0,0-0.7-4.1,0.3-5.1c0,0-0.6-4.6,1.8-5.4
				c0,0,1.9-3.9,3.9-4.1L33.2,13.4z"/>
			<path id="XMLID_8837_" fill="#231815" d="M12.5,28.8c-0.1-0.1-0.2-0.3-0.3-0.4c-0.2-0.6-0.9-3.3,0.4-4.7
				c-0.2-1.4-0.3-3.7,0.4-4.9c-0.1-1.3-0.1-4.8,2.2-5.9c0.6-1.2,2.4-4.1,4.6-4.4c0.1,0,0.3,0,0.4,0l6.5,1.9C36,6.9,39.8,9.8,40,9.9
				c0.1,0.1,0.2,0.2,0.3,0.3c1.8,3.6,7.5,6.8,7.5,6.8c0.1,0,0.1,0.1,0.2,0.2c1.8,0.9,4,0.6,13.9,1.4c0.3,0,0.4,0.2,0.6,0.5
				c0.1,0.3,0,0.5-0.1,0.8l-8.2,22.5c-0.1,0.3-0.1,0.6-0.4,0.7c-0.3,0.1-0.4,0.2-0.6,0.1l-13.4-5.3c-1.4-0.1-10.3-0.8-18.1-3.6
				C18.1,32.9,14.7,31.2,12.5,28.8z M40.6,35.4l12.1,5.4l7.4-20.4c-1.9-0.4-12.7-0.9-13.5-1.5c-1-0.5-6.1-3.6-8.1-7.4
				c-0.6-0.3-3.1-1.4-8.3-0.1l3.2,0.9c0.6,0.2,0.9,0.7,0.7,1.3c-0.2,0.6-0.7,0.9-1.3,0.7l-13.1-3.7c-1,0.3-2.3,2.2-2.9,3.5
				c-0.1,0.3-0.3,0.5-0.6,0.5c-1.2,0.4-1.2,3.1-1.1,4.2c0,0.3-0.1,0.6-0.3,0.9c-0.3,0.4-0.3,2.4-0.1,4.1c0.1,0.4-0.1,0.8-0.5,1.1
				c-0.3,0.1-0.3,1.3,0,2.4c7,7,25.7,8.2,25.9,8.2C40.3,35.6,40.5,35.4,40.6,35.4C40.6,35.4,40.6,35.4,40.6,35.4z"/>
		</g>
		<g id="XMLID_8833_">
			<path id="XMLID_8835_" fill="#FFFFFF" d="M21.3,16.4c-0.2-0.1-4.8-2.8-4.8-2.8"/>
			<path id="XMLID_8834_" fill="#231815" d="M20.9,17.4c0.5,0.2,1.2-0.1,1.4-0.6c0.2-0.5-0.1-1.1-0.6-1.3c-0.3-0.2-2.7-1.5-4.7-2.8
				c-0.5-0.3-1.1-0.1-1.4,0.4c-0.3,0.5-0.1,1.1,0.4,1.4C20.6,17.2,20.8,17.3,20.9,17.4z"/>
		</g>
		<g id="XMLID_8830_">
			<line id="XMLID_8832_" fill="#FFFFFF" x1="19.6" y1="21" x2="14" y2="18.2"/>
			<path id="XMLID_8831_" fill="#231815" d="M19.2,22c0.5,0.2,1.1,0,1.3-0.5c0.3-0.5,0-1.2-0.5-1.4l-5.6-2.7c-0.5-0.3-1.2,0-1.4,0.5
				c-0.3,0.5,0,1.2,0.5,1.4l5.6,2.7C19.2,21.9,19.2,22,19.2,22z"/>
		</g>
		<g id="XMLID_8827_">
			<line id="XMLID_8829_" fill="#FFFFFF" x1="18.6" y1="25.7" x2="13.6" y2="23.6"/>
			<path id="XMLID_8828_" fill="#231815" d="M18.2,26.6c0.5,0.2,1.1,0,1.3-0.6c0.2-0.5,0-1.1-0.6-1.4l-4.9-2.1
				c-0.5-0.2-1.2,0-1.4,0.6c-0.2,0.5,0,1.1,0.6,1.4L18.2,26.6C18.2,26.6,18.2,26.6,18.2,26.6z"/>
		</g>
		<g id="XMLID_8824_">
			<path id="XMLID_8826_" fill="#FFFFFF" d="M28.3,16.6c0,0,0.1,1.1-1.2,1.9"/>
			<path id="XMLID_8825_" fill="#231815" d="M26.8,19.2c0.2,0.1,0.5,0.1,0.7-0.1c1.4-0.8,1.6-2.1,1.5-2.7c0-0.4-0.4-0.7-0.9-0.7
				c-0.4,0-0.7,0.4-0.7,0.9c0,0.1,0,0.7-0.8,1.2c-0.4,0.2-0.5,0.7-0.3,1.1C26.5,19.1,26.7,19.2,26.8,19.2z"/>
		</g>
		<g id="XMLID_8821_">
			<path id="XMLID_8823_" fill="#FFFFFF" d="M26.4,21.3c0,0,0.2,1.5-1.2,2.4"/>
			<path id="XMLID_8822_" fill="#231815" d="M24.9,24.5c0.2,0.1,0.5,0.1,0.7-0.1c1.8-1.1,1.6-3.1,1.5-3.2c-0.1-0.4-0.5-0.7-0.9-0.7
				c-0.4,0.1-0.7,0.4-0.7,0.9c0,0.1,0.1,1.1-0.8,1.6c-0.4,0.2-0.5,0.7-0.3,1.1C24.6,24.3,24.8,24.4,24.9,24.5z"/>
		</g>
		<g id="XMLID_8818_">
			<path id="XMLID_8820_" fill="#FFFFFF" d="M24.1,26.8c0,0,0.3,1.5-1.6,2.5"/>
			<path id="XMLID_8819_" fill="#231815" d="M22.2,30c0.2,0.1,0.4,0.1,0.6,0c2.4-1.2,2.1-3.2,2.1-3.3c-0.1-0.4-0.5-0.7-0.9-0.6
				c-0.4,0.1-0.7,0.5-0.6,0.9c0,0.1,0.1,1-1.2,1.7c-0.4,0.2-0.5,0.7-0.3,1.1C21.8,29.8,22,29.9,22.2,30z"/>
		</g>
		<g id="XMLID_8813_">
			
				<ellipse id="XMLID_8817_" transform="matrix(-0.9396 -0.3423 0.3423 -0.9396 101.2154 79.7155)" fill="#FFFFFF" cx="57.6" cy="30.9" rx="7" ry="12"/>
			<path id="XMLID_8814_" fill="#231815" d="M50,28.2c2.5-6.9,7.8-11,12.1-9.5s5.7,8.1,3.2,15c-2.5,6.9-7.8,11-12.1,9.5
				S47.5,35,50,28.2z M52,28.9c-2,5.6-1.2,11.2,1.9,12.3s7.3-2.6,9.4-8.2s1.2-11.2-1.9-12.3C58.3,19.6,54,23.3,52,28.9z"/>
		</g>
		
			<ellipse id="XMLID_8812_" transform="matrix(-0.9396 -0.3423 0.3423 -0.9396 101.2154 79.7155)" fill="#7C1B00" cx="57.6" cy="30.9" rx="3.7" ry="7"/>
	</g>
	<path id="XMLID_31_" d="M6,1.9c0.4,0,0.7,0,1.2,0.1l19,10.4l-3.3,1.2l-4.6-0.5L1.9,7.6C1.9,7.6,1.7,1.9,6,1.9 M6,0L6,0
		C4.4,0,3,0.6,2,1.6c-2.1,2.2-2,5.6-2,6c0,0.8,0.5,1.5,1.3,1.7L17.7,15c0.1,0,0.3,0.1,0.4,0.1l4.6,0.5c0.1,0,0.1,0,0.2,0
		c0.2,0,0.5,0,0.7-0.1l3.3-1.2c0.7-0.3,1.2-0.9,1.2-1.6c0.1-0.7-0.3-1.4-1-1.8L8,0.4C7.9,0.3,7.7,0.2,7.5,0.2C7,0.1,6.4,0,6,0L6,0z"
		/>
	<path id="XMLID_8805_" fill="#FFFFFF" d="M21.7,15.4c-2.6-1.4-4.8-2.4-6.3-3.1c-2.2-0.9-4.2-1.6-8.1-2.9C5,8.6,3.2,8,1.9,7.6
		C1.6,5.1,2.7,3,4.4,2.2C5.1,1.8,6,1.7,7.1,2c3.5,1.7,6.2,3.2,8.2,4.3C18.5,8,20,9,22.9,10.4c2.7,1.4,5,2.3,6.6,3
		c-1.5,1.1-3,2.3-4.5,3.4L21.7,15.4z"/>
</g>
<g>
</g>
<g>
</g>
<g>
</g>
<g>
</g>
<g>
</g>
<g>
</g>
<g>
</g>
<g>
</g>
<g>
</g>
<g>
</g>
<g>
</g>
<g>
</g>
<g>
</g>
<g>
</g>
<g>
</g>
</svg>
