<?xml version="1.0" encoding="utf-8"?>
<!-- Generator: Adobe Illustrator 18.1.1, SVG Export Plug-In . SVG Version: 6.00 Build 0)  -->
<!DOCTYPE svg PUBLIC "-//W3C//DTD SVG 1.1//EN" "http://www.w3.org/Graphics/SVG/1.1/DTD/svg11.dtd">
<svg version="1.1" id="Layer_1" xmlns="http://www.w3.org/2000/svg" xmlns:xlink="http://www.w3.org/1999/xlink" x="0px" y="0px"
	 viewBox="0 0 158.7 31.5" enable-background="new 0 0 158.7 31.5" xml:space="preserve">
<g id="XMLID_8807_">
	<path id="XMLID_8903_" fill="#FFFFFF" d="M108.8,23V2.8h-2.3v19.9c0,4.2,2.2,6.6,6.1,6.6l0.8,0v-2.1l-0.8,0
		C109.8,27,108.9,25.3,108.8,23z"/>
	<path id="XMLID_8900_" fill="#FFFFFF" d="M124.7,10.1c-5.4,0-9.7,4.3-9.7,9.7c0,5.4,4.3,9.7,9.7,9.7c3,0,6.6-2.3,7.6-4.5v4.2h2.1
		l0-9.5C134.5,14.5,130.1,10.1,124.7,10.1z M124.7,27.3c-4.1,0-7.5-3.4-7.5-7.5c0-4.1,3.4-7.5,7.5-7.5c4.1,0,7.5,3.4,7.5,7.5
		C132.2,24,128.9,27.3,124.7,27.3z"/>
	<rect id="XMLID_8891_" x="91.9" y="18.7" fill="#FFFFFF" width="8.3" height="2.4"/>
	<path id="XMLID_8886_" fill="#FFFFFF" d="M149,10.1c-3.1,0-6.2,1.5-7.5,4.1V3.3h-2.1v26h2.1v-4c1.8,2.8,4.5,4.3,7.5,4.3
		c5.4,0,9.7-4.3,9.7-9.7C158.7,14.5,154.4,10.1,149,10.1z M149,27.3c-4.1,0-7.5-3.4-7.5-7.5c0-4.1,3.4-7.5,7.5-7.5
		c4.1,0,7.5,3.4,7.5,7.5C156.5,24,153.1,27.3,149,27.3z"/>
	<path id="XMLID_8872_" fill="#FFFFFF" d="M86,19.8c0-5.3-4.4-9.7-9.7-9.7c-5.4,0-9.7,4.4-9.7,9.7l0,0c0,5.4,4.3,9.7,9.7,9.7
		c3.8,0,7.3-2.1,8.9-5.3h-2.7c-1.4,1.9-3.8,3-6.2,3c-3.7,0-7.1-2.2-7.5-6h17.1C86,20.7,86,20.2,86,19.8L86,19.8z M76.3,12.3
		c3.7,0,6.8,2.7,7.4,6.3H68.9C69.5,15.1,72.6,12.3,76.3,12.3z"/>
	<path id="XMLID_8846_" fill="#FFFFFF" d="M63.9,10.9c0-4.8-3.2-8.5-8.7-8.7c0,0,0,0,0,0l-9.2,0v27h2.2v-9.7l6.3,0
		c0.1,0,0.4,0.1,0.5,0.2c0.2,0.4,0,0.1,6.1,9.4h2.6c0,0-6.3-9.7-6.3-9.8c0-0.1-0.1-0.1,0-0.2l0,0C61.5,18.4,63.9,15,63.9,10.9z
		 M48.3,4.3l6.2,0c0,0,0,0,0.1,0c5.2,0.1,7.2,3.1,7.2,6.6c0,3.7-2.4,6.4-7,6.5h0l0,0h-6.4L48.3,4.3z"/>
	<g id="XMLID_8809_">
		<path id="XMLID_8845_" fill="#FFFFFF" d="M26,6.4c0.7-0.8,2-0.9,2.8-0.1c0.8,0.7,0.9,2,0.1,2.8c-0.7,0.8-2,0.9-2.8,0.1
			C25.3,8.5,25.2,7.2,26,6.4z"/>
		<path id="XMLID_8842_" fill="#FFFFFF" d="M31,10.9l-6.2,6.2l3.2,0.6c-0.9,5.9-6,10.4-12.2,10.4c-6.8,0-12.3-5.5-12.3-12.3
			c0-6.8,5.5-12.3,12.3-12.3c2.3,0,4.4,0.6,6.2,1.7c0.2,0.1,0.5,0.2,0.8,0.2c0.9,0,1.7-0.8,1.7-1.7c0-0.6-0.3-1.2-0.8-1.5v0
			c0,0,0,0,0,0c0,0-0.1,0-0.1-0.1c-2.3-1.3-5-2.1-7.9-2.1C7,0,0,7,0,15.7c0,8.7,7,15.7,15.7,15.7c7.8,0,14.3-5.7,15.5-13.1l3.1,0.6
			L31,10.9z"/>
	</g>
</g>
<g>
</g>
<g>
</g>
<g>
</g>
<g>
</g>
<g>
</g>
<g>
</g>
<g>
</g>
<g>
</g>
<g>
</g>
<g>
</g>
<g>
</g>
<g>
</g>
<g>
</g>
<g>
</g>
<g>
</g>
</svg>
