<?xml version="1.0" encoding="utf-8"?>
<!-- Generator: Adobe Illustrator 18.1.1, SVG Export Plug-In . SVG Version: 6.00 Build 0)  -->
<!DOCTYPE svg PUBLIC "-//W3C//DTD SVG 1.1//EN" "http://www.w3.org/Graphics/SVG/1.1/DTD/svg11.dtd">
<svg version="1.1" id="Layer_1" xmlns="http://www.w3.org/2000/svg" xmlns:xlink="http://www.w3.org/1999/xlink" x="0px" y="0px"
	 viewBox="0 0 537.9 67.7" enable-background="new 0 0 537.9 67.7" xml:space="preserve">
<g id="XMLID_8841_">
	<path fill="#FFFFFF" d="M15.3,2.9v10.2h-2.2V0.7h8.1v2.3H15.3z"/>
	<path fill="#FFFFFF" d="M33,4.9V1.2l2.1,0.2c0.4,0.1,0.6,0.2,0.6,0.3c0,0.1-0.1,0.3-0.4,0.5v2.7h4.3v2.2h-3.9
		c0.7,1.1,1.2,1.9,1.6,2.3c0.6,0.7,1.3,1.3,2.2,1.8L37.6,13c-0.7-0.8-1.3-1.7-1.7-2.5c-0.2-0.3-0.4-0.7-0.5-1v7.2H33V9.7
		c-0.2,0.3-0.3,0.7-0.4,0.9c-0.6,1.2-1.4,2.6-2.5,4.1l-2.2-1.6c1.2-1.2,2.2-2.4,2.9-3.5c0.5-0.7,1-1.6,1.6-2.6h-3.9V4.9H33z
		 M32.7,18c0.3,0.1,0.5,0.2,0.5,0.4c0,0.2-0.2,0.4-0.5,0.5c-0.7,2.4-1.5,4.4-2.4,6.1L28,23.6c1-1.8,1.9-4,2.7-6.6L32.7,18z
		 M36.9,17.3c0.3,0.1,0.5,0.2,0.5,0.4c0,0.2-0.2,0.5-0.5,0.8c-0.3,0.2-0.4,0.5-0.4,0.9v1.3c0,0.7,0.1,1.3,0.3,1.7
		c0.2,0.3,0.7,0.5,1.4,0.5h5.9c0.8,0,1.3-0.1,1.7-0.4c0.4-0.2,0.8-0.9,1-2l2.1,0.9c-0.8-1.1-1.6-2-2.5-2.9l1.6-1.3
		c1.4,1.2,2.7,2.8,4.1,4.7l-2,1.3c-0.4-0.6-0.7-1.1-1-1.6c-0.4,1.4-0.9,2.3-1.5,2.8c-0.5,0.4-1.2,0.6-1.9,0.6h-8.3
		c-1.1,0-1.9-0.3-2.4-1c-0.5-0.6-0.7-1.5-0.7-2.7V17L36.9,17.3z M45.2,20.4l-1.9,1.3c-1.5-1.4-3.2-2.5-5-3.5l1.5-1.2
		C41.6,17.9,43.5,19,45.2,20.4z M51.2,2.1v14.3H49v-1.2h-6.8v1.2h-2.2V2.1H51.2z M49,5.9V4.2h-6.8v1.7H49z M49,9.5V7.8h-6.8v1.8H49z
		 M49,13.2v-1.8h-6.8v1.8H49z"/>
	<path fill="#FFFFFF" d="M62.7,5.3v2h-7.6v-2H62.7z M62.4,15.9v4.3c1.4-0.4,2.6-0.8,3.6-1.3c0.3-0.1,0.7-0.3,1-0.5h-3.9v-1.9h3.2v-1
		h-2.5v-1.7h2.5v-1h-3.1v-1.8h3.1V9.8h-2.9V5.4h6.7v4.4h-1.7v0.9h4.3V9.8h-1.7V5.4h6.7v4.4H75v0.9h3.2v1.8H75v1h2.7v1.7H75v1h3.7
		v1.9h-7c0.5,0.8,1.1,1.4,1.7,2c0.1,0.1,0.2,0.2,0.3,0.3c1.2-0.7,2.2-1.4,3.1-2.2l1.4,1.4c0.1,0.1,0.1,0.2,0.1,0.3
		c0,0.2-0.2,0.2-0.6,0.2c-0.8,0.4-1.6,0.8-2.4,1.3c0.3,0.2,0.5,0.3,0.8,0.4c1.1,0.4,2.1,0.7,3.1,0.8l-1.7,2c-0.4,0-1.3-0.3-2.6-1
		c-1.5-0.8-2.5-1.5-3.2-2.3c-0.8-0.8-1.6-1.8-2.3-3.1c-0.5,0.4-1,0.8-1.4,1.1v2.5c1-0.2,2.1-0.3,3.1-0.6v1.7
		c-1.3,0.4-3.5,0.8-6.4,1.4c-0.2,0.2-0.3,0.3-0.5,0.3c-0.2,0-0.3-0.1-0.3-0.3l-0.5-2c0.8-0.1,1.6-0.2,2.4-0.3v-1.6
		c-0.8,0.4-1.7,0.8-2.7,1.1l-1-0.9v3.4h-2.2v-1.1h-2.7v1.5h-2.2v-9H62.4z M62.2,8.9v2h-6.7v-2H62.2z M62.2,12.4v1.9h-6.7v-1.9H62.2z
		 M62,1.9v1.9h-6.4V1.9H62z M60.3,21.4v-3.5h-2.7v3.5H60.3z M71.9,1.3c0.4,0.1,0.6,0.2,0.6,0.3c0,0.1-0.1,0.3-0.4,0.5v0.5h6.7v1.8
		H63.1V2.6h6.7V1.1L71.9,1.3z M68.1,7.2h-2.5v0.9h2.5V7.2z M72.8,12.6h-4.3v1h4.3V12.6z M72.8,15.3h-4.3v1h4.3V15.3z M75.8,7.2h-2.7
		v0.9h2.7V7.2z"/>
	<path fill="#FFFFFF" d="M105.6,11v2.4H82V11H105.6z"/>
	<path fill="#FFFFFF" d="M116.1,1.6c0.2,0.1,0.3,0.2,0.3,0.3c0,0.1-0.2,0.3-0.6,0.5c-0.6,1.6-1.2,3.1-1.8,4.6v18.1h-2.3v-14
		c-0.4,0.6-0.8,1.2-1.2,1.8l-2.2-1.4c2.5-2.7,4.4-6.2,5.7-10.6L116.1,1.6z M117.5,6.3c0.4,0,0.6,0.1,0.6,0.3c0,0.1-0.2,0.3-0.4,0.5
		v12.3h-2V6.1L117.5,6.3z M124.6,15.2v-2.4l2.1,0.2c0.4,0,0.6,0.1,0.6,0.3c0,0.1-0.2,0.3-0.4,0.5v1.3h5.3v2h-5
		c0.8,1.1,1.6,1.9,2.3,2.5c0.9,0.7,2.1,1.4,3.5,2.2l-1.8,2c-1.3-0.9-2.5-1.8-3.4-2.8c-0.4-0.4-0.7-0.8-1-1.3v4.3h-2.3v-4.5
		c-0.5,0.6-1,1.2-1.5,1.6c-0.9,0.9-2.2,1.9-3.9,2.9l-1.8-1.9c1.5-0.6,2.8-1.3,3.9-2.2c0.8-0.6,1.7-1.5,2.7-2.7H119v-2H124.6z
		 M125,1.6c0.2,0.1,0.3,0.2,0.3,0.3c0,0.1-0.2,0.2-0.7,0.3c-0.2,0.6-0.5,1.1-0.7,1.5h8.5v2h-0.6c-0.3,1.4-0.9,2.6-1.7,3.5
		c-0.4,0.5-0.9,0.9-1.4,1.2c1.2,0.5,2.6,1,4.2,1.4l-1.5,1.9c-1.9-0.7-3.4-1.3-4.7-2c-0.1,0.1-0.2,0.1-0.3,0.2
		c-1.5,0.7-3.5,1.3-6,1.9l-2.2-1.8c2.8-0.4,4.8-0.9,6.1-1.5c0.1,0,0.2-0.1,0.3-0.1c-1.2-0.8-2.2-1.9-3.1-3.3
		c-0.6,0.7-1.2,1.3-1.8,1.8l-1.9-1.2c1.2-0.9,2.2-1.9,2.9-2.9c0.7-1,1.4-2.3,2.1-3.9L125,1.6z M125.8,8.9c0.3,0.2,0.6,0.4,0.9,0.6
		c0.5-0.3,0.9-0.6,1.2-1c0.8-0.7,1.3-1.6,1.6-2.7H123C123.8,7.1,124.7,8.1,125.8,8.9z"/>
	<path fill="#FFFFFF" d="M141.2,11.3l-1.5,1.7c-1.2-1.1-2.6-2.1-4-3l1.7-1.6C138.9,9.2,140.2,10.2,141.2,11.3z M142.6,17.4
		c-1.4,2.4-2.8,4.6-4.3,6.6c0,0.6-0.2,0.8-0.5,0.8l-2-1.7c2-2.3,3.8-4.8,5.3-7.6L142.6,17.4z M143.3,4.3l-1.5,1.6
		c-1.3-1.1-2.6-2.1-4.1-3l1.6-1.7C140.9,2.3,142.2,3.3,143.3,4.3z M149.8,5.8V1.3l2.2,0.2c0.4,0.1,0.6,0.2,0.6,0.3
		c0,0.1-0.2,0.3-0.4,0.6v3.4h5.7V8h-5.7v4.2h7.2v2.2h-16.7v-2.2h7.2V8h-5.6V5.8H149.8z M151,15.6c0.3,0.1,0.5,0.2,0.5,0.3
		s-0.2,0.3-0.4,0.5c-0.8,1.7-1.6,3.3-2.6,4.7c2.1-0.2,4.2-0.4,6.2-0.7c-0.7-0.9-1.3-1.8-2-2.6l1.6-1.3c1.8,1.8,3.5,4.2,5.2,7.1
		l-2.2,1.4c-0.5-0.9-1-1.8-1.4-2.6c-2.6,0.4-6.5,0.9-11.5,1.5c-0.2,0.3-0.3,0.5-0.5,0.5c-0.2,0-0.3-0.2-0.3-0.4l-0.6-2.5
		c0.8-0.1,1.6-0.1,2.4-0.2c1.5-1.8,2.7-4,3.7-6.4L151,15.6z"/>
	<path fill="#FFFFFF" d="M173.5,16.8v-2.3l2.1,0.2c0.4,0,0.6,0.1,0.6,0.3c0,0.1-0.2,0.3-0.4,0.5v1.2h10.5v2h-9.5
		c1.2,0.7,2.4,1.3,3.6,1.8c1.4,0.6,3.4,1.1,6,1.6l-2.4,2.2c-2.2-0.7-3.8-1.4-5.1-2c-1.1-0.6-2.1-1.2-3.1-2v3.7h-2.3v-3.7
		c-1.2,0.9-2.4,1.7-3.5,2.3c-1.4,0.7-3.1,1.3-5.1,1.8l-1.9-1.9c2.4-0.5,4.5-1.2,6.3-1.9c1-0.4,2.1-1,3.2-1.7h-9.6v-2H173.5z
		 M175.5,1.1c0.4,0.1,0.6,0.2,0.6,0.3c0,0.2-0.2,0.4-0.4,0.6v1.1h10.1V9h-2.4V5.1H174l0.8,0.4c0.2,0.1,0.3,0.1,0.3,0.2
		c0,0.1-0.2,0.3-0.5,0.4c-0.3,0.4-0.5,0.8-0.7,1.1h8.2v1.8h-2.4c-0.4,1-0.9,1.8-1.5,2.5c0.1,0.1,0.2,0.1,0.3,0.1
		c1.7,0.6,3.3,1.4,4.9,2.2l-1.6,1.6c-1.9-1-3.6-1.8-5.1-2.3c-0.1,0-0.1-0.1-0.2-0.1c-1,0.6-2.2,1.1-3.5,1.4
		c-1.7,0.4-3.9,0.7-6.7,0.9l-0.9-1.9c2.6,0,4.6-0.1,6-0.4c1-0.2,1.8-0.4,2.6-0.7c-1-0.3-2-0.5-3.2-0.7c-0.3,0.4-0.7,0.8-1,1.1
		l-1.9-0.7c0.9-1,1.8-1.9,2.4-2.8h-3.3V7.3h4.6c0.5-0.7,0.9-1.4,1.3-2.2h-7.1V9h-2.4V3.2h10.1V0.9L175.5,1.1z M177.5,9.1h-4.9
		c-0.2,0.3-0.4,0.6-0.6,0.8c1.5,0.3,2.9,0.6,4.1,1C176.6,10.4,177.1,9.8,177.5,9.1z"/>
	<path fill="#FFFFFF" d="M195.2,11.3l-1.5,1.7c-1.3-1-2.7-2-4.1-2.9l1.7-1.6C192.8,9.3,194.1,10.3,195.2,11.3z M196.5,16.8
		c-1.4,2.6-2.9,5-4.4,7.3c0,0.6-0.2,0.8-0.5,0.8l-2-1.7c2-2.4,3.8-5.1,5.4-8.2L196.5,16.8z M196.3,3.8l-1.5,1.7
		c-1.2-0.9-2.5-1.7-3.9-2.4l1.7-1.7C193.9,2.1,195.2,2.9,196.3,3.8z M210.1,3.7c-1.3,0.3-2.6,0.5-3.9,0.7v4.1h7v2.2h-7V14h5.3v10.5
		h-2.4V23h-8.4v1.7h-2.4V14h5.3v-3.4h-7.5V8.5h7.5V4.8c-1.7,0.2-3.3,0.4-5,0.6l-1.5-2c2.7-0.1,5-0.3,6.9-0.6
		c1.7-0.2,3.8-0.6,6.4-1.2l1.6,1.6c0.1,0.1,0.2,0.2,0.2,0.4c0,0.2-0.1,0.2-0.3,0.2l-0.6-0.1C210.9,3.5,210.6,3.6,210.1,3.7z
		 M209.2,20.9v-4.7h-8.4v4.7H209.2z"/>
	<path fill="#FFFFFF" d="M226.9,7.9V5.9l2.1,0.2c0.4,0,0.6,0.1,0.6,0.3c0,0.1-0.1,0.3-0.4,0.5v0.9h4.8v1.8c1-0.7,2-1.4,2.9-2.3
		l1.7,0.7c0.3,0.1,0.5,0.3,0.5,0.5c0,0.2-0.2,0.2-0.5,0.3c-1.2,1-2.4,1.9-3.6,2.7h4.8v2h-8.3c-0.5,0.3-1,0.5-1.5,0.7
		c-0.8,0.4-1.7,0.7-2.7,1h9.2v9.6h-2.4v-1.1h-10.2v1.1h-2.4v-8c-1.3,0.3-2.7,0.6-4.1,0.9l-1.4-2.2c3.3-0.4,6.6-1.1,9.7-2.2h-8.9v-2
		h10.1V9.8h-6.6v-2H226.9z M223.2,3.1V1l2.2,0.2c0.4,0.1,0.6,0.2,0.6,0.3c0,0.1-0.2,0.3-0.4,0.6v0.9h5.2V1l2.2,0.2
		c0.4,0.1,0.6,0.2,0.6,0.3c0,0.1-0.2,0.3-0.4,0.6v0.9h6.9v1.8h-6.9v1.7h-2.4V4.9h-5.2v1.7h-2.4V4.9h-6.6V3.1H223.2z M234.1,18.7
		v-1.6h-10.2v1.6H234.1z M234.1,21.9v-1.4h-10.2v1.4H234.1z M233.7,9.8h-4.5v1.6h1.7C231.8,11,232.8,10.4,233.7,9.8z"/>
	<path fill="#FFFFFF" d="M249.2,12.4v7.6c0.5,1,1.3,1.7,2.3,2c1.2,0.4,3,0.7,5.6,0.7c3.8,0,7.2-0.1,10.3-0.3l-0.8,2.6h-9.5
		c-2.2,0-3.9-0.2-5.2-0.5c-1.4-0.4-2.5-0.9-3.3-1.8c-0.4-0.3-0.7-0.7-0.9-1.2l-2.5,2.9c-0.2,0.3-0.3,0.4-0.4,0.4
		c-0.2,0-0.3-0.1-0.4-0.3l-1.3-1.8c1.4-0.9,2.7-1.9,3.7-2.9v-5.2h-2.2v-2H249.2z M249.3,8.9l-1.5,1.7c-1.4-1-2.8-1.9-4.4-2.7
		l1.7-1.6C246.7,7.1,248.2,8,249.3,8.9z M250.4,4.2l-1.5,1.6c-1.3-1-2.7-1.9-4.2-2.8l1.7-1.7C247.9,2.3,249.2,3.2,250.4,4.2z
		 M264.4,1.7v7.8h2.3v9.3c0,1.1-0.6,1.9-1.8,2.2c-0.9,0.3-1.9,0.4-2.8,0.4l-0.9-2.3l2.3-0.1c0.6,0,1-0.3,1-1v-6.7h-11v9.4h-2.3V9.5
		h2.4V1.7H264.4z M257.3,19.8h-2v-6.6h7.1v5.1h-5.1V19.8z M257.6,9.5v-4h4.6V3.7h-6.6v5.9H257.6z M257.3,16.6h3.2v-1.8h-3.2V16.6z
		 M262.3,9.5V7.4h-2.6v2.2H262.3z"/>
	<path fill="#FFFFFF" d="M293.8,21.2v2.4h-23.4v-2.4H293.8z M292.5,3.2v2.3h-20.6V3.2H292.5z M291,11.8V14h-17.5v-2.3H291z"/>
	<path fill="#FFFFFF" d="M305.5,5.4v2h-8.3v-2H305.5z M304.9,9v1.9h-7.3V9H304.9z M304.9,12.5v1.9h-7.3v-1.9H304.9z M305,16v8.5
		h-2.2v-1.1h-3.1v1.5h-2.2V16H305z M304.7,2V4h-7V2H304.7z M302.8,21.4V18h-3.1v3.4H302.8z M320,13v9.3h-3.9
		c1.5,0.4,3.3,0.7,5.3,0.9l-1.8,1.7c-2.4-0.6-4.3-1.2-5.5-1.8l1.4-0.8h-4.2l1.2,0.7c0.2,0.1,0.2,0.2,0.2,0.3c0,0.2-0.1,0.3-0.3,0.3
		c-1.2,0.4-3,0.9-5.3,1.4l-1.8-1.4c1.8-0.4,3.5-0.8,5.1-1.3h-4.2V13H320z M320.7,7.5v4.7h-15.1V7.5H320.7z M312,2.4V1.2l2.1,0.2
		c0.4,0.1,0.6,0.2,0.6,0.3c0,0.1-0.1,0.3-0.4,0.5v0.2h6.5v1.8h-6.5V5h5.9v1.6h-13.9V5h5.7V4.2h-6.2V2.4H312z M309.9,9.1h-2.2v1.4
		h2.2V9.1z M317.8,15.7v-0.9h-9.3v0.9H317.8z M317.8,18.1v-0.9h-9.3v0.9H317.8z M317.8,19.7h-9.3v0.9h9.3V19.7z M314.3,9.1H312v1.4
		h2.4V9.1z M318.5,9.1h-2.2v1.4h2.2V9.1z"/>
	<path fill="#FFFFFF" d="M335.4,20.4l-0.9-1.1c0.9-0.7,1.4-1.5,1.5-2.4h-1.8v-3.4h3.4v2.9C337.6,17.9,336.8,19.3,335.4,20.4z"/>
	<path fill="#FFFFFF" d="M361.5,3.3V1.1l2.1,0.2c0.4,0.1,0.6,0.2,0.6,0.3c0,0.1-0.1,0.3-0.4,0.5v1.1h9.2v2h-9.2v1.5h7.6v11.9h3.2v2
		H351v-2h3.3V6.8h7.3V5.3h-8.9v-2H361.5z M359.8,21.9c0.3,0.1,0.4,0.2,0.4,0.3c0,0.1-0.1,0.2-0.2,0.3c-0.3,0-0.8,0.2-1.6,0.7
		c-1.3,0.6-2.8,1.2-4.6,1.8l-2.2-1.2c2.5-0.7,4.6-1.6,6.1-2.6L359.8,21.9z M369.1,10.1V8.9h-12.6v1.2H369.1z M369.1,13v-1.2h-12.6
		V13H369.1z M369.1,15.9v-1.2h-12.6v1.2H369.1z M369.1,18.7v-1.2h-12.6v1.2H369.1z M373.8,23.5l-2.2,1.4c-1.9-0.9-4-1.7-6.4-2.4
		l1.7-1.3C369.3,21.8,371.6,22.5,373.8,23.5z"/>
	<path fill="#FFFFFF" d="M385.6,2.3c0.2,0.1,0.4,0.2,0.4,0.3c0,0.2-0.2,0.4-0.4,0.5l-1.4,2.2h4.3V24h-2.3v-1.7h-5.5v1.7h-2.3V5.2
		h3.4l1.8-3.5L385.6,2.3z M386.2,12.4V7.3h-5.5v5.1H386.2z M386.2,20.3v-5.9h-5.5v5.9H386.2z M394.7,2c0.3,0.1,0.4,0.2,0.4,0.3
		c0,0.1-0.1,0.2-0.2,0.3c-0.2,0.1-0.6,0.8-1,2.3c-0.1,0.1-0.1,0.2-0.1,0.3h7.3c0,7.7-0.2,12.5-0.6,14.5c-0.3,1.9-0.8,3.2-1.7,4
		c-0.9,0.8-2.4,1.2-4.6,1.2l-1.1-2.4c2.3,0,3.7-0.2,4.2-0.7c0.4-0.3,0.7-1.2,1-2.5c0.3-1.5,0.5-5.4,0.6-11.9h-5.9
		c-0.6,1.4-1.3,2.7-2,3.9l-2.3-1.2c1.6-2.4,3-5.2,4-8.6L394.7,2z M396.7,16.3l-1.8,1.6c-1.4-1.7-2.8-3.1-4.2-4.1l1.6-1.5
		C393.9,13.4,395.3,14.7,396.7,16.3z"/>
	<path fill="#FFFFFF" d="M409.6,4.2v-3l2.1,0.2c0.4,0.1,0.6,0.2,0.6,0.3c0,0.1-0.1,0.3-0.4,0.5v2h4.2v2.2h-4.2v2.9h4.7v0.6
		c1-0.6,1.7-1.4,2.2-2.2c0.6-0.8,1-2,1.2-3.5h-3.5v-2h11.7c-0.1,2.5-0.2,4.3-0.5,5.5c-0.2,1.2-0.6,2-1.2,2.5
		c-0.5,0.4-1.6,0.7-3.1,0.9l-1.2-2.2l1.9-0.3c0.8-0.1,1.3-0.6,1.5-1.3c0.2-0.7,0.3-1.7,0.3-3.1h-3.6c-0.3,1.8-0.7,3.3-1.4,4.4
		c-0.6,1-1.4,1.9-2.5,2.7h9.2v9.9h-2.3v-1.4h-5.9v1.5h-2.3V11.4h0.4l-1-0.7v0.7h-3.8v3.2h3.4v2.2h-3.4v4.4c0.7,0.3,1.5,0.5,2.4,0.6
		c1.8,0.4,5.3,0.5,10.7,0.5h2.9l-1,2.4c-4.4,0-7.8-0.1-10.1-0.3c-1.9-0.2-3.5-0.4-4.8-0.8c-1.5-0.4-2.7-1-3.8-1.9
		c-0.4-0.3-0.8-0.7-1.3-1.2c0,0.1-0.1,0.2-0.1,0.3c-0.3,1.6-0.7,2.9-1.2,4.2l-2.2-1.4c0.6-1.2,1-2.7,1.4-4.6
		c0.3-1.4,0.5-3.4,0.8-6.1l2.2,0.5c0.3,0.1,0.4,0.2,0.4,0.3c0,0.2-0.2,0.4-0.5,0.6c-0.2,1.4-0.3,2.6-0.4,3.6c0.9,1,1.7,1.8,2.4,2.2
		v-8.7h-5.7V9.2h4.8V6.3h-4.3V4.2H409.6z M425.4,17.9v-4.5h-5.9v4.5H425.4z"/>
	<path fill="#FFFFFF" d="M435,16.7c0.2,0.1,0.3,0.1,0.3,0.3c0,0.2-0.2,0.4-0.4,0.6c-0.4,2.2-0.9,4.1-1.5,5.7l-2-0.7
		c0.4-0.8,0.7-1.6,0.9-2.5c0.3-1.2,0.6-2.5,0.8-3.9L435,16.7z M438.3,1.9c0.2,0.1,0.4,0.2,0.4,0.3c0,0.2-0.2,0.4-0.4,0.5l-3.1,4
		c0.6,0.5,1.1,1,1.7,1.4l2.8-3.9l1.7,1.1c0.2,0.1,0.3,0.3,0.3,0.4s-0.2,0.3-0.5,0.3l-5.1,6.4c1.4-0.1,2.8-0.3,4.1-0.5
		c-0.2-0.6-0.4-1.2-0.6-1.8l2-0.4c0.7,1.7,1.2,3.4,1.5,5l-2,0.4c-0.1-0.5-0.3-1-0.4-1.5c-0.8,0.1-1.7,0.3-2.6,0.4v10.7h-2.2V14.5
		c-1,0.2-2.1,0.3-3.2,0.4c-0.2,0.3-0.3,0.4-0.5,0.4c-0.2,0-0.2-0.1-0.2-0.3l-0.5-2.1c0.7-0.1,1.3-0.1,2-0.2l2.1-2.8
		c-1.5-1.3-2.8-2.4-4-3.4l1.2-1.7c0.3,0.2,0.6,0.4,0.8,0.6l3-4.5L438.3,1.9z M441.5,19.8c0.6-1,1-2,1.3-3c0.8-2.6,1.2-5.2,1.2-7.8
		V4.5h-1.7V2.5h8.4l0.6-0.3c0.2,0,0.4,0.1,0.6,0.2l1.3,0.8c0.2,0.1,0.2,0.2,0.2,0.3c0,0.3-0.2,0.5-0.6,0.7L451,9.7h1.9
		c0.2-0.1,0.3-0.2,0.3-0.2c0.2,0,0.3,0.1,0.5,0.2l1.2,1c0.1,0.1,0.2,0.2,0.2,0.4c0,0.2-0.3,0.4-0.7,0.6c-0.9,3.8-2,6.6-3.2,8.2
		c-0.1,0.1-0.2,0.2-0.2,0.3c0.3,0.3,0.7,0.6,1,0.8c0.9,0.7,2.1,1.3,3.6,1.7l-1.8,2c-1.4-0.7-2.7-1.5-3.7-2.4
		c-0.2-0.2-0.4-0.4-0.5-0.5c-1.3,1.2-2.9,2.2-4.7,3l-1.4-1.9c1.4-0.4,2.5-1,3.4-1.5c0.5-0.3,1-0.7,1.4-1.1c-0.4-0.5-0.7-1-0.9-1.5
		c-0.7-1.2-1.2-2.5-1.6-3.9c-0.2,0.8-0.3,1.5-0.6,2.2c-0.8,2.6-1.9,4.9-3.5,6.8l-2.3-1.1c0.7-0.8,1.3-1.7,1.8-2.5l-1.5,0.3
		c-0.3-1.6-0.6-3.1-1-4.4l1.9-0.4C441,17.2,441.3,18.6,441.5,19.8z M448.7,9.7l1.8-5.2h-4.2V9c0,0.3,0,0.5,0,0.7H448.7z M447.5,14.3
		c0.3,1.3,0.8,2.5,1.5,3.6c0.2,0.3,0.3,0.6,0.5,0.8c0.2-0.3,0.3-0.6,0.5-0.8c0.8-1.3,1.5-3.4,2.1-6.1h-5.2
		C447,12.7,447.3,13.5,447.5,14.3z"/>
	<path fill="#FFFFFF" d="M461.2,3.1V1.3l1.9,0.2c0.4,0,0.6,0.1,0.6,0.3c0,0.1-0.2,0.3-0.4,0.5v0.8h3.3V1.4l1.9,0.2
		c0.4,0,0.6,0.1,0.6,0.3c0,0.1-0.2,0.3-0.4,0.5v0.7h2.5v1.8h-2.5v3.3H466v1.1h4.2v5.2H466v1.1h4.5v1.8H466c-0.1,0.4-0.1,0.8-0.2,1.2
		h5.5v1.9h-4.9c0.3,0.3,0.6,0.6,0.9,0.9c0.8,0.7,2,1.3,3.6,1.9l-1.8,1.7c-1.3-0.7-2.4-1.3-3.1-2.1c-0.5-0.5-1-1-1.4-1.6
		c-0.9,1.4-2.2,2.6-3.9,3.7l-2.2-1.1c1.9-1,3.3-2.1,4-3.2c0,0,0-0.1,0.1-0.1h-3.9v-1.9h4.9c0.2-0.4,0.3-0.8,0.3-1.2h-4.5v-1.8h4.6
		v-1.1h-4.2V9.3h4.2V8.2h-2.7V4.9h-2.6V3.1H461.2z M463.9,11h-2.3v1.8h2.3V11z M463.3,6.3h3.3V4.9h-3.3V6.3z M468.4,11H466v1.8h2.4
		V11z M475.6,1.9c0.3,0.1,0.5,0.2,0.5,0.4c0,0.2-0.1,0.3-0.3,0.3c-0.5,1.1-1,2.1-1.4,2.9h2.7l1.3-3.5l1.8,0.4
		c0.2,0.1,0.3,0.2,0.3,0.3c0,0.2-0.1,0.3-0.3,0.4l-1,2.4h2.7v2h-3v3.3h2.8v1.9H479V16h2.9v1.9H479v3.4h3.2v2h-7.9V25h-2.2V8.6
		c-0.3,0.4-0.6,0.7-0.9,1l-1.8-1.4c1.2-1.2,2.1-2.3,2.7-3.4c0.6-0.9,1.2-2.2,1.7-3.6L475.6,1.9z M476.8,7.5h-2.6v3.3h2.6V7.5z
		 M476.8,12.7h-2.6V16h2.6V12.7z M476.8,21.3v-3.4h-2.6v3.4H476.8z"/>
	<path fill="#FFFFFF" d="M498.1,16.8h-1.7l-0.8-13.6h3.3L498.1,16.8z M495.7,22.6v-3.2h3.1v3.2H495.7z"/>
	<path fill="#FFFFFF" d="M516,25.6v-2.3h5.9V13.1h2.2v12.5H516z"/>
	<path fill="#FFFFFF" d="M105.2,44v2.3h-9.8c-0.7,1.7-1.4,3.2-2.1,4.4l1.7,0.1c0.4,0,0.7,0.1,0.7,0.3c0,0.2-0.2,0.4-0.5,0.7v14.4
		h-2.5V51.7c-0.4,0.5-0.7,1-1.1,1.4c-1.9,2.1-4.4,4-7.3,5.6L81.8,57c3.3-1.7,5.7-3.4,7.3-5.1c1.4-1.5,2.6-3.4,3.6-5.7H82.5V44H105.2
		z M105.4,58l-2.3,1.5c-1.8-3.1-3.8-5.8-6-8.1l1.8-1.4C101.1,52.1,103.2,54.8,105.4,58z"/>
	<path fill="#FFFFFF" d="M113.4,48.7v-6.2l2.1,0.2c0.4,0.1,0.6,0.2,0.6,0.3c0,0.1-0.2,0.3-0.4,0.5v5.1h3.8v2.2h-3.4
		c1,2.2,2.2,3.9,3.5,5.3l-1.8,1.9c-0.8-1.2-1.5-2.5-2.2-3.9v11.7h-2.3v-11c-0.2,0.4-0.4,0.9-0.5,1.2c-0.7,1.8-1.6,3.4-2.5,5
		l-2.4-1.5c1.2-1.3,2.2-2.8,3.1-4.3c0.6-1,1.2-2.4,2-4.4h-4v-2.2H113.4z M131.9,44v21.7h-2.3v-1.5h-7v1.7h-2.3V44H131.9z
		 M129.6,49.9v-3.8h-7v3.8H129.6z M129.6,56v-3.9h-7V56H129.6z M129.6,62v-3.9h-7V62H129.6z"/>
	<path fill="#FFFFFF" d="M143.1,43.9c0.2,0.1,0.3,0.2,0.3,0.3c0,0.3-0.2,0.5-0.6,0.6c-0.7,1.6-1.3,3-1.8,4.3v17.2h-2.3v-13
		c-0.5,0.9-1.1,1.8-1.8,2.7l-1.7-1.7c1.3-1.7,2.3-3.5,3.2-5.3c0.8-1.6,1.7-3.6,2.5-6L143.1,43.9z M159,47.4v2.3h-16.7v-2.3H159z
		 M157.8,58.1V66h-2.3v-0.8h-10.2V66h-2.2v-7.9H157.8z M156.9,51v2h-13v-2H156.9z M157,54.5v2h-13.1v-2H157z M156.9,44v2H144v-2
		H156.9z M155.6,63.1v-3h-10.2v3H155.6z"/>
	<path fill="#FFFFFF" d="M178.5,51.3c-0.7,0.7-1.4,1.5-2,2.2c-1,1.2-1.6,2.8-1.6,4.8h-2.4c0-1.6,0.3-3,0.8-4.1
		c0.4-1,1.2-2.1,2.4-3.2c0.8-0.8,1.3-1.7,1.3-2.5c0-0.5-0.2-1-0.6-1.4c-0.4-0.4-1-0.6-1.8-0.6c-1.6,0-2.5,0.9-2.5,2.6h-2.5
		c0.1-1.4,0.5-2.6,1.3-3.4c0.9-0.9,2.1-1.4,3.7-1.4c1.2,0,2.3,0.3,3.3,1c1.1,0.8,1.7,1.9,1.7,3.2C179.5,49.5,179.1,50.4,178.5,51.3z
		 M172.1,63.8v-3.2h3.1v3.2H172.1z"/>
	<path fill="#FFFFFF" d="M212.8,44v2.3h-9.8c-0.7,1.7-1.4,3.2-2.1,4.4l1.7,0.1c0.4,0,0.7,0.1,0.7,0.3c0,0.2-0.2,0.4-0.5,0.7v14.4
		h-2.5V51.7c-0.4,0.5-0.7,1-1.1,1.4c-1.9,2.1-4.4,4-7.3,5.6l-2.4-1.7c3.3-1.7,5.7-3.4,7.3-5.1c1.4-1.5,2.6-3.4,3.6-5.7h-10.2V44
		H212.8z M213,58l-2.3,1.5c-1.8-3.1-3.8-5.8-6-8.1l1.8-1.4C208.7,52.1,210.8,54.8,213,58z"/>
	<path fill="#FFFFFF" d="M222.9,42.7c0.3,0.1,0.4,0.2,0.4,0.3s-0.2,0.4-0.5,0.7c-0.2,1.3-0.3,2.6-0.6,3.8h5.5
		c-0.3,4.5-0.7,7.8-1.5,10c-0.2,0.4-0.3,0.9-0.5,1.2c1,0.8,2,1.6,2.9,2.5l-1.7,1.8c-0.8-0.8-1.5-1.6-2.2-2.2c-0.5,0.7-1,1.3-1.5,1.9
		c-1,1-2.6,2.2-4.7,3.4l-1.9-1.8c1.9-0.9,3.4-1.7,4.3-2.6c0.8-0.6,1.4-1.4,2-2.3c-1-0.7-2-1.2-3.3-1.7c-0.3,0.6-0.5,1.2-0.8,1.8
		l-2.2-0.8c1-2.1,1.7-4,2.2-5.7c0.3-0.9,0.5-2,0.8-3.3h-2.8v-2.2h3.1c0.2-1.6,0.4-3.3,0.6-5.1L222.9,42.7z M225.4,49.7h-3.5
		c-0.2,1.2-0.5,2.4-0.7,3.4c-0.3,0.9-0.5,1.8-0.8,2.7c1.3,0.5,2.4,1,3.5,1.7C224.6,55.7,225.1,53.1,225.4,49.7z M239,45.7v18.2h-2.4
		v-1.7h-5.2v2.6H229V45.7H239z M236.6,60.1V47.9h-5.2v12.2H236.6z"/>
	<path fill="#FFFFFF" d="M251,43.5c0.2,0.1,0.4,0.2,0.4,0.3c0,0.3-0.2,0.5-0.6,0.6c-0.7,1.6-1.4,3-2.1,4.2v17.4h-2.3V52.5
		c-0.6,0.9-1.3,1.8-2,2.7l-1.7-1.8c1.4-1.7,2.6-3.3,3.5-5.1c0.9-1.5,1.8-3.5,2.7-5.8L251,43.5z M256.7,43.6c0.2,0.1,0.3,0.2,0.3,0.4
		c0,0.1-0.3,0.3-0.8,0.4c-0.3,0.9-0.6,1.8-0.9,2.7h8.7l0.6-0.3c0.2,0,0.4,0.1,0.6,0.2l1.4,0.8c0.2,0.1,0.3,0.3,0.3,0.4
		c0,0.3-0.2,0.5-0.6,0.7l-2.3,4.9l-2.2-0.7l1.7-3.9h-9.2c-0.1,0.1-0.1,0.2-0.2,0.3c-0.7,1.4-1.5,2.6-2.4,3.7l-2.2-1.3
		c1.2-1.3,2.1-2.6,2.8-3.9c0.7-1.3,1.3-3,1.9-5.1L256.7,43.6z M254.9,55.1c0.2,0.1,0.3,0.2,0.3,0.3c0,0.2-0.1,0.3-0.3,0.4
		c-0.8,2.5-1.7,4.7-2.7,6.4l-2.3-1c1.2-1.9,2.2-4.2,2.9-7L254.9,55.1z M259.9,50.5c0.3,0.1,0.4,0.2,0.4,0.3c0,0.2-0.2,0.4-0.6,0.7
		v11.5c0,1-0.3,1.8-0.9,2.3c-0.5,0.5-1.9,0.8-4,0.8l-0.9-2.4h2.2c0.8,0,1.2-0.4,1.3-1.1V50.2L259.9,50.5z M266.8,60.6l-2.3,1.5
		c-1-2.5-2.2-4.7-3.4-6.6l1.7-1.4C264.2,55.8,265.5,58,266.8,60.6z"/>
	<path fill="#FFFFFF" d="M279.6,48.1c0.3,0.1,0.4,0.2,0.4,0.3c0,0.2-0.2,0.3-0.5,0.5l-0.9,1.8h2.9v2h-4.4v2.2h4.1v2h-3.4
		c0.4,0.7,0.8,1.2,1.1,1.6c0.6,0.6,1.4,1.3,2.3,2l-1.7,1.8c-0.8-0.8-1.5-1.6-2.1-2.5c-0.1-0.2-0.3-0.4-0.4-0.6v7h-2.3v-6.3
		c-0.2,0.4-0.4,0.8-0.6,1c-0.6,1-1.5,2.1-2.7,3.2l-1.7-2c1.1-0.7,2-1.5,2.7-2.5c0.5-0.6,1-1.5,1.7-2.7h-3.6v-2h4.2v-2.2h-4.5v-2h6.1
		l1.5-3L279.6,48.1z M276.8,42.6c0.4,0.1,0.6,0.2,0.6,0.3c0,0.1-0.2,0.3-0.4,0.6v1.7h4.1v2h-10.4v-2h4v-2.8L276.8,42.6z M275,50.1
		l-1.9,0.4c-0.3-0.9-0.8-1.8-1.2-2.6l1.9-0.4C274.3,48.5,274.7,49.3,275,50.1z M292.2,43.3V58h-2.4V63c0,0.6,0.2,0.8,0.7,0.8h0.5
		c0.3,0,0.6-0.1,0.8-0.4c0.2-0.2,0.3-0.9,0.4-2.2l2.2,0.6c-0.2,1.6-0.6,2.7-1,3.2c-0.5,0.5-1,0.8-1.8,0.8h-1.7
		c-1.6,0-2.4-0.6-2.4-1.7V58h-1.4c-0.2,2.1-0.6,3.6-1.2,4.6c-0.9,1.4-2.4,2.5-4.5,3.4l-1.7-1.8c2.1-0.8,3.6-1.8,4.3-2.8
		c0.5-0.8,0.8-1.9,0.9-3.4h-1.9V43.3H292.2z M290,47.6v-2.3h-5.4v2.3H290z M290,51.8v-2.3h-5.4v2.3H290z M290,53.7h-5.4V56h5.4V53.7
		z"/>
	<path fill="#FFFFFF" d="M310.5,42.8c0.4,0.1,0.6,0.2,0.6,0.4s-0.2,0.4-0.6,0.7l-1.3,2.3h8.6v19.8h-2.4v-1.4h-12.4v1.4h-2.4V46.1
		h5.9l1.9-3.8L310.5,42.8z M315.3,51.7v-3.3h-12.4v3.3H315.3z M315.3,57v-3.2h-12.4V57H315.3z M315.3,62.2v-3.1h-12.4v3.1H315.3z"/>
	<path fill="#FFFFFF" d="M334.8,45.2v-2.7l2.2,0.2c0.4,0.1,0.6,0.2,0.6,0.3c0,0.1-0.2,0.3-0.4,0.6v1.5h9.2v2.3h-9.2v7.3
		c1.5,2.2,2.9,3.7,4.3,4.6c1.6,1.4,3.7,2.5,6.2,3.2l-1.9,2.5c-2.7-1.5-4.8-2.9-6-4.1c-0.8-0.8-1.7-1.7-2.5-2.8v8.1h-2.3v-8
		c-0.9,1.1-1.8,2-2.6,2.7c-1.5,1.3-3.5,2.7-6.1,4.1l-2.3-2c2.6-1.2,4.8-2.4,6.6-3.8c1.2-0.8,2.7-2.3,4.3-4.3v-7.5h-9.4v-2.3H334.8z
		 M330.8,48.9c0.2,0.1,0.4,0.2,0.4,0.3c0,0.2-0.2,0.3-0.4,0.5c-0.2,0.7-0.3,1.4-0.4,1.9c0.9,1.3,2,2.3,3.2,3.2l-1.8,1.5
		c-0.9-0.9-1.7-1.8-2.3-2.6c-0.1,0.1-0.1,0.1-0.1,0.1c-0.6,1.2-1.5,2.3-2.7,3.3l-1.8-1.3c0.6-0.5,1.1-1,1.5-1.6
		c0.5-0.6,1-1.4,1.3-2.4c0.4-1.1,0.7-2.3,0.9-3.6L330.8,48.9z M343.7,49c0.2,0.1,0.4,0.2,0.4,0.3c0,0.2-0.2,0.3-0.4,0.5
		c-0.1,0.6-0.3,1.1-0.4,1.6c1,1.3,2.3,2.5,3.7,3.4l-1.7,1.5c-1.1-1-2-2-2.8-2.9c0,0,0,0.1,0,0.1c-0.5,1-1.3,2-2.4,3l-1.8-1.3
		c0.6-0.5,1-0.9,1.4-1.4c0.5-0.6,0.9-1.3,1.2-2.1c0.4-1,0.7-2,0.8-3.2L343.7,49z"/>
	<path fill="#FFFFFF" d="M373.9,43.6v2.2h-7.3v8c2-0.9,3.8-1.9,5.3-3l1.8,1.8c0.1,0.1,0.2,0.3,0.2,0.4c0,0.2-0.3,0.3-0.8,0.3
		c-2,1-4.2,1.9-6.5,2.9v6.3c0,0.6,0.3,0.9,0.8,0.9h4.3c0.2,0,0.3-0.2,0.4-0.5c0.1-0.3,0.1-1.2,0.2-2.8l2.4,0.7
		c-0.2,2-0.4,3.3-0.8,3.9c-0.4,0.6-0.9,0.9-1.4,0.9H367c-1.8,0-2.7-0.7-2.7-1.9v-18H358c-0.2,1.6-0.5,3-0.8,4.2h6.2
		c-0.4,3.9-1.5,7.1-3.1,9.6c-1.8,2.7-4.2,5-7.2,6.9l-2.2-1.5c3-1.8,5.2-3.6,6.5-5.5c0-0.1,0.1-0.1,0.1-0.1c-1-0.9-1.9-1.7-2.7-2.3
		l1.3-1.7c0.9,0.7,1.8,1.4,2.7,2.1c0.9-1.6,1.5-3.4,1.7-5.3h-4.1c-0.4,0.9-0.9,1.7-1.3,2.4c-0.6,0.8-1.3,1.7-2.1,2.5l-2.3-1.4
		c0.8-0.7,1.4-1.3,1.9-1.9c0.9-1,1.6-2.3,2.2-3.7c0.4-1.1,0.8-2.5,1-4.3h-3.8v-2.2H373.9z"/>
	<path fill="#FFFFFF" d="M396.4,44.9c-2.3,0.3-5,0.4-8.1,0.5c-0.1,0.4-0.1,0.9-0.2,1.2H400v2h-12.3c-0.1,0.5-0.3,1-0.4,1.5H401v2
		h-14.4c-0.1,0.1-0.1,0.1-0.1,0.2c-0.2,0.5-0.5,0.9-0.7,1.4h12.8v12.3h-2.3v-0.9h-10v0.9h-2.3v-9.6c-0.2,0.3-0.4,0.6-0.7,0.8
		c-0.9,1.1-2.1,2.2-3.5,3.3l-2.2-1.3c1.3-0.9,2.3-1.8,3.1-2.6c1.3-1.3,2.4-2.8,3.2-4.5h-5.9v-2h6.7c0.2-0.5,0.3-1,0.5-1.5h-5.6v-2h6
		c0.1-0.4,0.2-0.8,0.2-1.2c-1.5,0.1-3,0.1-4.6,0.1l-1.4-2.1h3c5.2,0,10-0.3,14.3-0.9l1.8,1.8c0.1,0.1,0.2,0.2,0.2,0.4
		c0,0.2-0.1,0.2-0.1,0.2c-0.2,0-0.4,0-0.6-0.1c-0.3-0.1-0.6-0.1-0.7-0.1C397.7,44.8,397.2,44.9,396.4,44.9z M396.4,57v-1.2h-10V57
		H396.4z M396.4,60.2v-1.3h-10v1.3H396.4z M396.4,63.3V62h-10v1.2H396.4z"/>
	<path fill="#FFFFFF" d="M423.3,44.9c-2.3,0.3-5,0.4-8.1,0.5c-0.1,0.4-0.1,0.9-0.2,1.2h11.9v2h-12.3c-0.1,0.5-0.3,1-0.4,1.5h13.7v2
		h-14.4c-0.1,0.1-0.1,0.1-0.1,0.2c-0.2,0.5-0.5,0.9-0.7,1.4h12.8v12.3h-2.3v-0.9h-10v0.9H411v-9.6c-0.2,0.3-0.4,0.6-0.7,0.8
		c-0.9,1.1-2.1,2.2-3.5,3.3l-2.2-1.3c1.3-0.9,2.3-1.8,3.1-2.6c1.3-1.3,2.4-2.8,3.2-4.5h-5.9v-2h6.7c0.2-0.5,0.3-1,0.5-1.5h-5.6v-2h6
		c0.1-0.4,0.2-0.8,0.2-1.2c-1.5,0.1-3,0.1-4.6,0.1l-1.4-2.1h3c5.2,0,10-0.3,14.3-0.9l1.8,1.8c0.1,0.1,0.2,0.2,0.2,0.4
		c0,0.2-0.1,0.2-0.1,0.2c-0.2,0-0.4,0-0.6-0.1c-0.3-0.1-0.6-0.1-0.7-0.1C424.6,44.8,424.1,44.9,423.3,44.9z M423.3,57v-1.2h-10V57
		H423.3z M423.3,60.2v-1.3h-10v1.3H423.3z M423.3,63.3V62h-10v1.2H423.3z"/>
	<path fill="#FFFFFF" d="M453.5,56.1c-1.2,1-2.6,1.5-4.3,1.5c-1.3,0-2.6-0.3-4.1-1c-1.2-0.6-2.4-1.3-3.6-1.9c-1.4-0.7-2.6-1-3.6-1
		c-1.2,0-2.2,0.3-2.9,0.9c-0.5,0.4-1,1.1-1.6,2.2l-2-0.9c0.8-1.3,1.5-2.3,2.2-2.9c1.2-1,2.6-1.5,4.3-1.5c1.3,0,2.6,0.4,4.1,1
		c1.2,0.7,2.4,1.3,3.6,1.9c1.4,0.7,2.6,1,3.7,1c1.2,0,2.1-0.3,2.8-0.9c0.5-0.4,1-1.1,1.6-2.2l2,1C454.9,54.5,454.2,55.5,453.5,56.1z
		"/>
</g>
<g>
</g>
<g>
</g>
<g>
</g>
<g>
</g>
<g>
</g>
<g>
</g>
<g>
</g>
<g>
</g>
<g>
</g>
<g>
</g>
<g>
</g>
<g>
</g>
<g>
</g>
<g>
</g>
<g>
</g>
</svg>
