<?xml version="1.0" encoding="utf-8"?>
<!-- Generator: Adobe Illustrator 18.1.1, SVG Export Plug-In . SVG Version: 6.00 Build 0)  -->
<!DOCTYPE svg PUBLIC "-//W3C//DTD SVG 1.1//EN" "http://www.w3.org/Graphics/SVG/1.1/DTD/svg11.dtd">
<svg version="1.1" id="Layer_1" xmlns="http://www.w3.org/2000/svg" xmlns:xlink="http://www.w3.org/1999/xlink" x="0px" y="0px"
	 viewBox="0 0 599.6 206.8" enable-background="new 0 0 599.6 206.8" xml:space="preserve">
<g id="XMLID_1_">
	<rect id="XMLID_8803_" x="0" y="17" fill="#231815" width="549.6" height="76.3"/>
	<rect id="XMLID_8802_" x="62.1" y="129.4" fill="#231815" width="537.5" height="77.4"/>
	<g id="XMLID_8755_">
		<path id="XMLID_8800_" fill="#231815" d="M72.3,37.8v-9.1h78.1v9.1H72.3z"/>
		<path id="XMLID_8796_" fill="#231815" d="M216.1,8.1l-3.2,9.8H241v54.7h-68.3V17.9h22.8l3.1-9.8h-29V0H244v8.1H216.1z M225,25.9
			h-36.1v14.8H225V25.9z M225,48.9h-36.1v15.6H225V48.9z"/>
		<path id="XMLID_8788_" fill="#231815" d="M270.1,68.8h-4.8l1-36.7h5L270.1,68.8z M291,12.6h-5.6v8.7h7.1v7.5h-7.1v43.6h-12.7V28.9
			h-7.3v-7.5h7.3v-8.7h-6.5V5.1h13l1-2.7h13.8L291,12.6z M292.2,72.5v-3.7h-3.9l-1.5-36.7h4.9l1.4,33.5h14.1v-3.5H295v-7h12.2v-3
			h-12.7V25.5h12.7v-3h-14v-7.1h14v-3.3h-12.2V5.1h25l1-2.7h14.5l-3.4,9.8h-11v3.3h14.9v7.1h-14.9v3H334v26.6h-12.9v3h12.2v7h-12.2
			v3.5h15.2v6.8H292.2z M307.2,32.1h-4.3v3.5h4.3V32.1z M307.2,41.9h-4.3v3.7h4.3V41.9z M325.5,32.1h-4.4v3.5h4.4V32.1z M325.5,41.9
			h-4.4v3.7h4.4V41.9z"/>
		<path id="XMLID_8782_" fill="#231815" d="M385.7,18l9.8,10.7h-14.2l-3.1-3.2l-3.1,3.2h-15.2L371,17.8L359.5,5.6h14.5l4.4,4.8
			l4.9-4.8h14.3L385.7,18z M385.1,44.5v28.5h-13.3V44.5h-11v-7.4h11v-6.5h13.3v6.5h2.4l-0.6-5.9h6.4l0.7,5.9h1.4v7.4H385.1z
			 M368.6,71h-7.9l1.7-24h7.8L368.6,71z M414.9,72.9l-3.3-4.3l-3,4.3h-14.1l1.3-1.9H389l-2.2-24h7.5l2.3,22.9l7.8-11l-9-11.6h14.5
			L411,49l3.1-4.3h-17.2v-7.4h29.8V46l-8.4,12.3l11,14.6H414.9z M426.4,34.5h-13.6V13.8h-3.1v12.8l-2.4,7.9h-13l3-9.8V6.5h27.6v21
			h4.3L426.4,34.5z"/>
		<path id="XMLID_8780_" fill="#231815" d="M518.5,73.2h-26.8V16.9h-16.6l-2.2,7.8h15v31L471,73.2h-16.7l12-11.9l-9.3-16.6h13.3
			l4.6,7.8V31.8h-3.8l-2.5,10.1H455l6.5-25h-5.3V9.8h63.3v7.1h-14.4v27.6h2.2l2.4-21.3h10.8l-3.3,28.6h-12.2V66h16.3L518.5,73.2z"/>
		<path id="XMLID_8775_" fill="#231815" d="M85.1,131.8l-5.6-15.8h14.2l5.7,15.8H85.1z M94,181.6H79.6l5.7-28.4h14.5L94,181.6z
			 M85.6,150.8l-5.9-16.6h14l6,16.6H85.6z M133.7,181.6l-1.7-5.6l-3.3,5.6H99.9v-6.8l11.3-22.4h-10.8v-7.1h15.1v-12.1h-13.4v-7.3
			h13.4v-9.8h14.4v9.8h13.4v7.2h-13.4v12.2h17v7.1h-20.1l-10.9,22h15.7l-4.9-16.8h14.1l7.1,24H133.7z"/>
		<path id="XMLID_8768_" fill="#231815" d="M216.9,154l-9.8-2.9l-9.9,2.9h-26.1L193,147l-12.7-3.6v-6.6h-7.1v-7.3h7.1v-2.3h-7.1
			v-10.5h26.6l-1.2-3.8H214l1.6,3.8H241v10.6h-7.2v2.3h7.1v7.3h-7.1v6.4l-11.6,3.6l21.4,7.1H216.9z M187.9,181.6h-15.5l10.8-15.4
			h15.4L187.9,181.6z M214.3,163.9v17.6h-14.4v-17.6h-26.7v-7.2h26.7v-2.9h14.4v2.9h26.8v7.2H214.3z M226.5,124h-38.8v1.9h7.1v3.7
			h24.6v-3.7h7.1V124z M219.4,136.9h-24.6v1.4l12.9,4l11.7-3.7V136.9z M226.6,181.6l-10.4-15.4h15l10.6,15.4H226.6z"/>
		<path id="XMLID_8763_" fill="#231815" d="M310.8,181.4l-3.3-8.2h13.7v-46.4h-6.6l-2.5,8.4h-13.7v46.1h-32.6v-62.5h6.6l2.6-9h15
			l-2.7,9h11.1V132l6.8-22.2h14.5l-2.7,9.1h18.7v62.5H310.8z M285.2,126.9h-6.6v18.7h6.6V126.9z M285.2,153.4h-6.6v19.7h6.6V153.4z
			 M305.9,165.8l-6.5-28.1h14.1l6.5,28.1H305.9z"/>
		<path id="XMLID_8761_" fill="#231815" d="M383.2,123.8v10.3H427v47.1h-29.8l-4.7-8.3h18.9v-30.4l-28.1,0.2v21.9l-8.9,16.6h-17.5
			l10.5-20.3v-37.1h-10.5v-8.6h29.7l-2.2-7.6h17.1l2.2,7.6h27.5v8.6H383.2z"/>
		<path id="XMLID_8756_" fill="#231815" d="M454.8,123.8l-6.5-18.1h16.2l6.5,18.1H454.8z M465,180.9h-16.6l6.5-32.5h16.6L465,180.9z
			 M455.4,145.7l-6.8-19.1h16l6.9,19.1H455.4z M510.5,180.9l-2-6.5l-3.8,6.5h-33v-7.7l12.9-25.7h-12.3v-8.2h17.3v-13.9h-15.4v-8.3
			h15.4v-11.2h16.5v11.2h15.4v8.3h-15.4v13.9h19.5v8.2h-23L490,172.6h18l-5.6-19.3h16.2l8.1,27.6H510.5z"/>
	</g>
	<path id="XMLID_8250_" fill="#FFFFFF" d="M78.6,43.4v-9.1h78.1v9.1H78.6z"/>
	<path id="XMLID_8246_" fill="#FFFFFF" d="M222,13.4l-3.2,9.8h28.1v54.7h-68.3V23.1h22.8l3.1-9.8h-29V5.3h74.3v8.1H222z M230.9,31.2
		h-36.1V46h36.1V31.2z M230.9,54.2h-36.1v15.6h36.1V54.2z"/>
	<path id="XMLID_8238_" fill="#FFFFFF" d="M275.7,73.9h-4.8l1-36.7h5L275.7,73.9z M296.6,17.7H291v8.7h7.1V34H291v43.6h-12.7V34H271
		v-7.5h7.3v-8.7h-6.5v-7.5h13l1-2.7h13.8L296.6,17.7z M297.8,77.5v-3.7h-3.9l-1.5-36.7h4.9l1.4,33.5h14.1v-3.5h-12.2v-7h12.2v-3
		h-12.7V30.6h12.7v-3h-14v-7.1h14v-3.3h-12.2v-7.1h25l1-2.7h14.5l-3.4,9.8h-11v3.3h14.9v7.1h-14.9v3h12.9v26.6h-12.9v3H339v7h-12.2
		v3.5h15.2v6.8H297.8z M312.8,37.1h-4.3v3.5h4.3V37.1z M312.8,46.9h-4.3v3.7h4.3V46.9z M331.1,37.1h-4.4v3.5h4.4V37.1z M331.1,46.9
		h-4.4v3.7h4.4V46.9z"/>
	<path id="XMLID_8232_" fill="#FFFFFF" d="M391.2,22.8l9.8,10.7h-14.2l-3.1-3.2l-3.1,3.2h-15.2l11.1-10.9l-11.5-12.2h14.5l4.4,4.8
		l4.9-4.8h14.3L391.2,22.8z M390.5,49.3v28.5h-13.3V49.3h-11v-7.4h11v-6.5h13.3v6.5h2.4l-0.6-5.9h6.4l0.7,5.9h1.4v7.4H390.5z
		 M374,75.9h-7.9l1.7-24h7.8L374,75.9z M420.3,77.8l-3.3-4.3l-3,4.3h-14.1l1.3-1.9h-6.8l-2.2-24h7.5l2.3,22.9l7.8-11l-9-11.6h14.5
		l1.2,1.7l3.1-4.3h-17.2v-7.4h29.8v8.8l-8.4,12.3l11,14.6H420.3z M431.8,39.3h-13.6V18.6h-3.1v12.8l-2.4,7.9h-13l3-9.8V11.3h27.6v21
		h4.3L431.8,39.3z"/>
	<path id="XMLID_8230_" fill="#FFFFFF" d="M523.7,77.8h-26.8V21.5h-16.6l-2.2,7.8h15v31l-17.1,17.4h-16.7l12-11.9l-9.3-16.6h13.3
		l4.6,7.8V36.4h-3.8l-2.5,10.1h-13.6l6.5-25h-5.3v-7.1h63.3v7.1h-14.4v27.6h2.2l2.4-21.3h10.8l-3.3,28.6h-12.2v14.2h16.3L523.7,77.8
		z"/>
	<path id="XMLID_8225_" fill="#FFFFFF" d="M90.4,136.5l-5.6-15.8h14.2l5.7,15.8H90.4z M99.3,186.3H84.9l5.7-28.4H105L99.3,186.3z
		 M90.9,155.5L85,138.9h14l6,16.6H90.9z M139,186.3l-1.7-5.6l-3.3,5.6h-28.8v-6.8l11.3-22.4h-10.8V150h15.1v-12.1h-13.4v-7.3h13.4
		v-9.8h14.4v9.8h13.4v7.2h-13.4V150h17v7.1h-20.1l-10.9,22h15.7l-4.9-16.8h14.1l7.1,24H139z"/>
	<path id="XMLID_8218_" fill="#FFFFFF" d="M222.5,158.9l-9.8-2.9l-9.9,2.9h-26.1l21.8-6.9l-12.7-3.6v-6.6h-7.1v-7.3h7.1v-2.3h-7.1
		v-10.5h26.6l-1.2-3.8h15.5l1.6,3.8h25.4v10.6h-7.2v2.3h7.1v7.3h-7.1v6.4l-11.6,3.6l21.4,7.1H222.5z M193.5,186.5h-15.5l10.8-15.4
		h15.4L193.5,186.5z M219.8,168.9v17.6h-14.4v-17.6h-26.7v-7.2h26.7v-2.9h14.4v2.9h26.8v7.2H219.8z M232.1,129h-38.8v1.9h7.1v3.7
		H225v-3.7h7.1V129z M225,141.8h-24.6v1.4l12.9,4l11.7-3.7V141.8z M232.2,186.5l-10.4-15.4h15l10.6,15.4H232.2z"/>
	<path id="XMLID_8213_" fill="#FFFFFF" d="M316.6,186.5l-3.3-8.2H327V132h-6.6l-2.5,8.4h-13.7v46.1h-32.6V124h6.6l2.6-9h15l-2.7,9
		h11.1v13.2l6.8-22.2h14.5l-2.7,9.1h18.7v62.5H316.6z M290.9,132h-6.6v18.7h6.6V132z M290.9,158.6h-6.6v19.7h6.6V158.6z
		 M311.7,170.9l-6.5-28.1h14.1l6.5,28.1H311.7z"/>
	<path id="XMLID_8211_" fill="#FFFFFF" d="M389.1,129v10.3h43.8v47.1h-29.8l-4.7-8.3h18.9v-30.4l-28.1,0.2v21.9l-8.9,16.6h-17.5
		l10.5-20.3V129h-10.5v-8.6h29.7l-2.2-7.6h17.1l2.2,7.6H437v8.6H389.1z"/>
	<path id="XMLID_8134_" fill="#FFFFFF" d="M460.8,129.2l-6.5-18.1h16.2l6.5,18.1H460.8z M471.1,186.3h-16.6l6.5-32.5h16.6
		L471.1,186.3z M461.5,151.1l-6.8-19.1h16l6.9,19.1H461.5z M516.6,186.3l-2-6.5l-3.8,6.5h-33v-7.7l12.9-25.7h-12.3v-8.2h17.3v-13.9
		h-15.4v-8.3h15.4v-11.2h16.5v11.2h15.4v8.3h-15.4v13.9h19.5v8.2h-23L496.1,178h18l-5.6-19.3h16.2l8.1,27.6H516.6z"/>
</g>
<g>
</g>
<g>
</g>
<g>
</g>
<g>
</g>
<g>
</g>
<g>
</g>
<g>
</g>
<g>
</g>
<g>
</g>
<g>
</g>
<g>
</g>
<g>
</g>
<g>
</g>
<g>
</g>
<g>
</g>
</svg>
