<?xml version="1.0" encoding="utf-8"?>
<!-- Generator: Adobe Illustrator 18.1.1, SVG Export Plug-In . SVG Version: 6.00 Build 0)  -->
<!DOCTYPE svg PUBLIC "-//W3C//DTD SVG 1.1//EN" "http://www.w3.org/Graphics/SVG/1.1/DTD/svg11.dtd">
<svg version="1.1" id="Layer_1" xmlns="http://www.w3.org/2000/svg" xmlns:xlink="http://www.w3.org/1999/xlink" x="0px" y="0px"
	 viewBox="0 0 237.2 42.8" enable-background="new 0 0 237.2 42.8" xml:space="preserve">
<g id="XMLID_10_">
	<g id="XMLID_125_">
		<path id="XMLID_128_" fill="#FFFFFF" d="M40.1,42.8H2.7c-1.5,0-2.7-1.2-2.7-2.7V2.7C0,1.2,1.2,0,2.7,0h37.4c1.5,0,2.7,1.2,2.7,2.7
			v37.3C42.8,41.6,41.6,42.8,40.1,42.8z"/>
		<path id="XMLID_127_" fill="#009FDB" d="M2,0h38.7c1.1,0,2,0.9,2,2v18.3h-8.3L30.6,29l-5.6-13.4L19.7,28H0V2C0,0.9,0.9,0,2,0"/>
		<path id="XMLID_126_" fill="#009FDB" d="M42.8,22.1v18.6c0,1.1-0.9,2-2,2H2c-1.1,0-2-0.9-2-2V29.8h21.2l3.8-8.7l5.6,13.4l5.4-12.4
			H42.8z"/>
	</g>
	<g id="XMLID_11_">
		<polygon id="XMLID_124_" fill="#3E3A39" points="63.4,6.5 59.1,6.5 59.1,24 56.7,24 56.7,6.5 52.4,6.5 52.4,4.2 63.4,4.2 		"/>
		<path id="XMLID_123_" fill="#3E3A39" d="M78.4,24h-2.2v-7c0-1.4,0-2.3-0.1-2.9c-0.1-0.6-0.3-1.1-0.6-1.6c-0.3-0.5-0.7-0.9-1.2-1.1
			c-0.5-0.3-1.1-0.4-1.8-0.4c-0.7,0-1.4,0.2-2,0.5c-0.6,0.3-1.2,0.8-1.6,1.3c-0.4,0.6-0.8,1.2-0.9,1.8c-0.2,0.6-0.3,1.9-0.3,3.9V24
			h-2.2V3.8h2.2v7.7c1.5-1.7,3.2-2.6,5.2-2.6c1.1,0,2,0.3,2.9,0.8c0.9,0.5,1.5,1.3,1.9,2.3c0.4,1,0.6,2.4,0.6,4.4V24z"/>
		<path id="XMLID_120_" fill="#3E3A39" d="M96.4,17H83.5c0.1,1.6,0.6,2.9,1.6,3.9c1,1,2.2,1.5,3.6,1.5c2.4,0,4.1-1.2,5.4-3.5l1.9,1
			c-0.8,1.6-1.8,2.7-3,3.5c-1.1,0.7-2.5,1.1-4.1,1.1c-2.2,0-4-0.8-5.5-2.3c-1.4-1.5-2.2-3.3-2.2-5.5c0-2.1,0.7-4,2.2-5.5
			c1.4-1.5,3.2-2.3,5.4-2.3c2.1,0,3.9,0.7,5.4,2.2C95.6,12.5,96.3,14.5,96.4,17 M93.9,15c-0.3-1.3-0.9-2.2-1.8-2.9
			c-1-0.7-2-1.1-3.3-1.1c-2.5,0-4.2,1.3-5,4H93.9z"/>
		<polygon id="XMLID_119_" fill="#3E3A39" points="122.1,24 121.4,24 108.9,9.7 108.9,24 106.5,24 106.5,4.2 107.2,4.2 119.8,18.7 
			119.8,4.2 122.1,4.2 		"/>
		<path id="XMLID_116_" fill="#3E3A39" d="M140.6,17h-12.9c0.1,1.6,0.6,2.9,1.6,3.9c1,1,2.2,1.5,3.6,1.5c2.4,0,4.1-1.2,5.4-3.5
			l1.9,1c-0.8,1.6-1.8,2.7-3,3.5c-1.1,0.7-2.5,1.1-4.1,1.1c-2.2,0-4-0.8-5.5-2.3c-1.4-1.5-2.2-3.3-2.2-5.5c0-2.1,0.7-4,2.2-5.5
			c1.4-1.5,3.2-2.3,5.4-2.3c2.1,0,3.9,0.7,5.4,2.2C139.8,12.5,140.5,14.5,140.6,17 M138.1,15c-0.3-1.3-0.9-2.2-1.8-2.9
			c-1-0.7-2-1.1-3.3-1.1c-2.5,0-4.2,1.3-5,4H138.1z"/>
		<polygon id="XMLID_115_" fill="#3E3A39" points="164,9.3 157.8,24.4 157.2,24.4 152.9,14 148.6,24.4 148,24.4 141.8,9.3 
			144.1,9.3 148.3,19.8 152.6,9.3 153.2,9.3 157.5,19.9 161.7,9.3 		"/>
		<path id="XMLID_114_" fill="#3E3A39" d="M173.6,11l-1.4,1.5c-1.1-1-2-1.5-2.9-1.5c-0.6,0-1,0.2-1.4,0.5c-0.4,0.4-0.6,0.8-0.6,1.3
			s0.2,1,0.6,1.3c0.4,0.4,1.2,0.9,2.2,1.4c1.1,0.6,1.9,1.2,2.5,1.9c0.6,0.7,0.9,1.5,0.9,2.5c0,1.3-0.4,2.3-1.3,3.2
			c-0.9,0.9-1.9,1.3-3.2,1.3c-1.8,0-3.3-0.8-4.4-2.3l1.4-1.6c1,1.1,2,1.7,3,1.7c0.7,0,1.3-0.2,1.8-0.7c0.5-0.4,0.7-1,0.7-1.6
			c0-0.6-0.2-1.1-0.7-1.5c-0.4-0.4-1.2-0.9-2.3-1.4c-1.1-0.5-1.9-1.1-2.4-1.8c-0.5-0.7-0.8-1.5-0.8-2.6c0-1.1,0.4-2,1.2-2.7
			c0.8-0.8,1.8-1.1,3.1-1.1C170.8,8.9,172.2,9.6,173.6,11"/>
		<polygon id="XMLID_113_" fill="#3E3A39" points="193.2,24 183.5,24 183.5,4.2 185.8,4.2 185.8,21.7 193.2,21.7 		"/>
		<path id="XMLID_110_" fill="#3E3A39" d="M210.1,17h-12.9c0.1,1.6,0.6,2.9,1.6,3.9c1,1,2.2,1.5,3.6,1.5c2.4,0,4.1-1.2,5.4-3.5
			l1.9,1c-0.8,1.6-1.8,2.7-3,3.5c-1.1,0.7-2.5,1.1-4.1,1.1c-2.2,0-4-0.8-5.5-2.3c-1.4-1.5-2.2-3.3-2.2-5.5c0-2.1,0.7-4,2.2-5.5
			c1.4-1.5,3.2-2.3,5.4-2.3c2.1,0,3.9,0.7,5.4,2.2C209.3,12.5,210,14.5,210.1,17 M207.6,15c-0.3-1.3-0.9-2.2-1.8-2.9
			c-1-0.7-2-1.1-3.3-1.1c-2.5,0-4.2,1.3-5,4H207.6z"/>
		<path id="XMLID_109_" fill="#3E3A39" d="M226,24h-2.2v-7c0-1.6-0.1-2.7-0.2-3.3c-0.2-0.6-0.4-1.1-0.7-1.5
			c-0.3-0.4-0.7-0.7-1.1-0.9c-0.5-0.2-1-0.3-1.7-0.3c-0.7,0-1.3,0.2-1.9,0.5c-0.6,0.3-1.2,0.8-1.6,1.3c-0.4,0.6-0.8,1.2-0.9,1.8
			c-0.2,0.6-0.3,1.9-0.3,3.9V24h-2.2V9.3h2.2v2.2c1.5-1.7,3.2-2.6,5.2-2.6c1.1,0,2,0.3,2.9,0.8c0.9,0.5,1.5,1.3,1.9,2.3
			c0.4,1,0.6,2.4,0.6,4.4V24z"/>
		<path id="XMLID_108_" fill="#3E3A39" d="M237.2,11l-1.4,1.5c-1.1-1-2-1.5-2.9-1.5c-0.6,0-1,0.2-1.4,0.5c-0.4,0.4-0.6,0.8-0.6,1.3
			s0.2,1,0.6,1.3c0.4,0.4,1.2,0.9,2.2,1.4c1.1,0.6,1.9,1.2,2.5,1.9c0.6,0.7,0.9,1.5,0.9,2.5c0,1.3-0.4,2.3-1.3,3.2
			c-0.9,0.9-1.9,1.3-3.2,1.3c-1.8,0-3.3-0.8-4.4-2.3l1.4-1.6c1,1.1,2,1.7,3,1.7c0.7,0,1.3-0.2,1.8-0.7c0.5-0.4,0.7-1,0.7-1.6
			c0-0.6-0.2-1.1-0.7-1.5c-0.4-0.4-1.2-0.9-2.3-1.4c-1.1-0.5-1.9-1.1-2.4-1.8c-0.5-0.7-0.8-1.5-0.8-2.6c0-1.1,0.4-2,1.2-2.7
			c0.8-0.8,1.8-1.1,3.1-1.1C234.4,8.9,235.7,9.6,237.2,11"/>
		<path id="XMLID_107_" fill="#595857" d="M52.9,36.5v-6.9h1l2.2,3.5c0.5,0.8,0.9,1.5,1.2,2.2l0,0c-0.1-0.9-0.1-1.7-0.1-2.8v-2.9
			h0.8v6.9h-0.9L55,33c-0.5-0.8-0.9-1.5-1.3-2.3l0,0c0.1,0.9,0.1,1.7,0.1,2.8v2.9H52.9z"/>
		<path id="XMLID_104_" fill="#595857" d="M60.1,34.2c0,1.2,0.8,1.7,1.7,1.7c0.6,0,1-0.1,1.4-0.3l0.2,0.6c-0.3,0.1-0.9,0.3-1.6,0.3
			c-1.5,0-2.4-1-2.4-2.5c0-1.5,0.9-2.7,2.3-2.7c1.6,0,2,1.4,2,2.3c0,0.2,0,0.3,0,0.4H60.1z M62.7,33.5c0-0.6-0.2-1.5-1.2-1.5
			c-0.9,0-1.3,0.8-1.4,1.5H62.7z"/>
		<path id="XMLID_103_" fill="#595857" d="M65.1,31.6l0.7,2.5c0.1,0.5,0.3,1.1,0.4,1.6h0c0.1-0.5,0.3-1,0.4-1.6l0.8-2.5h0.8l0.8,2.5
			c0.2,0.6,0.3,1.1,0.4,1.6h0c0.1-0.5,0.2-1,0.4-1.6l0.7-2.5h0.9l-1.6,4.9h-0.8l-0.8-2.4c-0.2-0.5-0.3-1-0.4-1.6h0
			c-0.1,0.6-0.3,1.1-0.4,1.6l-0.8,2.3h-0.8l-1.5-4.9H65.1z"/>
		<path id="XMLID_102_" fill="#595857" d="M72,35.6c0.3,0.2,0.7,0.4,1.2,0.4c0.7,0,1-0.3,1-0.7c0-0.4-0.3-0.7-0.9-0.9
			c-0.9-0.3-1.3-0.8-1.3-1.4c0-0.8,0.6-1.4,1.7-1.4c0.5,0,0.9,0.1,1.2,0.3l-0.2,0.7c-0.2-0.1-0.5-0.3-1-0.3c-0.5,0-0.8,0.3-0.8,0.7
			c0,0.4,0.3,0.6,0.9,0.8c0.9,0.3,1.3,0.8,1.3,1.5c0,0.9-0.7,1.5-1.8,1.5c-0.5,0-1-0.1-1.4-0.3L72,35.6z"/>
		<path id="XMLID_101_" fill="#595857" d="M79.1,36.5l-1.7-6.9h0.9l0.8,3.5c0.2,0.9,0.4,1.7,0.5,2.4h0c0.1-0.7,0.3-1.5,0.6-2.4
			l0.9-3.5H82l0.8,3.5c0.2,0.8,0.4,1.6,0.5,2.4h0c0.1-0.8,0.3-1.5,0.6-2.4l0.9-3.5h0.9l-1.9,6.9h-0.9L82,32.9
			c-0.2-0.9-0.4-1.5-0.4-2.2h0c-0.1,0.7-0.3,1.4-0.5,2.2l-1,3.6H79.1z"/>
		<path id="XMLID_98_" fill="#595857" d="M90.7,34c0,1.8-1.3,2.6-2.5,2.6c-1.3,0-2.4-1-2.4-2.5c0-1.6,1.1-2.6,2.4-2.6
			C89.7,31.4,90.7,32.5,90.7,34 M86.8,34c0,1.1,0.6,1.9,1.5,1.9c0.9,0,1.5-0.8,1.5-1.9c0-0.8-0.4-1.9-1.5-1.9
			C87.2,32.1,86.8,33.1,86.8,34"/>
		<path id="XMLID_97_" fill="#595857" d="M91.8,33.1c0-0.6,0-1.1,0-1.5h0.8l0,1h0c0.2-0.7,0.8-1.1,1.4-1.1c0.1,0,0.2,0,0.3,0v0.8
			c-0.1,0-0.2,0-0.3,0c-0.6,0-1.1,0.5-1.2,1.1c0,0.1,0,0.3,0,0.4v2.6h-0.9V33.1z"/>
		<path id="XMLID_96_" fill="#595857" d="M96.4,30.1v1.4h1.3v0.7h-1.3v2.7c0,0.6,0.2,1,0.7,1c0.2,0,0.4,0,0.5-0.1l0,0.7
			c-0.2,0.1-0.4,0.1-0.8,0.1c-0.4,0-0.8-0.1-1-0.4c-0.3-0.3-0.3-0.7-0.3-1.3v-2.7h-0.8v-0.7h0.8v-1.2L96.4,30.1z"/>
		<path id="XMLID_95_" fill="#595857" d="M98.7,29.3h0.9v3.1h0c0.1-0.3,0.4-0.5,0.6-0.6c0.3-0.2,0.6-0.3,0.9-0.3
			c0.7,0,1.7,0.4,1.7,2.1v2.9H102v-2.8c0-0.8-0.3-1.5-1.1-1.5c-0.6,0-1,0.4-1.2,0.9c-0.1,0.1-0.1,0.3-0.1,0.4v3h-0.9V29.3z"/>
		<path id="XMLID_94_" fill="#595857" d="M106.6,29.6h0.9v3.3h0c0.2-0.3,0.4-0.5,0.5-0.7l2.1-2.6h1.1l-2.5,2.9l2.7,3.9h-1l-2.3-3.4
			l-0.7,0.8v2.6h-0.9V29.6z"/>
		<path id="XMLID_93_" fill="#595857" d="M112.2,32.9c0-0.5,0-0.9,0-1.3h0.8l0,0.8h0c0.2-0.5,0.8-0.9,1.6-0.9c0.7,0,1.7,0.4,1.7,2.1
			v2.9h-0.9v-2.8c0-0.8-0.3-1.5-1.1-1.5c-0.6,0-1,0.4-1.2,0.9c0,0.1-0.1,0.3-0.1,0.4v3h-0.9V32.9z"/>
		<path id="XMLID_90_" fill="#595857" d="M122.3,34c0,1.8-1.3,2.6-2.5,2.6c-1.3,0-2.4-1-2.4-2.5c0-1.6,1.1-2.6,2.4-2.6
			C121.3,31.4,122.3,32.5,122.3,34 M118.3,34c0,1.1,0.6,1.9,1.5,1.9c0.9,0,1.5-0.8,1.5-1.9c0-0.8-0.4-1.9-1.5-1.9
			C118.8,32.1,118.3,33.1,118.3,34"/>
		<path id="XMLID_89_" fill="#595857" d="M123.7,31.6l0.7,2.5c0.1,0.5,0.3,1.1,0.4,1.6h0c0.1-0.5,0.3-1,0.4-1.6l0.8-2.5h0.8l0.8,2.5
			c0.2,0.6,0.3,1.1,0.4,1.6h0c0.1-0.5,0.2-1,0.4-1.6l0.7-2.5h0.9l-1.6,4.9h-0.8l-0.8-2.4c-0.2-0.5-0.3-1-0.4-1.6h0
			c-0.1,0.6-0.3,1.1-0.4,1.6l-0.8,2.3h-0.8l-1.5-4.9H123.7z"/>
		<path id="XMLID_86_" fill="#595857" d="M131.8,30.2c0,0.3-0.2,0.5-0.6,0.5c-0.3,0-0.5-0.2-0.5-0.5c0-0.3,0.2-0.6,0.6-0.6
			C131.6,29.6,131.8,29.9,131.8,30.2 M130.8,31.6h0.9v4.9h-0.9V31.6z"/>
		<path id="XMLID_85_" fill="#595857" d="M133.2,32.9c0-0.5,0-0.9,0-1.3h0.8l0.1,0.8h0c0.2-0.5,0.8-0.9,1.6-0.9
			c0.7,0,1.7,0.4,1.7,2.1v2.9h-0.9v-2.8c0-0.8-0.3-1.5-1.1-1.5c-0.6,0-1,0.4-1.2,0.9c0,0.1-0.1,0.3-0.1,0.4v3h-0.9V32.9z"/>
		<path id="XMLID_82_" fill="#595857" d="M143.1,31.6c0,0.4,0,0.8,0,1.4v2.9c0,1.1-0.2,1.8-0.7,2.2c-0.5,0.4-1.2,0.6-1.8,0.6
			c-0.6,0-1.2-0.1-1.6-0.4l0.2-0.7c0.3,0.2,0.8,0.4,1.4,0.4c0.9,0,1.6-0.5,1.6-1.7v-0.5h0c-0.3,0.5-0.8,0.8-1.6,0.8
			c-1.2,0-2.1-1-2.1-2.4c0-1.7,1.1-2.6,2.2-2.6c0.9,0,1.3,0.4,1.5,0.9h0l0-0.7H143.1z M142.1,33.5c0-0.2,0-0.3-0.1-0.4
			c-0.2-0.5-0.6-0.9-1.3-0.9c-0.9,0-1.5,0.7-1.5,1.9c0,1,0.5,1.8,1.5,1.8c0.6,0,1-0.3,1.2-0.9c0.1-0.2,0.1-0.3,0.1-0.5V33.5z"/>
		<path id="XMLID_81_" fill="#595857" d="M143.8,37.7c0.2-0.6,0.5-1.7,0.6-2.4l1-0.1c-0.2,0.9-0.7,2-1,2.5L143.8,37.7z"/>
		<path id="XMLID_80_" fill="#595857" d="M149.8,36.5l-2.2-6.9h1l1.1,3.4c0.3,0.9,0.5,1.8,0.7,2.6h0c0.2-0.8,0.5-1.7,0.8-2.6
			l1.2-3.4h0.9l-2.5,6.9H149.8z"/>
		<path id="XMLID_77_" fill="#595857" d="M158,34c0,1.8-1.3,2.6-2.5,2.6c-1.3,0-2.4-1-2.4-2.5c0-1.6,1.1-2.6,2.4-2.6
			C157.1,31.4,158,32.5,158,34 M154.1,34c0,1.1,0.6,1.9,1.5,1.9c0.9,0,1.5-0.8,1.5-1.9c0-0.8-0.4-1.9-1.5-1.9
			C154.6,32.1,154.1,33.1,154.1,34"/>
		<path id="XMLID_74_" fill="#595857" d="M160.2,30.2c0,0.3-0.2,0.5-0.6,0.5c-0.3,0-0.5-0.2-0.5-0.5c0-0.3,0.2-0.6,0.6-0.6
			C160,29.6,160.2,29.9,160.2,30.2 M159.2,31.6h0.9v4.9h-0.9V31.6z"/>
		<path id="XMLID_73_" fill="#595857" d="M165.1,36.3c-0.2,0.1-0.8,0.3-1.4,0.3c-1.5,0-2.5-1-2.5-2.5c0-1.5,1-2.6,2.6-2.6
			c0.5,0,1,0.1,1.2,0.3l-0.2,0.7c-0.2-0.1-0.5-0.2-1-0.2c-1.1,0-1.7,0.8-1.7,1.9c0,1.1,0.7,1.8,1.7,1.8c0.5,0,0.8-0.1,1.1-0.2
			L165.1,36.3z"/>
		<path id="XMLID_69_" fill="#595857" d="M166.5,34.2c0,1.2,0.8,1.7,1.7,1.7c0.6,0,1-0.1,1.4-0.3l0.2,0.6c-0.3,0.1-0.9,0.3-1.6,0.3
			c-1.5,0-2.4-1-2.4-2.5c0-1.5,0.9-2.7,2.3-2.7c1.6,0,2,1.4,2,2.3c0,0.2,0,0.3,0,0.4H166.5z M169.2,33.5c0-0.6-0.2-1.5-1.2-1.5
			c-0.9,0-1.3,0.8-1.4,1.5H169.2z"/>
		<path id="XMLID_68_" fill="#595857" d="M171,35.6c0.3,0.2,0.7,0.4,1.2,0.4c0.7,0,1-0.3,1-0.7c0-0.4-0.3-0.7-0.9-0.9
			c-0.9-0.3-1.3-0.8-1.3-1.4c0-0.8,0.6-1.4,1.7-1.4c0.5,0,0.9,0.1,1.2,0.3l-0.2,0.7c-0.2-0.1-0.5-0.3-1-0.3c-0.5,0-0.8,0.3-0.8,0.7
			c0,0.4,0.3,0.6,0.9,0.8c0.9,0.3,1.3,0.8,1.3,1.5c0,0.9-0.7,1.5-1.8,1.5c-0.5,0-1-0.1-1.4-0.3L171,35.6z"/>
		<path id="XMLID_67_" fill="#595857" d="M178.1,36.5l-1.7-6.9h0.9l0.8,3.5c0.2,0.9,0.4,1.7,0.5,2.4h0c0.1-0.7,0.3-1.5,0.6-2.4
			l0.9-3.5h0.9l0.8,3.5c0.2,0.8,0.4,1.6,0.5,2.4h0c0.1-0.8,0.3-1.5,0.5-2.4l0.9-3.5h0.9l-1.9,6.9h-0.9l-0.9-3.6
			c-0.2-0.9-0.4-1.5-0.4-2.2h0c-0.1,0.7-0.3,1.4-0.5,2.2l-1,3.6H178.1z"/>
		<path id="XMLID_63_" fill="#595857" d="M189.7,34c0,1.8-1.3,2.6-2.5,2.6c-1.3,0-2.4-1-2.4-2.5c0-1.6,1.1-2.6,2.4-2.6
			C188.7,31.4,189.7,32.5,189.7,34 M185.8,34c0,1.1,0.6,1.9,1.5,1.9c0.9,0,1.5-0.8,1.5-1.9c0-0.8-0.4-1.9-1.5-1.9
			C186.2,32.1,185.8,33.1,185.8,34"/>
		<path id="XMLID_61_" fill="#595857" d="M190.8,33.1c0-0.6,0-1.1,0-1.5h0.8l0,1h0c0.2-0.7,0.8-1.1,1.4-1.1c0.1,0,0.2,0,0.3,0v0.8
			c-0.1,0-0.2,0-0.3,0c-0.6,0-1.1,0.5-1.2,1.1c0,0.1,0,0.3,0,0.4v2.6h-0.9V33.1z"/>
		<path id="XMLID_58_" fill="#595857" d="M195.5,30.1v1.4h1.3v0.7h-1.3v2.7c0,0.6,0.2,1,0.7,1c0.2,0,0.4,0,0.5-0.1l0,0.7
			c-0.2,0.1-0.4,0.1-0.8,0.1c-0.4,0-0.8-0.1-1-0.4c-0.3-0.3-0.3-0.7-0.3-1.3v-2.7h-0.8v-0.7h0.8v-1.2L195.5,30.1z"/>
		<path id="XMLID_56_" fill="#595857" d="M197.8,29.3h0.9v3.1h0c0.1-0.3,0.4-0.5,0.6-0.6c0.3-0.2,0.6-0.3,0.9-0.3
			c0.7,0,1.7,0.4,1.7,2.1v2.9H201v-2.8c0-0.8-0.3-1.5-1.1-1.5c-0.6,0-1,0.4-1.2,0.9c-0.1,0.1-0.1,0.3-0.1,0.4v3h-0.9V29.3z"/>
		<path id="XMLID_52_" fill="#595857" d="M205.5,35.4c0.4,0.2,1,0.4,1.6,0.4c0.9,0,1.4-0.5,1.4-1.2c0-0.6-0.4-1-1.3-1.4
			c-1.1-0.4-1.8-1-1.8-1.9c0-1.1,0.9-1.9,2.2-1.9c0.7,0,1.2,0.2,1.5,0.3l-0.2,0.7c-0.2-0.1-0.7-0.3-1.3-0.3c-0.9,0-1.3,0.6-1.3,1
			c0,0.6,0.4,1,1.4,1.3c1.2,0.4,1.7,1,1.7,2c0,1.1-0.8,2-2.4,2c-0.7,0-1.4-0.2-1.8-0.4L205.5,35.4z"/>
		<path id="XMLID_42_" fill="#595857" d="M210.6,29.3h0.9v3.1h0c0.1-0.3,0.4-0.5,0.6-0.6c0.3-0.2,0.6-0.3,0.9-0.3
			c0.7,0,1.7,0.4,1.7,2.1v2.9h-0.9v-2.8c0-0.8-0.3-1.5-1.1-1.5c-0.6,0-1,0.4-1.2,0.9c0,0.1-0.1,0.3-0.1,0.4v3h-0.9V29.3z"/>
		<path id="XMLID_36_" fill="#595857" d="M218.9,36.5l-0.1-0.6h0c-0.3,0.4-0.8,0.7-1.5,0.7c-1,0-1.5-0.7-1.5-1.4
			c0-1.2,1.1-1.8,3-1.8v-0.1c0-0.4-0.1-1.1-1.1-1.1c-0.5,0-0.9,0.1-1.3,0.4l-0.2-0.6c0.4-0.3,1-0.4,1.6-0.4c1.5,0,1.9,1,1.9,2v1.8
			c0,0.4,0,0.8,0.1,1.2H218.9z M218.8,34c-1,0-2.1,0.2-2.1,1.1c0,0.6,0.4,0.9,0.8,0.9c0.6,0,1-0.4,1.2-0.8c0-0.1,0.1-0.2,0.1-0.3V34
			z"/>
		<path id="XMLID_28_" fill="#595857" d="M221.1,33.1c0-0.6,0-1.1,0-1.5h0.8l0,1h0c0.2-0.7,0.8-1.1,1.4-1.1c0.1,0,0.2,0,0.3,0v0.8
			c-0.1,0-0.2,0-0.3,0c-0.6,0-1.1,0.5-1.2,1.1c0,0.1,0,0.3,0,0.4v2.6h-0.9V33.1z"/>
		<path id="XMLID_22_" fill="#595857" d="M225.5,30.2c0,0.3-0.2,0.5-0.6,0.5c-0.3,0-0.5-0.2-0.5-0.5c0-0.3,0.2-0.6,0.6-0.6
			C225.3,29.6,225.5,29.9,225.5,30.2 M224.5,31.6h0.9v4.9h-0.9V31.6z"/>
		<path id="XMLID_17_" fill="#595857" d="M226.9,32.9c0-0.5,0-0.9,0-1.3h0.8l0,0.8h0c0.2-0.5,0.8-0.9,1.6-0.9c0.7,0,1.7,0.4,1.7,2.1
			v2.9h-0.9v-2.8c0-0.8-0.3-1.5-1.1-1.5c-0.6,0-1,0.4-1.2,0.9c0,0.1-0.1,0.3-0.1,0.4v3h-0.9V32.9z"/>
		<path id="XMLID_12_" fill="#595857" d="M236.8,31.6c0,0.4,0,0.8,0,1.4v2.9c0,1.1-0.2,1.8-0.7,2.2c-0.5,0.4-1.2,0.6-1.8,0.6
			c-0.6,0-1.2-0.1-1.6-0.4l0.2-0.7c0.3,0.2,0.8,0.4,1.4,0.4c0.9,0,1.6-0.5,1.6-1.7v-0.5h0c-0.3,0.5-0.8,0.8-1.6,0.8
			c-1.2,0-2.1-1-2.1-2.4c0-1.7,1.1-2.6,2.2-2.6c0.9,0,1.3,0.4,1.5,0.9h0l0-0.7H236.8z M235.8,33.5c0-0.2,0-0.3-0.1-0.4
			c-0.2-0.5-0.6-0.9-1.3-0.9c-0.9,0-1.5,0.7-1.5,1.9c0,1,0.5,1.8,1.5,1.8c0.5,0,1-0.3,1.2-0.9c0.1-0.2,0.1-0.3,0.1-0.5V33.5z"/>
	</g>
</g>
<g>
</g>
<g>
</g>
<g>
</g>
<g>
</g>
<g>
</g>
<g>
</g>
<g>
</g>
<g>
</g>
<g>
</g>
<g>
</g>
<g>
</g>
<g>
</g>
<g>
</g>
<g>
</g>
<g>
</g>
</svg>
